<svg width="140" height="140" viewBox="0 0 140 140" fill="none" xmlns="http://www.w3.org/2000/svg">
<path d="M140 70C140 108.658 108.658 140 70 140C31.3422 140 0 108.658 0 70C0 31.3422 31.3422 0 70 0C108.658 0 140 31.3422 140 70Z" fill="white"/>
<path d="M132.932 43.4217C129.495 35.2953 124.577 27.9797 118.301 21.7042C112.026 15.4287 104.728 10.5106 96.5837 7.07316C88.1576 3.51235 79.2203 1.69669 70.001 1.69669C60.7817 1.69669 51.8444 3.49472 43.4183 7.07316C35.2919 10.5106 27.9763 15.4287 21.7184 21.7042C15.4429 27.9797 10.5248 35.2777 7.08737 43.4217C3.52655 51.8478 1.72852 60.7851 1.72852 70.0044C1.72852 79.2238 3.52655 88.1611 7.08737 96.5871C10.5248 104.714 15.4606 112.029 21.7184 118.287C27.9939 124.562 35.2919 129.481 43.4183 132.918C51.8444 136.479 60.7817 138.277 70.001 138.277C79.2203 138.277 88.1753 136.479 96.5837 132.918C104.71 129.481 112.026 124.562 118.301 118.287C124.577 112.011 129.495 104.714 132.932 96.5871C136.493 88.1611 138.309 79.2238 138.309 70.0044C138.309 60.7851 136.511 51.8302 132.932 43.4217ZM70.001 131.349C36.1027 131.349 8.63862 103.885 8.63862 69.9868C8.63862 36.0885 36.1027 8.62441 70.001 8.62441C103.899 8.62441 131.363 36.0885 131.363 69.9868C131.363 103.885 103.899 131.349 70.001 131.349Z" fill="#23195F"/>
<path d="M121.085 86.1272C121.156 84.4173 120.557 82.5312 119.235 80.3629C118.212 78.6883 114.598 75.8502 113.417 74.722C114.81 73.5234 117.648 70.2622 117.542 67.5123C117.525 66.9658 117.454 66.4017 117.366 65.8553C117.437 65.5203 117.507 65.1854 117.542 64.8505C117.842 62.5589 117.489 60.1086 116.379 57.958L114.951 55.1904L114.105 55.9308L113.1 56.8298C113.347 56.4068 113.541 55.9484 113.717 55.4725C114.122 54.3796 114.369 53.1632 114.422 51.8412C114.616 47.1698 112.554 42.4808 108.922 39.2902L106.472 37.1396L105.696 36.4521L105.485 37.686C104.198 35.0947 102.735 32.6621 101.078 30.3705C94.6261 21.4508 85.8651 16.5679 75.024 15.8276C73.085 15.7042 71.4985 15.6337 70.0177 15.616H70.0001C68.5194 15.616 66.9152 15.6865 64.9762 15.8276C54.1351 16.5679 45.3564 21.4685 38.9223 30.3705C37.2653 32.6621 35.8022 35.0947 34.5153 37.686L34.3038 36.4521L33.5282 37.1396L31.0779 39.2902C27.4466 42.4632 25.3841 47.1698 25.578 51.8412C25.6309 53.1456 25.8777 54.3796 26.2832 55.4725C26.4594 55.9484 26.671 56.4068 26.9001 56.8298L25.8953 55.9308L25.0492 55.1904L23.6214 57.958C22.5108 60.1262 22.1583 62.5589 22.4579 64.8505C22.5108 65.1854 22.5637 65.5203 22.6342 65.8553C22.5284 66.4194 22.4756 66.9658 22.4579 67.5123C22.3522 70.2622 25.1902 73.541 26.5828 74.722C25.4194 75.8502 21.8057 78.6883 20.7657 80.3629C19.4436 82.5312 18.8442 84.4173 18.9147 86.1272C19.0558 89.7762 20.3073 92.9316 22.5813 95.47C23.4803 96.4748 23.78 97.4443 22.3874 99.0837C21.9115 99.6478 21.4179 100.177 20.8714 100.758C20.6246 101.005 20.3955 101.27 20.1487 101.534C22.4579 105.165 25.1902 108.585 28.3104 111.705C33.5458 116.958 39.6098 121.083 46.1849 123.992C49.2169 121.929 51.4909 119.479 52.954 116.711C53.571 115.548 54.0293 114.349 54.3642 113.08C54.3642 113.08 54.7697 112.269 55.0517 109.66C59.5644 114.244 64.6765 116.958 69.8238 117.311H69.9825H70.1411C75.3061 116.958 80.4358 114.226 84.9661 109.607C85.0719 110.577 85.1953 111.3 85.301 111.829C85.636 113.556 86.2001 115.195 87.0109 116.747C88.474 119.514 90.748 121.947 93.78 124.027C100.373 121.118 106.419 116.994 111.672 111.74C114.792 108.62 117.525 105.201 119.834 101.569C119.587 101.305 119.34 101.04 119.111 100.794C118.582 100.229 118.071 99.683 117.595 99.1189C116.203 97.4795 116.502 96.5276 117.401 95.5052C119.693 92.9668 120.927 89.8114 121.068 86.1625M106.648 58.4163C106.119 58.6631 105.502 58.7865 104.815 58.7865C101.131 58.7865 95.5428 55.402 92.6695 50.9598C93.4627 50.854 94.256 50.8011 95.0316 50.8011C100.937 50.8011 106.119 53.8155 106.648 58.4163ZM93.7624 30.3352C99.3328 31.8336 103.898 39.3959 101.924 43.8029C98.328 39.8543 93.5861 36.7165 93.7624 30.3352ZM85.6007 32.6974C89.3554 32.6974 92.405 34.7951 92.7223 37.8623C89.2497 37.686 85.4244 35.7822 83.1504 32.9794C83.9966 32.7855 84.8075 32.6974 85.6007 32.6974ZM89.849 40.9648C94.256 40.9648 98.187 42.6218 99.6677 45.6891C98.3809 46.4647 96.6533 46.8172 94.7848 46.8172C90.6423 46.8172 85.7594 45.0897 83.1504 42.234C85.3363 41.3702 87.6632 40.9648 89.8666 40.9648M63.6717 26.651C64.7999 26.4924 65.9281 26.3337 67.0563 26.1398C67.1973 26.1222 67.3736 25.9635 67.4441 25.8225C68.2373 24.2184 69.0129 22.5966 69.8062 20.9749C69.8767 20.8515 69.9296 20.7281 70.0354 20.5166C70.1235 20.6928 70.194 20.7986 70.2469 20.922C71.0401 22.5438 71.8158 24.1831 72.6266 25.8049C72.6972 25.9459 72.8911 26.1046 73.0497 26.1398C74.9535 26.4395 76.8573 26.7039 78.8493 26.986C78.7259 27.127 78.6377 27.2151 78.5496 27.3033C77.2628 28.5548 75.9936 29.8064 74.7067 31.0404C74.5305 31.2166 74.4776 31.3577 74.5128 31.6221C74.8301 33.4025 75.1298 35.1829 75.4295 36.9809C75.4295 37.0867 75.4471 37.1925 75.4647 37.3335C75.3061 37.263 75.2003 37.2101 75.0769 37.1396C73.4904 36.3111 71.9039 35.5002 70.335 34.6541C70.1059 34.5307 69.9472 34.5307 69.7181 34.6541C68.1492 35.4826 66.5803 36.2934 65.0114 37.1219C64.888 37.1925 64.7646 37.2453 64.5707 37.3335C64.6941 36.5755 64.8175 35.8704 64.9409 35.1476C65.1525 33.9313 65.364 32.715 65.5579 31.4987C65.5755 31.3577 65.4698 31.1461 65.364 31.0404C64.0948 29.7888 62.808 28.5372 61.5388 27.3033C61.4506 27.2151 61.3449 27.1446 61.1509 26.986C62.0852 26.8449 62.8785 26.7392 63.6717 26.6158M54.4171 32.6974C55.2104 32.6974 56.0389 32.7855 56.8674 32.9794C54.5934 35.7646 50.7505 37.686 47.2955 37.8623C47.6128 34.7951 50.6624 32.6974 54.4171 32.6974ZM56.8674 42.234C54.2408 45.0897 49.3756 46.8172 45.233 46.8172C43.3645 46.8172 41.637 46.4647 40.3501 45.6891C41.8309 42.6218 45.7619 40.9648 50.1688 40.9648C52.3723 40.9648 54.6815 41.3879 56.885 42.234M46.2555 30.3352C46.4141 36.7341 41.6899 39.8543 38.0938 43.8029C36.1195 39.3959 40.7027 31.8336 46.2555 30.3352ZM44.9863 50.8011C45.7619 50.8011 46.5551 50.854 47.3484 50.9598C44.475 55.402 38.887 58.7865 35.2028 58.7865C34.5153 58.7865 33.8984 58.6631 33.3695 58.4163C33.8984 53.7978 39.0809 50.8011 44.9863 50.8011ZM28.4161 70.3327C24.9963 68.4289 23.7448 62.9996 25.772 59.0333C28.4514 61.3954 29.703 66.7543 28.4161 70.3327ZM32.6644 41.0882C33.6516 46.6938 33.3519 52.0527 30.3376 57.1471C26.812 54.5558 26.953 46.0769 32.6644 41.0882ZM31.0427 71.1083C29.5796 67.6709 32.3119 63.5108 37.0537 62.1887C36.4191 65.7319 34.0041 69.2574 31.0427 71.1083ZM96.6886 76.4319C96.3184 81.8084 94.9611 87.4141 92.8457 92.6319C92.2111 94.1831 91.5237 95.7168 90.7657 97.1799C90.7304 97.2327 90.7128 97.2856 90.6775 97.3385C90.5541 97.5853 90.4131 97.8321 90.2897 98.0789C90.2545 98.1494 90.2016 98.2199 90.1663 98.308C90.0429 98.5372 89.9195 98.7664 89.7785 98.9955C89.7256 99.066 89.6904 99.1542 89.6375 99.2247C89.5141 99.4539 89.3731 99.683 89.2497 99.9122C89.2144 99.9651 89.1792 100.018 89.1439 100.071C88.8442 100.582 88.5269 101.076 88.2096 101.569C88.2096 101.569 88.192 101.604 88.1744 101.622C88.0686 101.798 87.9452 101.975 87.8218 102.133C87.7337 102.257 87.6632 102.38 87.575 102.503C87.4693 102.662 87.3635 102.821 87.2577 102.962C87.1696 103.103 87.0638 103.244 86.9757 103.367C86.8699 103.508 86.7641 103.649 86.6584 103.808C86.5526 103.949 86.4468 104.09 86.3411 104.231C86.2353 104.372 86.1295 104.495 86.0414 104.636C85.918 104.777 85.8122 104.936 85.6889 105.077C85.5831 105.201 85.4949 105.324 85.3892 105.447C85.2482 105.624 85.1071 105.782 84.9661 105.959C84.8956 106.047 84.8075 106.152 84.7369 106.241C80.471 111.194 75.3766 114.508 69.9825 114.861C64.6236 114.508 59.5468 111.229 55.2985 106.311C55.1399 106.135 54.9812 105.941 54.8226 105.765C54.7697 105.694 54.6992 105.624 54.6463 105.535C54.5053 105.359 54.3642 105.183 54.2232 105.007C54.1527 104.918 54.0822 104.83 54.0117 104.742C53.8707 104.566 53.7296 104.372 53.5886 104.196C53.5181 104.108 53.4652 104.019 53.3947 103.931C53.2537 103.737 53.1127 103.543 52.9716 103.35C52.9188 103.279 52.8659 103.209 52.813 103.12C52.672 102.909 52.5133 102.697 52.3723 102.486C52.3723 102.486 52.3547 102.451 52.337 102.433C51.8082 101.64 51.2794 100.829 50.7858 100C50.7858 99.9827 50.7682 99.965 50.7505 99.9474C50.6095 99.7006 50.4509 99.4362 50.3099 99.1894C50.2746 99.1365 50.257 99.0837 50.2217 99.0308C50.0807 98.784 49.9397 98.5196 49.7986 98.2728C49.7634 98.2199 49.7458 98.167 49.7105 98.1141C49.5695 97.8497 49.4285 97.5853 49.2874 97.3209C49.2874 97.2856 49.2522 97.268 49.2522 97.2328C48.4766 95.7344 47.7714 94.1831 47.1368 92.5966C45.0215 87.3788 43.6642 81.7732 43.294 76.3967C43.1706 74.6339 43.153 72.9064 43.2587 71.2317C43.2587 71.2317 43.2587 71.1965 43.2587 71.1789C43.2764 70.791 43.3116 70.4032 43.3469 70.0331C43.3469 69.9802 43.3469 69.9097 43.3469 69.8568C43.3821 69.5218 43.4174 69.1693 43.4703 68.8344C43.4703 68.7639 43.4879 68.6933 43.5055 68.6052C43.5584 68.2703 43.5937 67.953 43.6465 67.6357C43.6465 67.5652 43.6642 67.4946 43.6818 67.4241C43.7347 67.0892 43.8052 66.7366 43.8757 66.4017C43.8757 66.3665 43.8757 66.3136 43.8933 66.2783C44.052 65.5203 44.2459 64.7623 44.475 64.022C44.4927 63.9691 44.5103 63.8986 44.5279 63.8457C44.6161 63.546 44.7218 63.264 44.81 62.9819C44.8452 62.8762 44.8805 62.7704 44.9334 62.6646C45.0215 62.4355 45.1097 62.1887 45.1978 61.9595C45.2507 61.8361 45.3036 61.7127 45.3564 61.607C45.4446 61.3954 45.5503 61.1839 45.6385 60.9724C45.6914 60.849 45.7619 60.7256 45.8148 60.6022C45.9205 60.3906 46.0263 60.1967 46.1321 60.0028C46.2026 59.8794 46.2555 59.7737 46.326 59.6503C46.4494 59.4387 46.5728 59.2272 46.6962 59.0333C46.749 58.9275 46.8195 58.8394 46.8724 58.7336C47.0663 58.434 47.2602 58.1519 47.4541 57.8699C48.3003 57.3763 49.1464 56.9003 50.0102 56.4068C52.2489 55.1199 54.47 53.8331 56.6559 52.4758C57.0966 52.2113 57.5196 51.9293 57.9603 51.6473C62.2791 48.8621 66.3864 45.7419 69.9472 41.7933C73.4904 45.7419 77.5977 48.8621 81.9165 51.6473C82.3572 51.9293 82.7803 52.1937 83.221 52.4758C85.4068 53.8331 87.6279 55.1199 89.8666 56.4068C90.7128 56.9003 91.5589 57.3763 92.4227 57.8699C92.6166 58.1519 92.8105 58.4516 93.0044 58.7336C93.0573 58.8218 93.1278 58.9275 93.1807 59.0333C93.3041 59.2448 93.4275 59.4387 93.5508 59.6503C93.6214 59.7737 93.6742 59.8794 93.7448 60.0028C93.8505 60.1967 93.9563 60.4083 94.0621 60.6022C94.1149 60.7256 94.1854 60.849 94.2383 60.9724C94.3441 61.1839 94.4322 61.3954 94.5204 61.607C94.5733 61.7304 94.6261 61.8538 94.679 61.9771C94.7672 62.2063 94.8553 62.4355 94.9435 62.6823C94.9787 62.788 95.0316 62.8938 95.0668 62.9996C95.1726 63.2816 95.2607 63.5637 95.3489 63.8633C95.3665 63.9162 95.3841 63.9867 95.4018 64.0396C95.6309 64.7623 95.8248 65.5203 95.9835 66.2783C95.9835 66.3136 95.9835 66.3665 96.0011 66.4017C96.0716 66.7366 96.1421 67.0716 96.195 67.4241C96.195 67.4946 96.2126 67.5652 96.2303 67.6357C96.2832 67.953 96.336 68.2879 96.3713 68.6052C96.3713 68.6757 96.3889 68.7462 96.4065 68.8344C96.4418 69.1693 96.4947 69.5042 96.5299 69.8391C96.5299 69.892 96.5299 69.9625 96.5299 70.0154C96.5652 70.4032 96.6005 70.7734 96.6181 71.1612C96.6181 71.1612 96.6181 71.1965 96.6181 71.2141C96.7239 72.8888 96.7062 74.6339 96.5828 76.3791M108.975 71.1083C106.014 69.2751 103.599 65.7319 102.964 62.1887C107.706 63.5108 110.438 67.6533 108.975 71.1083ZM109.68 57.1648C106.666 52.0527 106.384 46.7115 107.353 41.1058C113.065 46.0945 113.188 54.5735 109.68 57.1648ZM111.602 70.3327C110.315 66.7543 111.566 61.3954 114.246 59.0333C116.291 62.9996 115.022 68.4289 111.602 70.3327Z" fill="#23195F"/>
<path d="M66.0328 102.791C67.7427 104.554 68.8885 105.488 69.9109 105.629C70.9333 105.488 72.0791 104.554 73.789 102.791C69.5407 103.972 66.0151 102.791 66.0151 102.791" fill="#23195F"/>
<path d="M75.6564 72.0411C81.4383 64.0734 92.2971 66.7528 92.2971 66.7528C84.6995 61.676 73.9465 69.0444 73.9465 69.0444C71.2495 72.9754 72.9065 83.746 72.9065 83.746C73.735 73.9802 75.6564 72.0235 75.6564 72.0235" fill="#23195F"/>
<path d="M84.0133 69.787C78.3195 69.7693 75.6577 75.516 75.6577 75.516L78.108 75.0224C78.108 75.0224 78.725 73.2244 80.9284 72.1843C80.8932 72.3783 80.8579 72.5898 80.8579 72.8013C80.8579 74.4583 82.2681 75.7981 84.0133 75.7981C85.7584 75.7981 87.1687 74.4583 87.1687 72.8013C87.1687 72.3959 87.0805 72.0081 86.9219 71.6555C88.4379 71.9199 90.2183 72.4311 92.2807 73.3125C89.0372 70.7389 86.2873 69.8046 84.0133 69.787Z" fill="#23195F"/>
<path d="M64.3609 72.0486L66.0708 69.0519C66.0708 69.0519 55.3178 61.6658 47.7202 66.7603C47.7202 66.7603 58.5789 64.0808 64.3609 72.0486Z" fill="#23195F"/>
<path d="M61.9269 75.0225L64.3772 75.5161C64.3772 75.5161 61.7154 69.7518 56.0216 69.7871C53.7476 69.7871 50.9977 70.739 47.7542 73.3126C49.8166 72.4313 51.597 71.9201 53.113 71.6556C52.9543 72.0082 52.8662 72.396 52.8662 72.8015C52.8662 74.4585 54.2764 75.7982 56.0216 75.7982C57.7667 75.7982 59.177 74.4585 59.177 72.8015C59.177 72.5899 59.1593 72.396 59.1065 72.1845C61.3099 73.2421 61.9269 75.0225 61.9269 75.0225Z" fill="#23195F"/>
<path d="M73.2959 88.4395L71.0571 91.2423C71.0571 91.2423 73.7366 90.9955 75.7109 90.0788L73.2959 88.4395Z" fill="#23195F"/>
<path d="M68.7646 91.2423L66.5259 88.4395L64.1108 90.0788C66.0852 90.9955 68.7646 91.2423 68.7646 91.2423Z" fill="#23195F"/>
<path d="M70.2642 97.1768C70.1408 97.2473 70.035 97.3178 69.9292 97.3707C69.8411 97.3178 69.7177 97.2473 69.5943 97.1768C66.7386 95.2554 64.1297 96.4541 61.3445 97.8291C64.4646 99.1511 67.2674 99.8739 69.9292 99.962C72.6086 99.8739 75.3938 99.1511 78.514 97.8291C75.7111 96.4717 73.1199 95.2554 70.2642 97.1768Z" fill="#23195F"/>
</svg>
