<svg width="626" height="368" viewBox="0 0 626 368" fill="none" xmlns="http://www.w3.org/2000/svg">
<mask id="mask0_233_8835" style="mask-type:alpha" maskUnits="userSpaceOnUse" x="-29" y="-23" width="683" height="413">
<rect width="655.992" height="344.75" rx="15.8935" transform="matrix(0.993981 -0.109555 0.096938 0.99529 -30.3359 47.6495)" fill="#4CA4BD"/>
</mask>
<g mask="url(#mask0_233_8835)">
<g opacity="0.2">
<mask id="mask1_233_8835" style="mask-type:alpha" maskUnits="userSpaceOnUse" x="-61" y="-15" width="747" height="408">
<rect x="-59.986" y="9.21667" width="732.706" height="382.892" transform="rotate(-1.87942 -59.986 9.21667)" fill="#23195F" stroke="#23195F" stroke-width="0.284508"/>
</mask>
<g mask="url(#mask1_233_8835)">
<g opacity="0.15">
<path d="M314.926 396.28C315.074 395.93 315.222 395.58 315.37 395.229C316.915 391.566 318.46 387.905 320.102 384.401L320.102 384.4C320.739 383.035 321.39 381.699 322.063 380.398L322.063 380.398C326.047 372.636 330.709 366.092 337.18 362.717L338.095 390.597C335.61 391.883 333.389 393.64 331.38 395.741L314.926 396.28Z" fill="#41382E" stroke="#41382E" stroke-width="0.186954"/>
<path d="M320.98 350.125C318.599 354.764 316.463 359.826 314.327 364.887C311.356 371.926 308.386 378.964 304.761 384.86C301.526 390.113 297.775 394.456 293.037 397.09C291.006 398.224 288.793 399.044 286.365 399.481C281.821 400.302 277.942 399.545 274.523 397.698L320.98 350.125ZM320.98 350.125L320.896 350.082C320.896 350.082 320.896 350.082 320.896 350.082L320.98 350.125ZM336.171 332.221L336.173 332.28L336.266 332.277L336.223 332.194C336.206 332.203 336.188 332.212 336.171 332.221ZM335.252 304.23C335.283 304.214 335.313 304.198 335.344 304.183L335.348 304.286C335.317 304.302 335.286 304.318 335.256 304.334L335.252 304.23ZM145.124 377.334C148.446 382.484 152.04 387.017 156.375 389.808L263.112 386.226L263.189 386.174C260.874 382.77 258.708 379.011 256.54 375.249C256.236 374.722 255.933 374.195 255.629 373.669C253.154 369.389 250.649 365.168 247.895 361.536C242.385 354.273 235.856 349.348 226.537 351.033C218.872 352.42 213.369 357.547 208.892 364.421C204.882 370.578 201.687 378.15 198.496 385.713C198.126 386.591 197.756 387.468 197.384 388.344L197.47 388.38L197.384 388.344C195.64 392.464 193.862 396.532 191.932 400.314L144.122 401.883C143.009 400.03 141.917 398.132 140.824 396.233L140.756 396.115C139.631 394.161 138.506 392.208 137.359 390.307C134.004 384.738 130.463 379.587 126.211 376.108C121.954 372.625 116.982 370.817 110.777 371.936L110.777 371.936C100.827 373.74 94.5215 381.837 89.3688 391.882L89.3687 391.882C87.4316 395.676 85.6511 399.741 83.9014 403.862L68.2622 404.375C71.1156 400.989 73.5522 396.88 75.7772 392.42C77.9603 388.05 79.9468 383.34 81.9318 378.633C82.1308 378.162 82.3297 377.69 82.5288 377.219C84.7152 372.043 86.9237 366.914 89.4164 362.279C94.4033 353.008 100.515 345.743 109.834 344.058C115.753 342.989 120.534 344.607 124.652 347.813C128.773 351.022 132.229 355.822 135.488 361.115C136.902 363.413 138.279 365.802 139.656 368.193C139.864 368.554 140.073 368.915 140.281 369.276C141.867 372.026 143.462 374.758 145.124 377.334Z" fill="#41382E" stroke="#41382E" stroke-width="0.186954"/>
<path d="M-4.98463 392.849L-4.98468 392.849C-7.36234 393.278 -9.53552 394.062 -11.5285 395.156C-16.3222 397.775 -20.1087 402.123 -23.355 407.38L-37.3865 407.841C-36.1712 405.121 -34.9936 402.329 -33.8158 399.537C-32.949 397.483 -32.0821 395.428 -31.2 393.401C-28.2013 386.521 -25.0193 379.976 -21.0152 374.867C-17.0125 369.759 -12.1929 366.093 -5.91903 364.96C2.16598 363.503 8.13332 367.064 13.1852 372.848C17.1256 377.36 20.4993 383.212 23.8784 389.074C24.8358 390.735 25.7936 392.396 26.7648 394.028L26.8451 393.98L26.7648 394.028C29.2556 398.212 31.8282 402.201 34.7114 405.475L18.277 406.014C14.9148 401.085 11.2296 396.91 6.76171 394.558C3.35936 392.766 -0.486583 392.039 -4.98463 392.849Z" fill="#41382E" stroke="#41382E" stroke-width="0.186954"/>
<path d="M-43.3753 387.198C-47.0314 393.616 -51.3228 398.904 -56.9995 401.77L-57.9144 373.889C-52.1573 371.001 -47.8251 365.656 -44.1488 359.198C-41.0309 353.72 -38.3795 347.433 -35.7309 341.153C-35.2469 340.005 -34.7631 338.858 -34.2765 337.716C-31.1251 330.318 -27.8585 323.138 -23.7054 317.505C-19.5535 311.873 -14.5217 307.795 -7.84128 306.588C-0.643653 305.288 4.8744 307.966 9.56236 312.647C14.255 317.334 18.1078 324.02 21.9683 330.721L21.9734 330.73C25.8288 337.422 29.6923 344.128 34.4033 348.833C39.1212 353.545 44.697 356.258 51.9697 354.944C59.2394 353.631 64.5645 348.953 68.9134 342.612C73.2602 336.274 76.6397 328.261 80.0144 320.261L80.0166 320.256C83.3939 312.249 86.7666 304.254 91.1009 297.934C95.4341 291.616 100.721 286.983 107.921 285.684C115.122 284.384 120.643 287.061 125.333 291.742C130.027 296.428 133.881 303.113 137.743 309.813L137.751 309.826C141.606 316.516 145.469 323.219 150.179 327.923C154.897 332.634 160.473 335.346 167.746 334.033C175.014 332.72 180.338 328.042 184.686 321.701C189.031 315.365 192.409 307.355 195.783 299.357L195.788 299.347C199.165 291.341 202.538 283.346 206.873 277.026C211.207 270.707 216.495 266.073 223.697 264.772C230.893 263.472 236.41 266.15 241.097 270.832C245.789 275.518 249.641 282.204 253.502 288.905L253.504 288.91C257.36 295.603 261.225 302.312 265.938 307.018C270.657 311.73 276.234 314.443 283.508 313.129C290.232 311.915 295.292 307.821 299.455 302.194C303.616 296.569 306.887 289.405 310.031 282.035C310.54 280.842 311.046 279.643 311.551 278.444C314.169 272.238 316.785 266.037 319.85 260.616C323.479 254.199 327.73 248.888 333.345 245.96L334.26 273.84C328.569 276.795 324.28 282.167 320.633 288.627C317.572 294.048 314.958 300.245 312.347 306.435C311.837 307.644 311.327 308.853 310.814 310.056C307.671 317.421 304.408 324.56 300.262 330.159C296.117 335.757 291.095 339.807 284.435 341.008C277.24 342.308 271.723 339.63 267.036 334.95C262.344 330.264 258.492 323.579 254.631 316.879L254.628 316.874C250.772 310.181 246.908 303.474 242.195 298.769C237.476 294.058 231.899 291.345 224.625 292.659C217.357 293.97 212.033 298.647 207.685 304.987C203.339 311.324 199.96 319.334 196.586 327.334L196.583 327.342C193.205 335.349 189.832 343.344 185.497 349.665C181.163 355.984 175.875 360.618 168.673 361.919C161.477 363.219 155.961 360.541 151.273 355.86C146.582 351.173 142.729 344.487 138.869 337.786L138.866 337.782C135.01 331.088 131.145 324.38 126.432 319.674C121.714 314.962 116.137 312.249 108.862 313.563C101.594 314.876 96.2704 319.553 91.9223 325.894C87.5772 332.231 84.1985 340.24 80.8244 348.239L80.8204 348.248C77.443 356.255 74.07 364.249 69.7347 370.57C65.4007 376.889 60.113 381.522 52.9107 382.823C45.7113 384.123 40.1919 381.446 35.503 376.765C30.8094 372.079 26.956 365.394 23.095 358.693L23.0878 358.681C19.2327 351.99 15.3696 345.286 10.6593 340.581C5.94138 335.869 0.365466 333.155 -6.90726 334.467C-13.6574 335.686 -18.7313 339.806 -22.9038 345.465C-27.075 351.123 -30.3513 358.327 -33.5046 365.727C-33.9909 366.868 -34.4742 368.014 -34.9574 369.159C-37.6095 375.447 -40.259 381.728 -43.3753 387.198Z" fill="#41382E" stroke="#41382E" stroke-width="0.186954"/>
<path d="M-45.2891 328.821C-48.9452 335.239 -53.2366 340.527 -58.9133 343.393L-59.8284 315.504C-54.0714 312.617 -49.7391 307.271 -46.0628 300.813C-42.9449 295.336 -40.2936 289.049 -37.6449 282.768C-37.161 281.62 -36.6771 280.473 -36.1906 279.331C-33.0391 271.934 -29.7726 264.754 -25.6195 259.12C-21.4676 253.488 -16.4357 249.41 -9.75534 248.203C-2.55767 246.905 2.96042 249.584 7.6484 254.266C12.3411 258.953 16.1938 265.638 20.0544 272.339L20.0588 272.347C23.9144 279.039 27.778 285.745 32.4893 290.45C37.2071 295.161 42.783 297.874 50.0556 296.56C57.3253 295.247 62.6504 290.569 66.9994 284.228C71.3465 277.89 74.7262 269.878 78.1011 261.878L78.1027 261.874C81.48 253.868 84.8526 245.873 89.187 239.553C93.5201 233.234 98.8066 228.6 106.007 227.299C113.208 225.999 118.729 228.677 123.419 233.359C128.113 238.045 131.968 244.731 135.829 251.432L135.837 251.445C139.692 258.136 143.555 264.84 148.265 269.544C152.983 274.256 158.559 276.969 165.832 275.656C173.1 274.343 178.424 269.665 182.772 263.324C187.117 256.988 190.496 248.978 193.87 240.98L193.874 240.97C197.251 232.964 200.624 224.969 204.959 218.648C209.294 212.33 214.581 207.696 221.784 206.395C228.979 205.095 234.496 207.773 239.183 212.454C243.875 217.14 247.727 223.825 251.588 230.526L251.591 230.531C255.447 237.224 259.311 243.931 264.024 248.638C268.743 253.35 274.32 256.064 281.595 254.752C288.318 253.538 293.378 249.444 297.541 243.817C301.703 238.192 304.974 231.027 308.117 223.657C308.626 222.463 309.132 221.263 309.638 220.064C312.256 213.858 314.872 207.657 317.936 202.236C321.565 195.818 325.816 190.505 331.431 187.575L332.346 215.455C326.655 218.41 322.366 223.782 318.718 230.242C315.657 235.664 313.043 241.861 310.432 248.053C309.922 249.261 309.412 250.469 308.899 251.672C305.757 259.037 302.494 266.177 298.348 271.778C294.203 277.376 289.181 281.428 282.522 282.631C275.326 283.931 269.809 281.253 265.122 276.571C260.43 271.885 256.578 265.199 252.717 258.498L252.714 258.493C248.858 251.8 244.994 245.092 240.281 240.385C235.562 235.674 229.985 232.96 222.711 234.274C215.443 235.587 210.119 240.265 205.771 246.606C201.426 252.942 198.047 260.952 194.673 268.95L194.669 268.96C191.291 276.966 187.918 284.961 183.583 291.281C179.249 297.6 173.961 302.234 166.759 303.535C159.563 304.835 154.046 302.157 149.359 297.476C144.668 292.79 140.815 286.105 136.955 279.404L136.951 279.399C133.096 272.706 129.231 265.999 124.518 261.292C119.8 256.58 114.223 253.866 106.948 255.178C99.6801 256.491 94.3564 261.169 90.0083 267.511C85.6632 273.848 82.2845 281.858 78.9105 289.858L78.9064 289.868C75.5291 297.875 72.1561 305.87 67.8209 312.192C63.4869 318.511 58.1992 323.145 50.9968 324.446C43.7975 325.746 38.2781 323.068 33.5892 318.387C28.8956 313.7 25.0421 307.014 21.1811 300.313L21.1747 300.302C17.3194 293.611 13.456 286.906 8.74539 282.201C4.02746 277.489 -1.54843 274.776 -8.82109 276.09C-15.5712 277.309 -20.6451 281.429 -24.8176 287.088C-28.9888 292.745 -32.2651 299.95 -35.4184 307.35C-35.9047 308.491 -36.388 309.637 -36.8712 310.782C-39.5233 317.07 -42.1728 323.351 -45.2891 328.821Z" fill="#41382E" stroke="#41382E" stroke-width="0.186954"/>
<path d="M-47.2073 270.445C-50.8634 276.862 -55.1548 282.15 -60.8315 285.017L-61.7464 257.136C-55.9893 254.248 -51.6571 248.902 -47.9808 242.444C-44.8629 236.967 -42.2115 230.68 -39.5629 224.399C-39.0789 223.252 -38.5951 222.104 -38.1085 220.962C-34.9571 213.565 -31.6906 206.385 -27.5374 200.751C-23.3856 195.119 -18.3537 191.041 -11.6733 189.834C-4.47568 188.534 1.04237 191.212 5.73033 195.894C10.423 200.58 14.2757 207.266 18.1363 213.967L18.1414 213.976C21.9968 220.668 25.8603 227.374 30.5713 232.08C35.2891 236.792 40.865 239.505 48.1377 238.191C55.4074 236.878 60.7324 232.201 65.0814 225.86C69.4285 219.521 72.8082 211.509 76.1831 203.509L76.1847 203.505C79.562 195.499 82.9347 187.504 87.269 181.184C91.6022 174.865 96.8886 170.231 104.089 168.931C111.29 167.63 116.811 170.308 121.501 174.989C126.195 179.674 130.049 186.359 133.911 193.059L133.919 193.073C137.774 199.762 141.637 206.466 146.347 211.169C151.065 215.88 156.641 218.593 163.914 217.279C171.182 215.968 176.506 211.292 180.854 204.951C185.199 198.615 188.578 190.604 191.952 182.605L191.956 182.596C195.333 174.59 198.706 166.594 203.041 160.273C207.375 153.954 212.663 149.32 219.865 148.019C227.061 146.719 232.578 149.397 237.265 154.079C241.957 158.765 245.809 165.451 249.67 172.152L249.672 172.156C253.528 178.85 257.393 185.558 262.106 190.264C266.825 194.976 272.402 197.689 279.676 196.376C286.4 195.161 291.46 191.067 295.623 185.441C299.784 179.816 303.055 172.651 306.199 165.282C306.708 164.088 307.214 162.89 307.719 161.691C310.337 155.484 312.953 149.284 316.018 143.863C319.647 137.445 323.898 132.134 329.513 129.206L330.428 157.087C324.737 160.041 320.448 165.414 316.801 171.874C313.74 177.296 311.126 183.493 308.514 189.684C308.004 190.893 307.494 192.101 306.982 193.304C303.839 200.669 300.577 207.809 296.43 213.409C292.285 219.007 287.263 223.059 280.604 224.262C273.408 225.56 267.891 222.881 263.204 218.199C258.512 213.513 254.66 206.827 250.799 200.126L250.797 200.123C246.941 193.429 243.076 186.722 238.363 182.016C233.644 177.304 228.067 174.592 220.793 175.906C213.525 177.217 208.201 181.893 203.853 188.234C199.507 194.57 196.128 202.581 192.754 210.58L192.751 210.588C189.373 218.595 186 226.591 181.665 232.912C177.331 239.231 172.043 243.865 164.841 245.166C157.645 246.466 152.128 243.788 147.441 239.106C142.75 234.42 138.897 227.734 135.037 221.033L135.034 221.028C131.178 214.335 127.313 207.627 122.6 202.92C117.882 198.208 112.305 195.495 105.03 196.809C97.7622 198.122 92.4384 202.8 88.0903 209.141C83.7452 215.477 80.3664 223.487 76.9924 231.485L76.9883 231.495C73.611 239.501 70.238 247.496 65.9027 253.816C61.5687 260.135 56.281 264.769 49.0786 266.07C41.8793 267.37 36.3599 264.692 31.671 260.011C26.9774 255.326 23.124 248.64 19.263 241.94L19.2558 241.927C15.4007 235.237 11.5376 228.532 6.82728 223.828C2.10935 219.115 -3.46657 216.401 -10.7393 217.713C-17.4894 218.932 -22.5633 223.052 -26.7358 228.712C-30.907 234.369 -34.1833 241.573 -37.3366 248.973C-37.8229 250.115 -38.3062 251.26 -38.7894 252.406C-41.4416 258.693 -44.091 264.974 -47.2073 270.445Z" fill="#41382E" stroke="#41382E" stroke-width="0.186954"/>
<path d="M-49.1212 212.065C-52.7773 218.482 -57.0688 223.768 -62.7456 226.633L-63.6605 198.752C-57.9034 195.864 -53.5712 190.518 -49.8949 184.06C-46.7769 178.583 -44.1256 172.296 -41.4769 166.015C-40.993 164.868 -40.5092 163.721 -40.0226 162.578C-36.8712 155.181 -33.6046 148.001 -29.4515 142.368C-25.2996 136.736 -20.2678 132.657 -13.5874 131.451C-6.3897 130.152 -0.87161 132.831 3.81637 137.513C8.50903 142.2 12.3618 148.886 16.2223 155.586L16.2268 155.594C20.0823 162.286 23.946 168.992 28.6573 173.697C33.3751 178.408 38.951 181.121 46.2236 179.807C53.4934 178.496 58.8185 173.82 63.1674 167.479C67.5148 161.141 70.8947 153.128 74.2698 145.126L74.2707 145.124C77.648 137.117 81.0206 129.122 85.355 122.801C89.6881 116.482 94.9746 111.848 102.175 110.547C109.376 109.247 114.897 111.925 119.587 116.606C124.281 121.292 128.135 127.978 131.997 134.679L132.005 134.693C135.86 141.383 139.723 148.088 144.433 152.792C149.151 157.504 154.727 160.217 162 158.903C169.268 157.59 174.592 152.913 178.94 146.572C183.285 140.235 186.664 132.226 190.038 124.227L190.042 124.217C193.419 116.211 196.792 108.216 201.127 101.896C205.461 95.5772 210.749 90.9436 217.952 89.6427C225.147 88.3427 230.664 91.0202 235.351 95.7013C240.043 100.387 243.895 107.072 247.756 113.773L247.759 113.779C251.615 120.471 255.479 127.179 260.192 131.885C264.911 136.597 270.488 139.311 277.762 137.999C284.486 136.785 289.546 132.691 293.709 127.064C297.871 121.439 301.141 114.274 304.285 106.904C304.794 105.71 305.3 104.511 305.806 103.312C308.424 97.1052 311.04 90.9047 314.104 85.4835C317.733 79.065 321.984 73.7525 327.599 70.8226L328.514 98.7103C322.823 101.663 318.534 107.034 314.887 113.494C311.825 118.915 309.211 125.112 306.599 131.304C306.09 132.512 305.58 133.719 305.067 134.921C301.925 142.286 298.662 149.425 294.516 155.025C290.371 160.624 285.349 164.675 278.69 165.878C271.494 167.178 265.977 164.5 261.29 159.819C256.598 155.132 252.746 148.446 248.885 141.745L248.882 141.741C245.026 135.047 241.162 128.339 236.449 123.633C231.73 118.921 226.153 116.208 218.879 117.522C211.611 118.835 206.287 123.513 201.939 129.854C197.594 136.191 194.215 144.201 190.842 152.199L190.837 152.21C187.46 160.217 184.086 168.212 179.751 174.532C175.417 180.85 170.129 185.483 162.927 186.782L162.944 186.874L162.927 186.782C155.731 188.082 150.214 185.405 145.527 180.724C140.836 176.038 136.983 169.353 133.123 162.652L133.119 162.646C129.263 155.953 125.399 149.246 120.686 144.54C115.968 139.828 110.391 137.114 103.116 138.425C95.8481 139.739 90.5243 144.416 86.1763 150.758C81.8312 157.095 78.4525 165.106 75.0784 173.105L75.0744 173.115C71.6971 181.122 68.3241 189.118 63.9889 195.439C59.6549 201.758 54.3671 206.393 47.1648 207.693C39.9654 208.994 34.4461 206.316 29.7572 201.634C25.0635 196.948 21.2101 190.262 17.3491 183.561L17.3427 183.55C13.4873 176.858 9.62397 170.153 4.91336 165.448C0.195432 160.736 -5.38046 158.023 -12.6531 159.337C-19.4032 160.556 -24.4772 164.676 -28.6496 170.335C-32.8208 175.993 -36.0972 183.196 -39.2505 190.596C-39.7364 191.737 -40.2195 192.882 -40.7024 194.027C-43.3549 200.314 -46.0046 206.595 -49.1212 212.065Z" fill="#41382E" stroke="#41382E" stroke-width="0.186954"/>
<path d="M-51.0355 153.686C-54.6915 160.104 -58.9829 165.392 -64.6596 168.259L-65.5745 140.377C-59.8175 137.49 -55.4852 132.144 -51.8089 125.686C-48.691 120.209 -46.0397 113.922 -43.391 107.641C-42.9071 106.493 -42.4232 105.346 -41.9367 104.204C-38.7852 96.8068 -35.5187 89.6267 -31.3656 83.993C-27.2137 78.3611 -22.1818 74.2829 -15.5014 73.0761C-8.30381 71.776 -2.78576 74.454 1.9022 79.1356C6.59485 83.8219 10.4476 90.5079 14.3082 97.209L14.3133 97.2179C18.1686 103.91 22.0321 110.616 26.7432 115.321C31.461 120.033 37.0369 122.747 44.3096 121.433C51.5792 120.12 56.9043 115.442 61.2533 109.101C65.6004 102.763 68.9801 94.7511 72.355 86.7506L72.3566 86.7468C75.7339 78.7405 79.1065 70.7459 83.4409 64.4255C87.774 58.1068 93.0605 53.4732 100.261 52.1724C107.462 50.8722 112.983 53.5496 117.673 58.2304C122.367 62.916 126.221 69.601 130.083 76.3011L130.091 76.3147C133.946 83.0042 137.809 89.7074 142.519 94.4109C147.237 99.1222 152.813 101.835 160.086 100.521C167.354 99.2098 172.678 94.5334 177.026 88.1929C181.371 81.8563 184.75 73.8459 188.124 65.8464L188.128 65.8381C191.505 57.8313 194.878 49.836 199.213 43.5149C203.547 37.1956 208.835 32.5615 216.037 31.2606C223.233 29.9606 228.75 32.6386 233.437 37.3202C238.129 42.0065 241.981 48.6926 245.842 55.3937L245.844 55.3981C249.7 62.0917 253.565 68.7998 258.278 73.5061C262.997 78.2181 268.574 80.9311 275.848 79.6173C282.572 78.4029 287.632 74.3091 291.795 68.6825C295.956 63.0576 299.227 55.8928 302.371 48.5233C302.88 47.3299 303.385 46.1312 303.891 44.9327C306.509 38.7261 309.125 32.5255 312.19 27.1046C315.819 20.6871 320.07 15.3761 325.685 12.4481L326.6 40.3283C320.909 43.2831 316.62 48.6557 312.972 55.1159C309.911 60.5374 307.297 66.7347 304.686 72.926C304.176 74.1347 303.666 75.3431 303.153 76.5455C300.011 83.9111 296.748 91.0507 292.602 96.6508C288.457 102.249 283.435 106.301 276.776 107.504C269.58 108.802 264.063 106.123 259.376 101.441C254.684 96.7544 250.832 90.0686 246.971 83.3679L246.969 83.3645C243.113 76.6711 239.248 69.9632 234.535 65.2573C229.816 60.546 224.239 57.8334 216.965 59.1473C209.697 60.4603 204.373 65.1377 200.025 71.4786C195.68 77.8151 192.301 85.8248 188.927 93.8234L188.923 93.833C185.545 101.839 182.172 109.834 177.837 116.154C173.503 122.473 168.215 127.107 161.013 128.408C153.817 129.708 148.3 127.03 143.613 122.348C138.921 117.662 135.069 110.976 131.209 104.275L131.206 104.27C127.35 97.5764 123.485 90.8684 118.772 86.1621C114.054 81.4502 108.476 78.7371 101.202 80.051C93.934 81.364 88.6103 86.0414 84.2622 92.3823C79.917 98.7188 76.5383 106.729 73.1643 114.727L73.1602 114.737C69.7829 122.743 66.4098 130.738 62.0746 137.058C57.7406 143.377 52.4528 148.01 45.2505 149.311C38.0511 150.612 32.5318 147.934 27.8429 143.253C23.1493 138.567 19.2959 131.881 15.4349 125.181L15.4279 125.168C11.5728 118.478 7.70953 111.773 2.99912 107.068C-1.71881 102.356 -7.29472 99.6424 -14.5674 100.955C-21.3175 102.174 -26.3915 106.294 -30.5639 111.953C-34.7351 117.611 -38.0115 124.815 -41.1648 132.215C-41.651 133.356 -42.1343 134.502 -42.6175 135.648C-45.2697 141.935 -47.9191 148.216 -51.0355 153.686Z" fill="#41382E" stroke="#41382E" stroke-width="0.186954"/>
<path d="M98.3247 -6.30781L98.3414 -6.21583C104.278 -7.29076 109.076 -5.65418 113.2 -2.42324L113.257 -2.49683L113.2 -2.42319C117.179 0.687605 120.538 5.27999 123.699 10.3636C125.22 12.8102 126.695 15.3684 128.17 17.9281L128.341 18.2254C129.873 20.8836 131.408 23.5387 132.998 26.0642C136.177 31.1138 139.581 35.6536 143.633 38.6708C147.689 41.691 152.393 43.1849 158.164 42.143C167.361 40.4814 173.445 33.4341 178.379 24.4434C180.847 19.9469 183.03 14.9588 185.172 9.90616C185.517 9.09178 185.861 8.27574 186.206 7.45979C187.99 3.23005 189.773 -0.997057 191.698 -4.97724L241.813 -6.62171C242.52 -5.41574 243.222 -4.19721 243.925 -2.97829C247.427 3.09966 250.935 9.18739 255.076 13.7765C260.062 19.3035 265.981 22.6721 273.926 21.2393C280.456 20.0625 285.418 16.1691 289.512 10.7919C293.594 5.43007 296.819 -1.41395 299.877 -8.52699L314.718 -9.01399C311.316 -4.36639 308.51 1.30912 305.877 7.27287C304.82 9.66708 303.791 12.1065 302.762 14.5451C301.198 18.2535 299.634 21.9599 297.973 25.5026C292.467 37.2484 285.922 47.1178 274.853 49.1183C267.658 50.4184 262.141 47.7403 257.454 43.0587C252.762 38.3724 248.91 31.6863 245.049 24.9852L245.046 24.9805C241.19 18.2871 237.326 11.579 232.613 6.87283C227.894 2.16084 222.317 -0.552205 215.043 0.761671C207.775 2.07473 202.451 6.75259 198.103 13.094C193.758 19.4308 190.379 27.4406 187.006 35.4391L187.001 35.4503C183.623 43.4571 180.25 51.4519 175.915 57.772C171.581 64.0904 166.293 68.7231 159.091 70.022L159.108 70.114L159.091 70.022C151.895 71.3221 146.378 68.6445 141.691 63.9635C137 59.2778 133.147 52.5924 129.287 45.8918L129.283 45.8859C125.427 39.1933 121.563 32.486 116.85 27.7798C112.132 23.0674 106.555 20.3534 99.2801 21.6654L99.2966 21.7574L99.28 21.6654C92.0121 22.9785 86.6883 27.6563 82.3402 33.9979C77.9951 40.3352 74.6164 48.3458 71.2424 56.3454L71.2384 56.3549C67.861 64.3622 64.488 72.3578 60.1528 78.679C55.8188 84.9984 50.5311 89.6325 43.3288 90.9334C36.1294 92.2335 30.61 89.5555 25.9211 84.874C21.2275 80.1877 17.3741 73.5017 13.5131 66.8006L13.5066 66.7893C9.65125 60.0981 5.7879 53.3929 1.07732 48.6882C-3.6406 43.9762 -9.21649 41.2631 -16.4892 42.5769C-23.2381 43.7959 -28.311 47.9159 -32.4827 53.5752C-36.653 59.2328 -39.9287 66.4369 -43.0816 73.8373C-43.5673 74.9775 -44.0501 76.1223 -44.5329 77.2669C-47.1851 83.5555 -49.8348 89.8379 -52.9516 95.3092C-56.6077 101.727 -60.8994 107.016 -66.5766 109.883L-67.4918 81.9942C-61.7347 79.1065 -57.4025 73.7606 -53.7262 67.3027C-50.6084 61.8259 -47.9572 55.5394 -45.3087 49.2593C-44.8246 48.1114 -44.3406 46.9638 -43.8539 45.8214C-40.7025 38.4245 -37.4359 31.2449 -33.2827 25.612C-29.1309 19.9808 -24.099 15.9035 -17.4185 14.6979C-10.2209 13.3979 -4.70286 16.0754 -0.0149262 20.7563C4.6777 25.4418 8.53043 32.1269 12.391 38.8271L12.3962 38.8361C16.2514 45.5272 20.1149 52.2324 24.8259 56.9369C29.5437 61.6482 35.1195 64.3608 42.3922 63.047C48.7009 61.9087 53.5456 58.2353 57.5586 53.1391C61.5702 48.0444 64.7551 41.5221 67.7444 34.6752C68.6555 32.5883 69.5484 30.4715 70.441 28.3553C72.4786 23.5246 74.5147 18.6974 76.7635 14.2366C79.997 7.82268 83.6637 2.18093 88.3911 -1.60599C91.2685 -3.90729 94.5335 -5.5282 98.3413 -6.21582L98.3247 -6.30781Z" fill="#41382E" stroke="#41382E" stroke-width="0.186954"/>
<path d="M143.252 8.55248C139.374 5.814 136.084 1.66296 133.02 -3.04921L176.425 -4.47349C171.653 3.7881 165.785 10.1013 157.173 11.6504L157.173 11.6504C151.678 12.6415 147.165 11.3152 143.252 8.55248Z" fill="#41382E" stroke="#41382E" stroke-width="0.186954"/>
<path d="M40.4787 4.6754L40.4788 4.67539C44.5294 3.94079 47.9707 2.1677 50.9864 -0.357166L68.8756 -0.94418C65.5806 6.85825 62.2499 14.5761 57.9875 20.6715C53.7018 26.8002 48.4815 31.2779 41.4197 32.554C32.8618 34.1001 26.6756 30.0269 21.4387 23.6435C18.8196 20.451 16.4411 16.684 14.1252 12.7593C13.2782 11.3237 12.4392 9.8665 11.5999 8.40877C10.1736 5.93162 8.74659 3.45307 7.27778 1.07708L25.0421 0.494165C29.3032 3.98144 34.2728 5.7941 40.4787 4.6754Z" fill="#41382E" stroke="#41382E" stroke-width="0.186954"/>
<path d="M668.659 346.389C666.279 351.027 664.142 356.09 662.006 361.151C659.036 368.19 656.066 375.228 652.44 381.123C649.206 386.377 645.455 390.72 640.717 393.354C638.686 394.488 636.472 395.308 634.045 395.745C629.501 396.566 625.621 395.809 622.203 393.962L668.659 346.389ZM668.659 346.389L668.576 346.346C668.576 346.346 668.576 346.346 668.576 346.346L668.659 346.389ZM683.85 328.485L683.852 328.544L683.946 328.541L683.903 328.458C683.885 328.467 683.868 328.476 683.85 328.485ZM682.932 300.494C682.962 300.478 682.993 300.462 683.024 300.446L683.027 300.55C682.997 300.566 682.966 300.582 682.935 300.598L682.932 300.494ZM492.803 373.598C496.126 378.748 499.719 383.281 504.055 386.072L610.792 382.49L610.869 382.437C608.554 379.033 606.388 375.275 604.22 371.512C603.916 370.986 603.612 370.459 603.308 369.933C600.834 365.652 598.329 361.431 595.574 357.8C590.064 350.537 583.536 345.612 574.217 347.296C566.551 348.684 561.049 353.811 556.572 360.685C552.562 366.842 549.367 374.413 546.176 381.976C545.806 382.854 545.435 383.732 545.064 384.607L545.15 384.644L545.064 384.608C543.319 388.727 541.542 392.796 539.612 396.578L491.802 398.147C490.689 396.294 489.596 394.396 488.504 392.497L488.435 392.378C487.311 390.425 486.186 388.472 485.039 386.571C481.684 381.001 478.143 375.851 473.89 372.372C469.633 368.889 464.662 367.081 458.457 368.2L458.457 368.2C448.506 370.003 442.201 378.101 437.048 388.146L437.048 388.146C435.111 391.94 433.331 396.005 431.581 400.126L415.942 400.639C418.795 397.253 421.232 393.144 423.457 388.684C425.64 384.314 427.626 379.604 429.611 374.897C429.81 374.425 430.009 373.954 430.209 373.482C432.395 368.307 434.603 363.177 437.096 358.543C442.083 349.272 448.195 342.007 457.514 340.322C463.433 339.252 468.214 340.871 472.331 344.077C476.453 347.286 479.909 352.086 483.167 357.379C484.582 359.677 485.959 362.066 487.336 364.456C487.544 364.818 487.752 365.179 487.961 365.54C489.547 368.289 491.142 371.022 492.803 373.598Z" fill="#41382E" stroke="#41382E" stroke-width="0.186954"/>
<path d="M342.691 389.113L342.691 389.113C340.313 389.542 338.14 390.326 336.147 391.42C331.354 394.04 327.567 398.387 324.321 403.644L310.289 404.105C311.505 401.385 312.682 398.593 313.86 395.802C314.727 393.747 315.594 391.692 316.476 389.665C319.474 382.785 322.656 376.24 326.661 371.131C330.663 366.023 335.483 362.357 341.757 361.224C349.842 359.767 355.809 363.328 360.861 369.112C364.801 373.624 368.175 379.476 371.554 385.338C372.512 386.999 373.469 388.66 374.441 390.292L374.521 390.245L374.441 390.292C376.931 394.476 379.504 398.465 382.387 401.739L365.953 402.278C362.591 397.35 358.905 393.174 354.437 390.822C351.035 389.031 347.189 388.304 342.691 389.113Z" fill="#41382E" stroke="#41382E" stroke-width="0.186954"/>
<path d="M304.304 383.462C300.648 389.88 296.357 395.168 290.68 398.035L289.765 370.153C295.522 367.266 299.855 361.92 303.531 355.462C306.649 349.985 309.3 343.697 311.949 337.417C312.433 336.269 312.917 335.122 313.403 333.98C316.555 326.583 319.821 319.403 323.974 313.769C328.126 308.137 333.158 304.059 339.838 302.852C347.036 301.552 352.554 304.23 357.242 308.911C361.935 313.598 365.787 320.284 369.648 326.985L369.653 326.994C373.508 333.686 377.372 340.392 382.083 345.097C386.801 349.809 392.377 352.522 399.649 351.209C406.919 349.896 412.244 345.218 416.593 338.876C420.94 332.538 424.319 324.526 427.694 316.525L427.696 316.52C431.074 308.513 434.446 300.518 438.781 294.198C443.114 287.88 448.4 283.247 455.601 281.948C462.802 280.648 468.323 283.325 473.013 288.006C477.707 292.692 481.561 299.377 485.423 306.077L485.43 306.09C489.286 312.78 493.149 319.483 497.859 324.187C502.577 328.898 508.153 331.611 515.426 330.297C522.694 328.984 528.017 324.306 532.365 317.966C536.71 311.629 540.089 303.619 543.463 295.621L543.467 295.611C546.845 287.605 550.218 279.61 554.553 273.29C558.887 266.971 564.175 262.337 571.377 261.036C578.573 259.736 584.09 262.414 588.777 267.096C593.469 271.782 597.321 278.468 601.181 285.17L601.184 285.174C605.04 291.868 608.905 298.576 613.618 303.282C618.336 307.994 623.914 310.707 631.188 309.393C637.912 308.179 642.972 304.085 647.135 298.458C651.296 292.833 654.567 285.669 657.711 278.299C658.22 277.106 658.725 275.907 659.231 274.709C661.849 268.502 664.465 262.301 667.53 256.881C671.159 250.463 675.41 245.152 681.025 242.224L681.94 270.104C676.249 273.059 671.96 278.432 668.312 284.892C665.252 290.313 662.638 296.509 660.026 302.7C659.516 303.909 659.006 305.118 658.493 306.32C655.351 313.686 652.088 320.824 647.942 326.423C643.797 332.021 638.774 336.071 632.115 337.272C624.919 338.572 619.402 335.895 614.715 331.214C610.024 326.528 606.171 319.843 602.311 313.143L602.308 313.138C598.452 306.446 594.587 299.739 589.875 295.033C585.156 290.322 579.579 287.609 572.304 288.923C565.036 290.234 559.713 294.911 555.364 301.251C551.019 307.588 547.64 315.598 544.266 323.598L544.262 323.606C540.885 331.613 537.512 339.608 533.177 345.929C528.843 352.249 523.555 356.883 516.353 358.184C509.157 359.484 503.64 356.805 498.953 352.124C494.261 347.438 490.409 340.752 486.548 334.05L486.546 334.046C482.69 327.352 478.825 320.644 474.112 315.938C469.393 311.226 463.816 308.513 456.542 309.827C449.274 311.14 443.95 315.817 439.602 322.158C435.257 328.495 431.878 336.504 428.504 344.503L428.5 344.513C425.123 352.519 421.75 360.514 417.414 366.834C413.08 373.153 407.793 377.786 400.59 379.087C393.391 380.387 387.872 377.71 383.183 373.029C378.489 368.343 374.636 361.658 370.775 354.957L370.767 354.945C366.912 348.254 363.049 341.55 358.339 336.845C353.621 332.133 348.045 329.419 340.772 330.731C334.022 331.95 328.948 336.07 324.776 341.729C320.605 347.387 317.328 354.591 314.175 361.991C313.689 363.132 313.206 364.278 312.722 365.424C310.07 371.711 307.421 377.992 304.304 383.462Z" fill="#41382E" stroke="#41382E" stroke-width="0.186954"/>
<path d="M302.387 325.085C298.731 331.503 294.439 336.791 288.762 339.658L287.847 311.769C293.604 308.881 297.937 303.535 301.613 297.077C304.731 291.6 307.382 285.313 310.031 279.032C310.515 277.885 310.999 276.738 311.485 275.595C314.637 268.198 317.903 261.018 322.056 255.385C326.208 249.753 331.24 245.674 337.92 244.468C345.118 243.169 350.636 245.848 355.324 250.53C360.017 255.217 363.87 261.903 367.73 268.603L367.735 268.611C371.59 275.303 375.454 282.009 380.165 286.714C384.883 291.425 390.459 294.138 397.731 292.824C405.001 291.511 410.326 286.834 414.675 280.493C419.022 274.155 422.402 266.143 425.777 258.142L425.778 258.138C429.156 250.132 432.528 242.137 436.863 235.817C441.196 229.498 446.482 224.865 453.683 223.564C460.884 222.264 466.405 224.942 471.095 229.623C475.789 234.309 479.643 240.995 483.505 247.696L483.512 247.71C487.368 254.4 491.231 261.105 495.941 265.809C500.659 270.521 506.235 273.234 513.508 271.92C520.776 270.607 526.1 265.93 530.448 259.589C534.793 253.252 538.171 245.243 541.545 237.244L541.55 237.234C544.927 229.228 548.3 221.233 552.635 214.913C556.969 208.594 562.257 203.961 569.459 202.66C576.655 201.36 582.172 204.037 586.859 208.718C591.551 213.404 595.403 220.089 599.264 226.79L599.267 226.796C603.123 233.488 606.987 240.196 611.7 244.902C616.419 249.614 621.996 252.328 629.27 251.016C635.994 249.802 641.054 245.708 645.217 240.082C649.378 234.457 652.649 227.291 655.793 219.921C656.302 218.727 656.808 217.528 657.314 216.329C659.932 210.122 662.547 203.922 665.612 198.501C669.241 192.082 673.492 186.77 679.107 183.84L680.022 211.72C674.331 214.674 670.042 220.046 666.394 226.506C663.333 231.928 660.719 238.126 658.107 244.317C657.598 245.526 657.088 246.734 656.575 247.936C653.433 255.302 650.17 262.442 646.024 268.042C641.879 273.641 636.857 277.692 630.197 278.895C623.001 280.195 617.485 277.517 612.798 272.836C608.106 268.15 604.254 261.463 600.393 254.762L600.39 254.758C596.534 248.064 592.67 241.356 587.957 236.65C583.238 231.938 577.661 229.225 570.386 230.539C563.118 231.852 557.795 236.529 553.447 242.87C549.101 249.207 545.723 257.216 542.349 265.215L542.345 265.225C538.967 273.231 535.594 281.225 531.259 287.546C526.925 293.865 521.637 298.498 514.435 299.799C507.239 301.099 501.722 298.422 497.035 293.741C492.343 289.055 488.491 282.37 484.631 275.669L484.627 275.663C480.771 268.97 476.907 262.263 472.194 257.557C467.476 252.845 461.898 250.131 454.624 251.442C447.356 252.756 442.032 257.433 437.684 263.775C433.339 270.112 429.96 278.123 426.586 286.122L426.582 286.132C423.205 294.139 419.832 302.135 415.497 308.456C411.163 314.776 405.875 319.41 398.673 320.71C391.473 322.011 385.954 319.333 381.265 314.651C376.571 309.965 372.718 303.279 368.857 296.578L368.85 296.567C364.995 289.875 361.132 283.17 356.421 278.465C351.703 273.753 346.127 271.04 338.855 272.354C332.105 273.573 327.031 277.693 322.858 283.352C318.687 289.01 315.411 296.214 312.257 303.614C311.771 304.755 311.288 305.901 310.805 307.047C308.152 313.334 305.503 319.615 302.387 325.085Z" fill="#41382E" stroke="#41382E" stroke-width="0.186954"/>
<path d="M300.472 266.704C296.816 273.122 292.525 278.409 286.848 281.276L285.933 253.395C291.69 250.507 296.023 245.161 299.699 238.703C302.817 233.226 305.468 226.939 308.117 220.659C308.601 219.511 309.085 218.364 309.571 217.222C312.723 209.824 315.989 202.644 320.142 197.011C324.294 191.379 329.326 187.301 336.006 186.094C343.204 184.794 348.722 187.472 353.41 192.153C358.103 196.84 361.955 203.526 365.816 210.227L365.821 210.236C369.676 216.928 373.54 223.634 378.251 228.339C382.969 233.051 388.545 235.764 395.817 234.45C403.087 233.137 408.412 228.46 412.761 222.119C417.108 215.781 420.488 207.769 423.863 199.768L423.864 199.764C427.242 191.758 430.614 183.764 434.949 177.443C439.282 171.124 444.568 166.491 451.769 165.19C458.97 163.89 464.491 166.567 469.181 171.248C473.875 175.934 477.729 182.619 481.591 189.319L481.598 189.332C485.454 196.022 489.317 202.725 494.027 207.429C498.745 212.14 504.321 214.852 511.594 213.539C518.862 212.227 524.185 207.551 528.533 201.211C532.879 194.874 536.258 186.863 539.632 178.864L539.635 178.856C543.013 170.849 546.386 162.854 550.721 156.533C555.055 150.213 560.343 145.579 567.545 144.278C574.741 142.978 580.258 145.656 584.945 150.338C589.637 155.024 593.489 161.71 597.349 168.411L597.352 168.416C601.208 175.109 605.073 181.817 609.786 186.524C614.504 191.236 620.082 193.949 627.356 192.635C634.079 191.421 639.14 187.327 643.302 181.7C647.464 176.075 650.735 168.91 653.878 161.541C654.388 160.348 654.893 159.149 655.399 157.95C658.017 151.744 660.633 145.543 663.698 140.122C667.327 133.705 671.578 128.394 677.193 125.466L678.108 153.346C672.417 156.301 668.128 161.673 664.48 168.134C661.419 173.555 658.805 179.752 656.194 185.944C655.684 187.152 655.174 188.361 654.661 189.563C651.519 196.929 648.256 204.068 644.11 209.668C639.965 215.267 634.943 219.319 628.283 220.522C621.087 221.82 615.571 219.141 610.883 214.459C606.192 209.772 602.339 203.086 598.479 196.386L598.477 196.382C594.62 189.689 590.756 182.981 586.043 178.275C581.324 173.564 575.747 170.851 568.472 172.165C561.204 173.476 555.88 178.152 551.532 184.493C547.187 190.83 543.808 198.84 540.434 206.839L540.43 206.848C537.053 214.855 533.68 222.85 529.345 229.171C525.011 235.49 519.723 240.124 512.521 241.425C505.325 242.725 499.808 240.047 495.121 235.366C490.429 230.679 486.577 223.993 482.716 217.292L482.714 217.288C478.858 210.594 474.993 203.886 470.28 199.18C465.561 194.468 459.984 191.755 452.71 193.069C445.442 194.382 440.118 199.059 435.77 205.4C431.425 211.737 428.046 219.746 424.672 227.745L424.668 227.754C421.291 235.761 417.918 243.755 413.582 250.076C409.248 256.394 403.961 261.028 396.758 262.329C389.559 263.629 384.04 260.952 379.351 256.271C374.657 251.585 370.804 244.9 366.943 238.199L366.935 238.187C363.08 231.496 359.217 224.792 354.507 220.087C349.789 215.375 344.213 212.661 336.94 213.973C330.19 215.192 325.116 219.312 320.944 224.971C316.773 230.628 313.496 237.832 310.343 245.233C309.857 246.374 309.374 247.52 308.89 248.665C306.238 254.953 303.589 261.234 300.472 266.704Z" fill="#41382E" stroke="#41382E" stroke-width="0.186954"/>
<path d="M298.558 208.329C294.902 214.746 290.611 220.032 284.934 222.898L284.019 195.016C289.776 192.128 294.109 186.783 297.785 180.325C300.903 174.847 303.554 168.56 306.203 162.28C306.687 161.132 307.171 159.985 307.657 158.843C310.809 151.445 314.075 144.265 318.228 138.632C322.38 133 327.412 128.922 334.092 127.715C341.29 126.417 346.808 129.096 351.496 133.778C356.189 138.464 360.041 145.15 363.902 151.851L363.906 151.858C367.762 158.55 371.626 165.256 376.337 169.961C381.055 174.673 386.631 177.385 393.903 176.071C401.173 174.76 406.498 170.084 410.847 163.743C415.194 157.405 418.574 149.392 421.949 141.391L421.95 141.388C425.328 133.382 428.7 125.386 433.035 119.065C437.368 112.746 442.654 108.112 449.855 106.811C457.056 105.511 462.577 108.189 467.266 112.87C471.961 117.557 475.815 124.243 479.677 130.944L479.684 130.957C483.54 137.647 487.403 144.352 492.113 149.056C496.831 153.768 502.407 156.481 509.68 155.167C516.948 153.854 522.271 149.177 526.62 142.836C530.965 136.499 534.343 128.49 537.717 120.491L537.722 120.482C541.099 112.475 544.472 104.481 548.807 98.1602C553.141 91.8414 558.429 87.2078 565.631 85.9069C572.827 84.6069 578.344 87.2845 583.031 91.9655C587.723 96.6512 591.575 103.337 595.436 110.037L595.439 110.043C599.295 116.736 603.159 123.443 607.872 128.149C612.59 132.862 618.168 135.576 625.442 134.264C632.166 133.049 637.226 128.955 641.389 123.329C645.55 117.704 648.821 110.539 651.965 103.169C652.474 101.975 652.98 100.775 653.486 99.5758C656.104 93.3695 658.719 87.1689 661.784 81.7478C665.413 75.3292 669.664 70.0167 675.279 67.0868L676.194 94.9746C670.503 97.9276 666.214 103.299 662.566 109.758C659.505 115.179 656.891 121.376 654.279 127.568C653.769 128.776 653.26 129.984 652.747 131.185C649.605 138.55 646.342 145.69 642.196 151.29C638.051 156.888 633.028 160.94 626.369 162.143C619.173 163.443 613.657 160.765 608.97 156.083C604.278 151.397 600.425 144.711 596.565 138.01L596.562 138.005C592.706 131.311 588.841 124.603 584.129 119.897C579.41 115.185 573.833 112.472 566.558 113.786C559.29 115.099 553.967 119.777 549.618 126.118C545.274 132.455 541.895 140.465 538.521 148.463L538.517 148.475C535.139 156.481 531.766 164.476 527.431 170.796C523.097 177.115 517.809 181.747 510.607 183.046L510.623 183.138L510.607 183.046C503.411 184.346 497.894 181.669 493.207 176.988C488.515 172.302 484.663 165.617 480.802 158.916L480.799 158.91C476.943 152.218 473.079 145.51 468.366 140.804C463.647 136.092 458.07 133.378 450.796 134.69C443.528 136.003 438.204 140.681 433.856 147.022C429.511 153.359 426.132 161.37 422.758 169.37L422.754 169.379C419.377 177.387 416.004 185.382 411.669 191.703C407.335 198.023 402.047 202.657 394.845 203.958C387.645 205.258 382.126 202.58 377.437 197.898C372.743 193.212 368.89 186.526 365.029 179.825L365.022 179.814C361.167 173.122 357.304 166.417 352.593 161.713C347.875 157.001 342.299 154.287 335.027 155.601C328.276 156.82 323.203 160.94 319.03 166.599C314.859 172.257 311.583 179.461 308.429 186.861C307.943 188.001 307.46 189.146 306.977 190.291C304.325 196.578 301.675 202.86 298.558 208.329Z" fill="#41382E" stroke="#41382E" stroke-width="0.186954"/>
<path d="M296.64 149.951C292.984 156.368 288.693 161.656 283.016 164.523L282.101 136.642C287.858 133.754 292.191 128.408 295.867 121.95C298.985 116.473 301.636 110.186 304.285 103.905C304.769 102.758 305.253 101.611 305.739 100.468C308.891 93.0713 312.157 85.8912 316.31 80.2576C320.462 74.6256 325.494 70.5474 332.174 69.3406C339.372 68.0405 344.89 70.7185 349.578 75.4001C354.271 80.0864 358.123 86.7724 361.984 93.4736L361.989 93.4824C365.844 100.174 369.708 106.881 374.419 111.586C379.137 116.298 384.713 119.011 391.985 117.697C399.255 116.384 404.58 111.707 408.929 105.366C413.276 99.0277 416.656 91.0156 420.031 83.0151L420.032 83.0114C423.41 75.005 426.782 67.0104 431.117 60.69C435.45 54.3713 440.736 49.7377 447.937 48.4369C455.138 47.1367 460.659 49.8142 465.348 54.495C470.043 59.1805 473.897 65.8655 477.759 72.5657L477.766 72.5792C481.622 79.2687 485.485 85.972 490.195 90.6754C494.913 95.3867 500.489 98.0993 507.761 96.7855C515.029 95.4743 520.353 90.7979 524.701 84.4574C529.047 78.1208 532.426 70.1104 535.8 62.1109L535.803 62.1026C539.181 54.0958 542.554 46.1005 546.889 39.7794C551.223 33.4601 556.511 28.826 563.713 27.5251C570.909 26.2251 576.426 28.9031 581.113 33.5848C585.804 38.2711 589.657 44.9571 593.517 51.6582L593.52 51.6627C597.376 58.3562 601.241 65.0644 605.954 69.7706C610.672 74.4826 616.25 77.1957 623.524 75.8818C630.247 74.6675 635.308 70.5736 639.47 64.947C643.632 59.3221 646.903 52.1573 650.046 44.7878C650.556 43.5945 651.061 42.3957 651.567 41.1972C654.185 34.9906 656.801 28.79 659.866 23.3692C663.495 16.9516 667.746 11.6406 673.361 8.7126L674.276 36.5928C668.585 39.5477 664.296 44.9202 660.648 51.3804C657.587 56.8019 654.973 62.9992 652.362 69.1906C651.852 70.3992 651.342 71.6076 650.829 72.81C647.687 80.1756 644.424 87.3152 640.278 92.9153C636.133 98.5137 631.111 102.565 624.451 103.768C617.255 105.067 611.739 102.388 607.051 97.7056C602.36 93.0189 598.507 86.3331 594.647 79.6325L594.645 79.629C590.788 72.9356 586.924 66.2278 582.211 61.5219C577.492 56.8105 571.915 54.0979 564.64 55.4118C557.372 56.7248 552.049 61.4022 547.7 67.7431C543.355 74.0796 539.977 82.0893 536.603 90.0879L536.599 90.0975C533.221 98.1039 529.848 106.098 525.513 112.419C521.179 118.738 515.891 123.371 508.689 124.672C501.493 125.972 495.976 123.294 491.289 118.613C486.597 113.926 482.745 107.24 478.884 100.539L478.882 100.534C475.026 93.841 471.161 87.1329 466.448 82.4267C461.729 77.7147 456.152 75.0016 448.878 76.3155C441.61 77.6286 436.286 82.3059 431.938 88.6468C427.593 94.9834 424.214 102.993 420.84 110.992L420.836 111.001C417.459 119.008 414.086 127.002 409.75 133.323C405.416 139.641 400.129 144.275 392.926 145.576C385.727 146.876 380.208 144.198 375.519 139.517C370.825 134.831 366.972 128.146 363.111 121.445L363.104 121.433C359.249 114.742 355.385 108.038 350.675 103.333C345.957 98.6206 340.381 95.9069 333.108 97.2195C326.358 98.4385 321.284 102.559 317.112 108.218C312.941 113.875 309.664 121.079 306.511 128.48C306.025 129.621 305.541 130.767 305.058 131.912C302.406 138.2 299.757 144.481 296.64 149.951Z" fill="#41382E" stroke="#41382E" stroke-width="0.186954"/>
<path d="M446.004 -10.0436L446.021 -9.95161C451.958 -11.0265 456.756 -9.38995 460.879 -6.15902L460.937 -6.2326L460.88 -6.15896C464.858 -3.04817 468.217 1.54421 471.379 6.62786C472.9 9.07438 474.374 11.6326 475.849 14.1923L476.021 14.4896C477.553 17.1478 479.088 19.8029 480.678 22.3284C483.857 27.378 487.261 31.9178 491.313 34.935C495.368 37.9552 500.073 39.4492 505.844 38.4072C515.041 36.7456 521.124 29.6983 526.058 20.7076C528.526 16.2111 530.709 11.223 532.852 6.17038C533.197 5.356 533.541 4.53996 533.885 3.72402C535.669 -0.505734 537.453 -4.73284 539.378 -8.71302L589.493 -10.3575C590.2 -9.15152 590.902 -7.93299 591.604 -6.71407C595.107 -0.636117 598.615 5.45161 602.755 10.0407C607.742 15.5677 613.66 18.9364 621.606 17.5035C628.136 16.3267 633.098 12.4333 637.192 7.05611C641.274 1.69429 644.498 -5.14973 647.556 -12.2628L662.397 -12.7498C658.996 -8.10217 656.19 -2.42665 653.556 3.53709C652.499 5.9313 651.47 8.37072 650.442 10.8093C648.877 14.5177 647.314 18.2241 645.653 21.7668C640.146 33.5127 633.601 43.382 622.533 45.3825C615.337 46.6826 609.821 44.0045 605.133 39.3229C600.442 34.6366 596.589 27.9506 592.729 21.2494L592.726 21.2447C588.87 14.5513 585.005 7.84324 580.292 3.13705C575.574 -1.57494 569.997 -4.28798 562.722 -2.97411C555.454 -1.66105 550.13 3.01681 545.782 9.35826C541.438 15.695 538.059 23.7048 534.685 31.7033L534.681 31.7145C531.303 39.7213 527.93 47.7161 523.595 54.0362C519.261 60.3546 513.973 64.9873 506.771 66.2863L506.787 66.3783L506.771 66.2863C499.575 67.5863 494.058 64.9087 489.371 60.2277C484.679 55.542 480.827 48.8567 476.966 42.156L476.963 42.1501C473.107 35.4576 469.243 28.7503 464.53 24.044C459.811 19.3316 454.234 16.6176 446.96 17.9296L446.976 18.0216L446.96 17.9296C439.692 19.2427 434.368 23.9205 430.02 30.2621C425.675 36.5994 422.296 44.61 418.922 52.6096L418.918 52.6191C415.541 60.6265 412.168 68.622 407.833 74.9432C403.498 81.2626 398.211 85.8967 391.008 87.1976C383.809 88.4977 378.29 85.8198 373.601 81.1382C368.907 76.4519 365.054 69.766 361.193 63.0648L361.186 63.0535C357.331 56.3623 353.468 49.6571 348.757 44.9524C344.039 40.2404 338.463 37.5273 331.191 38.8412C324.442 40.0601 319.369 44.1802 315.197 49.8394C311.027 55.497 307.751 62.7011 304.598 70.1015C304.112 71.2417 303.63 72.3865 303.147 73.5311C300.495 79.8197 297.845 86.1021 294.728 91.5735C291.072 97.9914 286.78 103.28 281.103 106.147L280.188 78.2584C285.945 75.3707 290.277 70.0248 293.953 63.5669C297.071 58.0901 299.722 51.8036 302.371 45.5235C302.855 44.3757 303.339 43.228 303.826 42.0856C306.977 34.6887 310.244 27.5091 314.397 21.8762C318.549 16.245 323.581 12.1677 330.261 10.9622C337.459 9.66207 342.977 12.3396 347.665 17.0205C352.357 21.7061 356.21 28.3911 360.071 35.0913L360.076 35.1003C363.931 41.7914 367.795 48.4966 372.506 53.2011C377.223 57.9124 382.799 60.6251 390.072 59.3112C396.381 58.1729 401.225 54.4995 405.238 49.4033C409.25 44.3086 412.435 37.7863 415.424 30.9395C416.335 28.8525 417.228 26.7357 418.121 24.6195C420.158 19.7888 422.194 14.9616 424.443 10.5009C427.677 4.0869 431.343 -1.55485 436.071 -5.34177C438.948 -7.64307 442.213 -9.26398 446.021 -9.9516L446.004 -10.0436Z" fill="#41382E" stroke="#41382E" stroke-width="0.186954"/>
<path d="M490.932 4.81158C487.053 2.07309 483.764 -2.07795 480.7 -6.79012L524.105 -8.21439C519.333 0.0471959 513.465 6.36043 504.853 7.90946L504.853 7.90947C499.358 8.90063 494.844 7.57433 490.932 4.81158Z" fill="#41382E" stroke="#41382E" stroke-width="0.186954"/>
<path d="M388.158 0.934499L388.158 0.934481C392.209 0.199882 395.65 -1.5732 398.666 -4.09807L416.555 -4.68509C413.26 3.11734 409.93 10.8352 405.667 16.9306C401.381 23.0593 396.161 27.537 389.099 28.8131C380.542 30.3592 374.355 26.286 369.118 19.9026C366.499 16.7101 364.121 12.9431 361.805 9.01838C360.958 7.58283 360.119 6.12559 359.28 4.66787C357.853 2.19072 356.426 -0.28784 354.957 -2.66382L372.722 -3.24674C376.983 0.240535 381.952 2.05319 388.158 0.934499Z" fill="#41382E" stroke="#41382E" stroke-width="0.186954"/>
<path d="M295.1 -0.699421L308.684 -1.14515C306.374 3.15925 304.308 7.88541 302.279 12.6704C301.929 13.4939 301.581 14.3192 301.233 15.1444C299.536 19.1681 297.839 23.1896 296.02 26.9987C291.661 36.1291 286.608 44.0137 279.187 47.7609L278.272 19.8795C285.705 16.1491 290.761 8.3334 295.1 -0.699421Z" fill="#41382E" stroke="#41382E" stroke-width="0.186954"/>
</g>
</g>
</g>
</g>
</svg>
