<svg width="1344" height="287" viewBox="0 0 1344 287" fill="none" xmlns="http://www.w3.org/2000/svg">
<g opacity="0.2">
<mask id="mask0_1452_4853" style="mask-type:alpha" maskUnits="userSpaceOnUse" x="-36" y="-144" width="1416" height="576">
<rect x="-36" y="-47" width="1385.63" height="480" transform="rotate(-4 -36 -47)" fill="#23195F"/>
</mask>
<g mask="url(#mask0_1452_4853)">
<g opacity="0.3">
<path d="M-26.2246 524.694L-29.0755 483.924C38.0293 463.611 38.5115 389.264 116.763 378.009C201.124 365.876 207.093 451.246 291.44 439.114C375.8 426.981 369.83 341.612 454.178 329.491C538.579 317.356 544.547 402.714 628.894 390.582C713.234 378.451 707.265 293.093 791.632 280.959C875.972 268.828 881.942 354.197 966.309 342.064C1044.33 330.844 1045.08 256.948 1111.54 236.34L1114.39 277.11C1048.05 297.775 1047.28 371.585 969.272 382.793C884.932 394.924 878.963 309.566 794.596 321.699C710.256 333.82 716.225 419.189 631.858 431.322C547.518 443.453 541.549 358.084 457.182 370.217C372.842 382.349 378.811 467.707 294.444 479.84C210.063 491.974 204.094 406.616 119.747 418.737C41.4144 430.001 40.9568 504.409 -26.2246 524.694Z" fill="white"/>
<path d="M-32.1496 439.961L-35.0013 399.18C32.1035 378.867 32.5857 304.52 110.838 293.265C195.199 281.143 201.167 366.502 285.514 354.37C369.874 342.237 363.905 256.879 448.252 244.747C532.653 232.611 538.622 317.981 622.969 305.849C707.309 293.718 701.34 208.359 785.707 196.226C870.047 184.095 876.016 269.453 960.384 257.331C1038.41 246.111 1039.15 172.215 1105.61 151.595L1108.46 192.365C1042.13 213.028 1041.35 286.841 963.347 298.06C879.007 310.191 873.038 224.822 788.671 236.955C704.331 249.086 710.3 334.445 625.933 346.578C541.593 358.709 535.624 273.351 451.256 285.473C366.916 297.604 372.886 382.974 288.519 395.107C204.138 407.241 198.169 321.872 113.822 334.003C35.4894 345.268 35.0318 419.676 -32.1496 439.961Z" fill="white"/>
<path d="M-38.0723 355.219L-40.9232 314.449C26.1816 294.135 26.6638 219.789 104.916 208.533C189.276 196.401 195.245 281.77 279.592 269.638C363.952 257.506 357.984 172.147 442.33 160.016C526.731 147.88 532.7 233.238 617.046 221.107C701.387 208.986 695.418 123.617 779.784 111.484C864.124 99.3525 870.094 184.722 954.461 172.589C1032.48 161.368 1033.23 87.4721 1099.69 66.864L1102.54 107.634C1036.21 128.3 1035.43 202.109 957.425 213.329C873.085 225.449 867.116 140.091 782.749 152.224C698.408 164.344 704.378 249.713 620.011 261.847C535.671 273.978 529.701 188.608 445.334 200.742C360.994 212.873 366.963 298.231 282.596 310.365C198.216 322.499 192.247 237.14 107.899 249.261C29.5667 260.525 29.1091 334.933 -38.0723 355.219Z" fill="white"/>
<path d="M-43.998 270.467L-46.849 229.697C20.2558 209.384 20.738 135.037 98.9899 123.782C183.351 111.66 189.32 197.019 273.666 184.887C358.027 172.765 352.058 87.3958 436.404 75.2641C520.805 63.1285 526.775 148.498 611.121 136.366C695.461 124.235 689.493 38.8765 773.859 26.7433C858.199 14.612 864.168 99.9704 948.536 87.8482C1026.56 76.6276 1027.3 2.73169 1093.76 -17.8875L1096.61 22.8936C1030.28 43.5484 1029.5 117.358 951.499 128.577C867.16 140.708 861.19 55.3391 776.823 67.4723C692.483 79.6036 698.453 164.973 614.085 177.095C529.745 189.226 523.776 103.868 439.408 115.99C355.068 128.121 361.038 213.491 276.671 225.624C192.291 237.758 186.321 152.389 101.974 164.521C23.6417 175.785 23.1841 250.193 -43.998 270.467Z" fill="white"/>
<path d="M-49.9238 185.736L-52.7747 144.966C14.33 124.652 14.8123 50.3056 93.0641 39.0506C177.424 26.9179 183.394 112.287 267.741 100.155C352.101 88.0228 346.132 2.6644 430.479 -9.46736C514.879 -21.6029 520.848 63.7555 605.195 51.6237C689.536 39.5034 683.566 -45.866 767.933 -57.9992C852.273 -70.1304 858.242 15.239 942.609 3.10578C1020.63 -8.11482 1021.38 -82.0108 1087.84 -102.619L1090.69 -61.8489C1024.35 -41.1831 1023.58 32.6266 945.574 43.8457C861.233 55.966 855.264 -29.3924 770.897 -17.2592C686.557 -5.1279 692.526 80.2305 608.159 92.3637C523.819 104.495 517.85 19.1256 433.483 31.2587C349.143 43.39 355.112 128.748 270.745 140.882C186.364 153.016 180.395 67.6537 96.0478 79.7781C17.7151 91.0425 17.2576 165.45 -49.9238 185.736Z" fill="white"/>
<path d="M-55.8513 101.003L-58.703 60.2219C8.40184 39.9084 8.88404 -34.4382 87.1364 -45.6859C171.497 -57.8186 177.465 27.5398 261.812 15.408C335.025 4.88574 340.204 -60.8155 395.436 -85.9157C403.843 -89.7313 413.395 -92.615 424.543 -94.218C441.934 -96.7229 456.01 -95.0779 468.106 -90.9973C514.74 -75.3025 532.304 -23.4854 599.254 -33.1118C652.615 -40.7873 669.828 -77.7717 696.632 -106.977L843.073 -117.218C867.919 -97.451 890.597 -75.0106 936.668 -81.6297C974.555 -87.0709 994.236 -107.296 1012.03 -129.032L1056.03 -132.109C1015.94 -102.761 1004.45 -50.2268 939.632 -40.9008C855.292 -28.7695 849.322 -114.139 764.955 -102.006C680.615 -89.8744 686.585 -4.50503 602.217 7.61713C517.877 19.7484 511.908 -65.6099 427.541 -53.4878C343.201 -41.3565 349.17 44.0129 264.803 56.1461C180.423 68.2802 174.453 -17.0892 90.1066 -4.95742C11.7874 6.30601 11.3366 80.7132 -55.8513 101.003Z" fill="white"/>
<path d="M-61.7753 16.2548L-64.6262 -24.5152C-42.9383 -31.0837 -28.2207 -43.2766 -15.5771 -57.1746L24.6653 -59.9886C-2.50811 -33.2498 -17.9514 3.02373 -61.7753 16.2548Z" fill="white"/>
<path d="M1398.79 445.94L1352.41 449.184C1360.86 443.766 1368.06 437.317 1374.62 430.37C1402.5 400.875 1419.25 362.379 1473.83 354.522C1543.18 344.547 1559.57 400.409 1610 413.911C1620.95 416.852 1633.49 417.789 1648.54 415.629C1657.4 414.359 1665.27 412.273 1672.34 409.551C1732.63 386.369 1735.77 316.855 1811.28 306.002C1895.62 293.871 1901.59 379.229 1985.95 367.107C2041.51 359.12 2057.88 319.369 2086.71 289.682C2098.34 277.667 2112.06 267.314 2131.18 261.371L2134.03 302.152C2114.88 308.115 2101.2 318.504 2089.57 330.536C2073.04 347.579 2060.59 367.93 2042.48 383.665C2033.08 391.823 2022.16 398.735 2008.37 403.311C2002.45 405.28 1996 406.82 1988.93 407.836C1975.68 409.74 1964.36 409.243 1954.39 407.086C1941.5 404.32 1930.82 398.804 1921.05 392.156C1890.14 371.174 1868.27 338.957 1814.25 346.731C1769.77 353.135 1750.41 379.889 1729.66 405.539C1724.58 411.84 1719.4 418.075 1713.76 423.912L1574.04 433.682C1567.33 428.483 1560.88 422.988 1554.17 417.811C1534.55 402.635 1512.83 390.076 1476.84 395.248C1447.97 399.409 1429.69 412.132 1414.73 427.562C1409.08 433.411 1403.9 439.634 1398.8 445.936L1398.79 445.94Z" fill="white"/>
<path d="M987.506 464.991L984.655 424.221C1051.76 403.908 1052.24 329.561 1130.49 318.306C1214.85 306.173 1220.82 391.543 1305.17 379.411C1389.53 367.278 1383.56 281.909 1467.91 269.788C1552.31 257.652 1558.28 343.011 1642.62 330.879C1726.96 318.748 1721 233.389 1805.36 221.256C1889.7 209.125 1895.67 294.494 1980.04 282.361C2058.06 271.141 2058.81 197.245 2125.27 176.636L2128.12 217.406C2061.78 238.072 2061.01 311.882 1983 323.09C1898.66 335.221 1892.69 249.863 1808.33 261.996C1723.99 274.116 1729.96 359.486 1645.59 371.619C1561.25 383.75 1555.28 298.381 1470.91 310.514C1386.57 322.645 1392.54 408.004 1308.17 420.137C1223.79 432.271 1217.82 346.913 1133.48 359.033C1055.14 370.298 1054.69 444.706 987.506 464.991Z" fill="white"/>
<path d="M981.581 380.259L978.729 339.478C1045.83 319.164 1046.32 244.818 1124.57 233.563C1208.93 221.441 1214.9 306.799 1299.24 294.668C1383.6 282.535 1377.64 197.177 1461.98 185.045C1546.38 172.909 1552.35 258.279 1636.7 246.147C1721.04 234.016 1715.07 148.657 1799.44 136.524C1883.78 124.393 1889.75 209.751 1974.11 197.629C2052.14 186.408 2052.88 112.512 2119.34 91.8933L2122.19 132.663C2055.86 153.325 2055.08 227.139 1977.08 238.358C1892.74 250.489 1886.77 165.12 1802.4 177.253C1718.06 189.384 1724.03 274.743 1639.66 286.876C1555.32 299.007 1549.35 213.649 1464.99 225.771C1380.65 237.902 1386.62 323.272 1302.25 335.405C1217.87 347.539 1211.9 262.17 1127.55 274.301C1049.22 285.566 1048.76 359.973 981.581 380.259Z" fill="white"/>
<path d="M975.658 295.516L972.807 254.746C1039.91 234.432 1040.39 160.085 1118.65 148.83C1203.01 136.698 1208.98 222.067 1293.32 209.935C1377.68 197.803 1371.71 112.444 1456.06 100.312C1540.46 88.1769 1546.43 173.535 1630.78 161.403C1715.12 149.283 1709.15 63.9138 1793.51 51.7806C1877.85 39.6493 1883.82 125.019 1968.19 112.886C2046.21 101.665 2046.96 27.769 2113.42 7.16083L2116.27 47.9309C2049.94 68.5967 2049.16 142.406 1971.16 153.626C1886.81 165.746 1880.85 80.3874 1796.48 92.5206C1712.14 104.641 1718.11 190.01 1633.74 202.143C1549.4 214.275 1543.43 128.905 1459.06 141.039C1374.72 153.17 1380.69 238.528 1296.33 250.661C1211.95 262.796 1205.98 177.437 1121.63 189.558C1043.3 200.822 1042.84 275.23 975.658 295.516Z" fill="white"/>
<path d="M969.732 210.765L966.882 169.995C1033.99 149.681 1034.47 75.3344 1112.72 64.0794C1197.08 51.9577 1203.05 137.316 1287.4 125.184C1371.76 113.063 1365.79 27.6932 1450.13 15.5614C1534.54 3.4259 1540.51 88.7953 1624.85 76.6635C1709.19 64.5322 1703.22 -20.8261 1787.59 -32.9593C1871.93 -45.0906 1877.9 40.2678 1962.27 28.1456C2040.29 16.925 2041.03 -56.971 2107.49 -77.5901L2110.35 -36.8091C2044.01 -16.1543 2043.23 57.6554 1965.23 68.8745C1880.89 81.0058 1874.92 -4.36356 1790.55 7.76962C1706.21 19.9009 1712.18 105.27 1627.82 117.392C1543.48 129.524 1537.51 44.1654 1453.14 56.2875C1368.8 68.4188 1374.77 153.788 1290.4 165.921C1206.02 178.056 1200.05 92.6862 1115.7 104.818C1037.37 116.082 1036.91 190.49 969.732 210.765Z" fill="white"/>
<path d="M963.807 126.033L960.956 85.2631C1028.06 64.9496 1028.54 -9.39703 1106.79 -20.6521C1191.15 -32.7848 1197.12 52.5846 1281.47 40.4528C1365.83 28.3201 1359.86 -57.0382 1444.21 -69.17C1528.61 -81.3055 1534.58 4.05283 1618.93 -8.07894C1703.27 -20.1992 1697.3 -105.569 1781.66 -117.702C1866 -129.833 1871.97 -44.4637 1956.34 -56.5969C2034.36 -67.8175 2035.11 -141.713 2101.57 -162.322L2104.42 -121.552C2038.08 -100.886 2037.31 -27.0761 1959.3 -15.8569C1874.96 -3.73663 1868.99 -89.095 1784.63 -76.9618C1700.29 -64.8305 1706.26 20.5278 1621.89 32.661C1537.55 44.7923 1531.58 -40.5771 1447.21 -28.4439C1362.87 -16.3126 1368.84 69.0458 1284.48 81.1789C1200.09 93.3131 1194.13 7.95103 1109.78 20.0754C1031.45 31.3398 1030.99 105.748 963.807 126.033Z" fill="white"/>
<path d="M957.879 41.3004L955.028 0.519306C1022.13 -19.7942 1022.61 -94.1408 1100.87 -105.389C1185.23 -117.521 1191.2 -32.1629 1275.54 -44.2946C1348.76 -54.8169 1353.93 -120.518 1409.17 -145.618C1417.57 -149.434 1427.13 -152.318 1438.27 -153.921C1455.66 -156.426 1469.74 -154.781 1481.84 -150.7C1528.47 -135.005 1546.03 -83.188 1612.98 -92.8144C1666.35 -100.49 1683.56 -137.474 1710.36 -166.68L1856.8 -176.92C1881.65 -157.154 1904.33 -134.713 1950.4 -141.332C1988.29 -146.774 2007.97 -166.998 2025.76 -188.735L2069.76 -191.812C2029.67 -162.463 2018.18 -109.929 1953.36 -100.603C1869.02 -88.4721 1863.05 -173.842 1778.69 -161.708C1694.35 -149.577 1700.32 -64.2077 1615.95 -52.0855C1531.61 -39.9542 1525.64 -125.313 1441.27 -113.19C1356.93 -101.059 1362.9 -15.6897 1278.53 -3.55654C1194.15 8.57758 1188.18 -76.7918 1103.84 -64.6601C1025.52 -53.3966 1025.07 21.0106 957.879 41.3004Z" fill="white"/>
</g>
</g>
</g>
</svg>
