<svg width="2374" height="2374" viewBox="0 0 2374 2374" fill="none" xmlns="http://www.w3.org/2000/svg">
<g opacity="0.02">
<path d="M1187 2354C1831.52 2354 2354 1831.52 2354 1187C2354 542.484 1831.52 20 1187 20C542.484 20 20 542.484 20 1187C20 1831.52 542.484 2354 1187 2354Z" stroke="white" stroke-width="40" stroke-linecap="round" stroke-linejoin="round"/>
<path d="M1187 2262.72C1781.1 2262.72 2262.72 1781.1 2262.72 1187C2262.72 592.896 1781.1 111.281 1187 111.281C592.898 111.281 111.283 592.896 111.283 1187C111.283 1781.1 592.898 2262.72 1187 2262.72Z" stroke="white" stroke-width="40" stroke-linecap="round" stroke-linejoin="round"/>
<path d="M1187 2171.4C1730.67 2171.4 2171.4 1730.67 2171.4 1187C2171.4 643.333 1730.67 202.602 1187 202.602C643.331 202.602 202.6 643.333 202.6 1187C202.6 1730.67 643.331 2171.4 1187 2171.4Z" stroke="white" stroke-width="40" stroke-linecap="round" stroke-linejoin="round"/>
<path d="M1187 2080.12C1680.26 2080.12 2080.12 1680.26 2080.12 1187C2080.12 693.745 1680.26 293.883 1187 293.883C693.745 293.883 293.883 693.745 293.883 1187C293.883 1680.26 693.745 2080.12 1187 2080.12Z" stroke="white" stroke-width="40" stroke-linecap="round" stroke-linejoin="round"/>
<path d="M1187 1988.8C1629.82 1988.8 1988.8 1629.82 1988.8 1187C1988.8 744.178 1629.82 385.199 1187 385.199C744.178 385.199 385.199 744.178 385.199 1187C385.199 1629.82 744.178 1988.8 1187 1988.8Z" stroke="white" stroke-width="40" stroke-linecap="round" stroke-linejoin="round"/>
<path d="M1187 1897.52C1579.41 1897.52 1897.52 1579.41 1897.52 1187C1897.52 794.59 1579.41 476.48 1187 476.48C794.592 476.48 476.482 794.59 476.482 1187C476.482 1579.41 794.592 1897.52 1187 1897.52Z" stroke="white" stroke-width="40" stroke-linecap="round" stroke-linejoin="round"/>
<path d="M1187 1806.2C1528.98 1806.2 1806.2 1528.97 1806.2 1187C1806.2 845.023 1528.98 567.797 1187 567.797C845.025 567.797 567.799 845.023 567.799 1187C567.799 1528.97 845.025 1806.2 1187 1806.2Z" stroke="white" stroke-width="40" stroke-linecap="round" stroke-linejoin="round"/>
<path d="M1187 1714.92C1478.56 1714.92 1714.92 1478.56 1714.92 1187C1714.92 895.439 1478.56 659.082 1187 659.082C895.439 659.082 659.082 895.439 659.082 1187C659.082 1478.56 895.439 1714.92 1187 1714.92Z" stroke="white" stroke-width="40" stroke-linecap="round" stroke-linejoin="round"/>
<path d="M1187 1623.6C1428.13 1623.6 1623.6 1428.13 1623.6 1187C1623.6 945.871 1428.13 750.398 1187 750.398C945.871 750.398 750.398 945.871 750.398 1187C750.398 1428.13 945.871 1623.6 1187 1623.6Z" stroke="white" stroke-width="40" stroke-linecap="round" stroke-linejoin="round"/>
<path d="M1187 1532.32C1377.72 1532.32 1532.32 1377.71 1532.32 1187C1532.32 996.284 1377.72 841.68 1187 841.68C996.288 841.68 841.684 996.284 841.684 1187C841.684 1377.71 996.288 1532.32 1187 1532.32Z" stroke="white" stroke-width="40" stroke-linecap="round" stroke-linejoin="round"/>
<path d="M1187 1441C1327.28 1441 1441 1327.28 1441 1187C1441 1046.72 1327.28 933 1187 933C1046.72 933 932.998 1046.72 932.998 1187C932.998 1327.28 1046.72 1441 1187 1441Z" stroke="white" stroke-width="40" stroke-linecap="round" stroke-linejoin="round"/>
<path d="M1187 1349.72C1276.87 1349.72 1349.72 1276.87 1349.72 1187C1349.72 1097.13 1276.87 1024.28 1187 1024.28C1097.13 1024.28 1024.28 1097.13 1024.28 1187C1024.28 1276.87 1097.13 1349.72 1187 1349.72Z" stroke="white" stroke-width="40" stroke-linecap="round" stroke-linejoin="round"/>
</g>
</svg>
