<svg width="1440" height="900" viewBox="0 0 1440 900" fill="none" xmlns="http://www.w3.org/2000/svg">
<g opacity="0.25">
<path d="M720 2213C1364.52 2213 1887 1690.52 1887 1046C1887 401.484 1364.52 -121 720 -121C75.4837 -121 -447 401.484 -447 1046C-447 1690.52 75.4837 2213 720 2213Z" stroke="#ECDAC2" stroke-width="40" stroke-linecap="round" stroke-linejoin="round"/>
<path d="M720 2121.72C1314.1 2121.72 1795.72 1640.1 1795.72 1046C1795.72 451.896 1314.1 -29.7188 720 -29.7188C125.898 -29.7188 -355.717 451.896 -355.717 1046C-355.717 1640.1 125.898 2121.72 720 2121.72Z" stroke="#ECDAC2" stroke-width="40" stroke-linecap="round" stroke-linejoin="round"/>
<path d="M720 2030.4C1263.67 2030.4 1704.4 1589.67 1704.4 1046C1704.4 502.333 1263.67 61.6016 720 61.6016C176.331 61.6016 -264.4 502.333 -264.4 1046C-264.4 1589.67 176.331 2030.4 720 2030.4Z" stroke="#ECDAC2" stroke-width="40" stroke-linecap="round" stroke-linejoin="round"/>
<path d="M720 1939.12C1213.26 1939.12 1613.12 1539.26 1613.12 1046C1613.12 552.745 1213.26 152.883 720 152.883C226.745 152.883 -173.117 552.745 -173.117 1046C-173.117 1539.26 226.745 1939.12 720 1939.12Z" stroke="#ECDAC2" stroke-width="40" stroke-linecap="round" stroke-linejoin="round"/>
<path d="M720 1847.8C1162.82 1847.8 1521.8 1488.82 1521.8 1046C1521.8 603.178 1162.82 244.199 720 244.199C277.178 244.199 -81.8008 603.178 -81.8008 1046C-81.8008 1488.82 277.178 1847.8 720 1847.8Z" stroke="#ECDAC2" stroke-width="40" stroke-linecap="round" stroke-linejoin="round"/>
<path d="M720 1756.52C1112.41 1756.52 1430.52 1438.41 1430.52 1046C1430.52 653.59 1112.41 335.48 720 335.48C327.592 335.48 9.48242 653.59 9.48242 1046C9.48242 1438.41 327.592 1756.52 720 1756.52Z" stroke="#ECDAC2" stroke-width="40" stroke-linecap="round" stroke-linejoin="round"/>
<path d="M720 1665.2C1061.98 1665.2 1339.2 1387.97 1339.2 1046C1339.2 704.023 1061.98 426.797 720 426.797C378.025 426.797 100.799 704.023 100.799 1046C100.799 1387.97 378.025 1665.2 720 1665.2Z" stroke="#ECDAC2" stroke-width="40" stroke-linecap="round" stroke-linejoin="round"/>
<path d="M720 1573.92C1011.56 1573.92 1247.92 1337.56 1247.92 1046C1247.92 754.439 1011.56 518.082 720 518.082C428.439 518.082 192.082 754.439 192.082 1046C192.082 1337.56 428.439 1573.92 720 1573.92Z" stroke="#ECDAC2" stroke-width="40" stroke-linecap="round" stroke-linejoin="round"/>
<path d="M720 1482.6C961.128 1482.6 1156.6 1287.13 1156.6 1046C1156.6 804.871 961.128 609.398 720 609.398C478.871 609.398 283.398 804.871 283.398 1046C283.398 1287.13 478.871 1482.6 720 1482.6Z" stroke="#ECDAC2" stroke-width="40" stroke-linecap="round" stroke-linejoin="round"/>
<path d="M720.002 1391.32C910.716 1391.32 1065.32 1236.71 1065.32 1046C1065.32 855.284 910.716 700.68 720.002 700.68C529.288 700.68 374.684 855.284 374.684 1046C374.684 1236.71 529.288 1391.32 720.002 1391.32Z" stroke="#ECDAC2" stroke-width="40" stroke-linecap="round" stroke-linejoin="round"/>
<path d="M720 1300C860.281 1300 974.001 1186.28 974.001 1046C974.001 905.72 860.281 792 720 792C579.718 792 465.998 905.72 465.998 1046C465.998 1186.28 579.718 1300 720 1300Z" stroke="#ECDAC2" stroke-width="40" stroke-linecap="round" stroke-linejoin="round"/>
<path d="M720 1208.72C809.867 1208.72 882.719 1135.87 882.719 1046C882.719 956.133 809.867 883.281 720 883.281C630.133 883.281 557.281 956.133 557.281 1046C557.281 1135.87 630.133 1208.72 720 1208.72Z" stroke="#ECDAC2" stroke-width="40" stroke-linecap="round" stroke-linejoin="round"/>
</g>
</svg>
