<svg width="1440" height="900" viewBox="0 0 1440 900" fill="none" xmlns="http://www.w3.org/2000/svg">
<g opacity="0.05">
<mask id="mask0_1216_6945" style="mask-type:alpha" maskUnits="userSpaceOnUse" x="0" y="0" width="1440" height="900">
<rect x="0.4902" y="-0.4902" width="1439.02" height="899.02" transform="matrix(1 0 0 -1 0 899.02)" fill="#23195F" stroke="#23195F" stroke-width="0.980399"/>
</mask>
<g mask="url(#mask0_1216_6945)">
<g opacity="0.15">
<path d="M813.57 -31.4437C813.896 -30.7037 814.222 -29.9636 814.549 -29.2235C818.188 -20.9679 821.826 -12.7165 825.666 -4.83329L825.666 -4.83267C827.154 -1.76014 828.673 1.24219 830.237 4.1629L830.237 4.16385C839.461 21.5317 850.057 36.0628 864.318 43.3032V-20.2364C858.819 -22.9876 853.862 -26.8193 849.34 -31.4437H813.57Z" fill="white" stroke="#23195F" stroke-width="0.644233"/>
<path d="M659.481 -4.92081C666.293 -12.0642 672.179 -21.3647 677.715 -31.45H577.633C583.373 -21.1107 589.68 -11.9289 597.094 -4.93278L597.094 -4.9326C604.588 2.1508 613.202 7.02576 623.479 8.6068C638.473 10.9095 649.893 5.13796 659.481 -4.92076L659.481 -4.92081Z" fill="white" stroke="#23195F" stroke-width="0.644233"/>
<path d="M765.361 -31.4812L765.362 -31.4809C775.834 -25.8533 784.307 -16.2611 791.739 -4.51898C798.899 6.80623 805.066 20.0989 811.103 33.6896C812.088 35.9086 813.07 38.1357 814.053 40.3633C819.084 51.771 824.121 63.1933 829.662 73.6277C838.946 91.1655 849.696 105.988 864.312 113.319V176.876C850.05 169.619 839.44 155.087 830.232 137.72L829.947 137.871L830.231 137.72C824.677 127.273 819.631 115.829 814.579 104.373L814.012 103.087C808.772 91.2078 803.506 79.356 797.649 68.658C785.944 47.2753 771.828 30.4036 750.718 27.1614L750.669 27.4798L750.718 27.1614C734.671 24.7 722.639 31.3493 712.648 42.4911C702.677 53.6112 694.708 69.2402 686.765 84.818L686.753 84.8408C678.795 100.448 670.862 116.002 660.956 127.05C651.065 138.081 639.239 144.586 623.475 142.163L623.426 142.482L623.475 142.163C609.347 139.995 598.361 131.627 589.1 119.783C579.836 107.933 572.318 92.6297 565.122 76.6385C563.434 72.8866 561.763 69.0966 560.092 65.3052C554.646 52.9502 549.193 40.5802 543.103 29.4664C535.143 14.9417 526.07 2.51355 514.445 -4.96779C508.987 -8.48315 502.964 -10.9104 496.231 -11.9372M765.361 -31.4812L514.271 -4.69691C508.848 -8.18971 502.867 -10.5993 496.182 -11.6188C484.834 -13.3565 475.519 -10.5125 467.491 -4.69691M765.361 -31.4812C760.871 -33.9031 756.01 -35.5995 750.712 -36.4104L750.761 -36.7288L750.712 -36.4104C740.799 -37.9335 732.452 -35.9286 725.177 -31.4897L725.176 -31.4893C715.766 -25.7787 708.111 -16.0096 701.17 -4.52451L701.17 -4.52426C696.356 3.42558 691.894 12.1746 687.425 20.9363C686.799 22.1628 686.174 23.3896 685.547 24.6145C680.446 34.5828 675.272 44.4229 669.508 52.9346C657.981 69.956 644.028 81.754 623.468 78.5914C606.566 75.9882 594.148 64.6504 583.865 49.2665C574.654 35.4866 567.126 18.4135 559.61 1.3692C558.738 -0.609497 557.865 -2.5878 556.991 -4.56053L556.991 -4.56079C552.893 -13.823 548.729 -22.9633 544.253 -31.4426H439.804C437.516 -27.1441 435.275 -22.7451 433.034 -18.3449L432.893 -18.0687C430.576 -13.5191 428.257 -8.97073 425.886 -4.53914C418.954 8.44127 411.577 20.4934 402.517 28.7775C393.443 37.0748 382.672 41.5984 368.986 39.4987L368.986 39.4987C347.048 36.1136 332.665 18.031 320.683 -4.54008L320.683 -4.54062C316.187 -13.0495 312.012 -22.1852 307.903 -31.4483H274.01C280.433 -23.9479 286.01 -14.7956 291.154 -4.84483C296.24 4.98235 300.92 15.6014 305.595 26.2088C306.064 27.2721 306.533 28.3353 307.002 29.3975C312.151 41.0617 317.343 52.6154 323.121 63.0152C334.682 83.827 348.537 99.9261 368.962 103.07C381.932 105.064 392.229 101.023 400.976 93.4052C409.737 85.7755 416.938 74.5609 423.678 62.2222C426.605 56.8652 429.441 51.3036 432.279 45.7374C432.708 44.8957 433.137 44.0538 433.567 43.2126C436.837 36.8105 440.128 30.4436 443.575 24.4296C450.467 12.4078 458.006 1.76122 467.302 -4.95778M765.361 -31.4812L467.491 -4.69691M496.231 -11.9372L496.184 -11.6312L496.231 -11.9372C496.231 -11.9372 496.231 -11.9372 496.231 -11.9372ZM496.231 -11.9372C484.793 -13.6886 475.393 -10.8191 467.302 -4.95778M467.302 -4.95778C467.302 -4.95784 467.302 -4.95792 467.302 -4.95798L467.491 -4.69691M467.302 -4.95778L467.491 -4.69691" fill="white" stroke="#23195F" stroke-width="0.644233"/>
<path d="M114.49 0.383713L114.49 0.38369C109.249 -0.421181 104.431 -2.05451 99.9848 -4.41112C89.3112 -10.043 80.7213 -19.6936 73.2534 -31.4475H42.8016C45.6281 -25.3695 48.3802 -19.1273 51.1322 -12.8853C53.1739 -8.25433 55.2155 -3.6235 57.2875 0.940006C64.334 16.4384 71.7528 31.1477 80.8604 42.5124C89.9641 53.8722 100.736 61.8661 114.487 63.9786C132.196 66.6937 144.943 58.1447 155.557 44.5617C163.838 33.9641 170.784 20.3488 177.748 6.7002C179.722 2.8314 181.697 -1.04008 183.704 -4.84628L183.963 -4.70988L183.704 -4.84634C188.81 -14.5223 194.109 -23.7734 200.126 -31.4475H164.47C157.483 -19.9512 149.726 -10.1344 140.121 -4.41919C132.79 -0.0549393 124.408 1.90128 114.49 0.383713Z" fill="white" stroke="#23195F" stroke-width="0.644233"/>
<path d="M30.922 16.1277C22.5137 1.80624 12.8205 -9.89185 0.323947 -16.0262V47.5182C13.1136 53.7103 22.9602 65.6114 31.4468 80.0769C38.6569 92.3666 44.9049 106.543 51.1435 120.698C52.2832 123.284 53.4227 125.87 54.5676 128.443C61.9856 145.113 69.6349 161.267 79.1068 173.82C88.575 186.368 99.8398 195.284 114.482 197.535C130.25 199.958 142.078 193.452 151.971 182.419C161.879 171.37 169.813 155.814 177.771 140.206L177.787 140.176C185.729 124.599 193.696 108.973 203.664 97.8554C213.653 86.7144 225.682 80.0672 241.725 82.533C257.754 84.9961 269.751 95.3178 279.718 109.496C289.678 123.664 297.642 141.73 305.588 159.756L305.597 159.775C313.553 177.824 321.493 195.832 331.411 209.941C341.326 224.045 353.187 234.206 368.969 236.628C384.744 239.051 396.579 232.546 406.476 221.514C416.388 210.467 424.325 194.914 432.285 179.307L432.306 179.267C440.248 163.696 448.215 148.076 458.181 136.963C468.17 125.823 480.2 119.177 496.243 121.643C512.268 124.106 524.262 134.427 534.227 148.603C544.183 162.768 552.145 180.828 560.09 198.851L560.103 198.879C568.059 216.926 576 234.934 585.92 249.044C595.837 263.149 607.7 273.312 623.486 275.738C639.25 278.161 651.076 271.655 660.967 260.622C670.873 249.573 678.806 234.017 686.764 218.409L686.775 218.389C694.718 202.809 702.688 187.178 712.66 176.058C722.651 164.917 734.683 158.27 750.73 160.736C765.554 163.014 776.93 172.017 786.441 184.576C795.947 197.13 803.614 213.27 811.012 229.876C812.21 232.566 813.401 235.269 814.592 237.97C820.76 251.959 826.918 265.927 834.002 278.081C842.35 292.403 851.957 304.156 864.323 310.434V246.894C851.673 240.544 841.919 228.579 833.495 214.106C826.415 201.941 820.255 187.97 814.105 174.018C812.903 171.293 811.702 168.568 810.495 165.858C803.099 149.261 795.461 133.2 786.006 120.726C776.555 108.257 765.314 99.403 750.718 97.1642C734.954 94.7411 723.128 101.246 713.237 112.277C703.331 123.325 695.398 138.878 687.44 154.484L687.43 154.504C679.486 170.082 671.516 185.711 661.544 196.829C651.554 207.968 639.521 214.614 623.475 212.149C607.45 209.69 595.455 199.371 585.49 185.196C575.533 171.031 567.571 152.969 559.626 134.945L559.615 134.919C551.658 116.871 543.718 98.8615 533.798 84.7505C523.881 70.6442 512.017 60.4796 496.231 58.054C480.467 55.631 468.641 62.1369 458.75 73.1698C448.844 84.2191 440.911 99.7744 432.953 115.383L432.943 115.403C424.999 130.983 417.029 146.613 407.057 157.733C397.067 168.874 385.034 175.522 368.988 173.056C352.962 170.593 340.968 160.272 331.003 146.095C321.047 131.931 313.085 113.871 305.14 95.8484L305.128 95.8201C297.171 77.7726 289.231 59.7649 279.311 45.6554C269.394 31.5504 257.53 21.3869 241.744 18.9613C225.972 16.5382 214.141 23.0431 204.246 34.0746C194.336 45.1226 186.4 60.6763 178.441 76.2836L178.421 76.3219C170.48 91.8945 162.513 107.517 152.547 118.633C142.558 129.775 130.528 136.424 114.485 133.963C99.6021 131.677 88.1938 122.615 78.6602 109.981C69.1304 97.3531 61.4493 81.1238 54.0278 64.4482C52.883 61.8758 51.7443 59.2929 50.606 56.7107C44.359 42.5397 38.1213 28.39 30.922 16.1277Z" fill="white" stroke="#23195F" stroke-width="0.644233"/>
<path d="M30.922 149.684C22.5137 135.363 12.8205 123.664 0.323947 117.53V181.092C13.1136 187.284 22.9602 199.185 31.4468 213.651C38.6569 225.94 44.9048 240.117 51.1435 254.272C52.2832 256.858 53.4227 259.443 54.5676 262.016C61.9856 278.687 69.6349 294.841 79.1068 307.393C88.575 319.941 99.8398 328.858 114.482 331.109C130.249 333.527 142.078 327.019 151.971 315.985C161.879 304.935 169.813 289.38 177.771 273.773L177.785 273.746C185.728 258.17 193.696 242.543 203.664 231.427C213.653 220.287 225.682 213.641 241.725 216.107C257.754 218.57 269.751 228.89 279.718 243.067C289.679 257.235 297.643 275.3 305.59 293.327L305.597 293.342C313.553 311.39 321.493 329.398 331.411 343.507C341.326 357.612 353.187 367.776 368.969 370.201C384.744 372.624 396.579 366.118 406.476 355.085C416.388 344.036 424.325 328.481 432.285 312.872L432.306 312.832C440.248 297.259 448.215 281.637 458.181 270.522C468.17 259.381 480.2 252.734 496.243 255.199C512.268 257.663 524.262 267.983 534.227 282.16C544.183 296.324 552.145 314.385 560.09 332.407L560.103 332.435C568.059 350.483 576 368.49 585.92 382.6C595.837 396.705 607.7 406.868 623.486 409.294C639.25 411.717 651.076 405.212 660.967 394.181C670.873 383.133 678.806 367.579 686.765 351.972L686.776 351.95C694.719 336.371 702.689 320.742 712.66 309.622C722.651 298.48 734.683 291.831 750.73 294.292C765.554 296.57 776.93 305.573 786.441 318.132C795.947 330.687 803.614 346.828 811.012 363.435C812.211 366.126 813.403 368.83 814.594 371.533C820.761 385.521 826.919 399.49 834.002 411.645C842.35 425.969 851.957 437.726 864.323 444.007V380.467C851.673 374.119 841.919 362.155 833.495 347.682C826.414 335.516 820.254 321.541 814.102 307.587C812.902 304.863 811.701 302.14 810.495 299.432C803.099 282.833 795.461 266.77 786.006 254.293C776.555 241.821 765.314 232.964 750.718 230.72C734.954 228.297 723.128 234.803 713.237 245.836C703.331 256.886 695.398 272.441 687.44 288.049L687.429 288.07C679.486 303.649 671.516 319.28 661.544 330.4C651.554 341.541 639.521 348.188 623.475 345.722C607.449 343.259 595.455 332.939 585.49 318.762C575.534 304.598 567.573 286.538 559.628 268.516L559.615 268.487C551.658 250.439 543.718 232.431 533.798 218.322C523.881 204.217 512.017 194.053 496.231 191.628C480.467 189.205 468.641 195.71 458.75 206.741C448.844 217.789 440.911 233.343 432.953 248.95L432.941 248.973C424.998 264.55 417.029 280.18 407.057 291.3C397.067 302.442 385.034 309.091 368.988 306.63L369.036 306.311L368.987 306.63C352.962 304.166 340.968 293.845 331.003 279.666C321.047 265.5 313.085 247.438 305.14 229.414L305.128 229.385C297.171 211.335 289.231 193.326 279.311 179.214C269.394 165.108 257.53 154.943 241.744 152.518C225.972 150.095 214.141 156.601 204.246 167.633C194.336 178.683 186.4 194.238 178.441 209.846L178.423 209.882C170.481 225.457 162.514 241.081 152.547 252.197C142.558 263.338 130.528 269.985 114.485 267.519C99.6021 265.233 88.1938 256.171 78.6602 243.538C69.1304 230.909 61.4493 214.68 54.0278 198.005C52.883 195.432 51.7444 192.85 50.6062 190.267C44.3591 176.096 38.1213 161.946 30.922 149.684Z" fill="white" stroke="#23195F" stroke-width="0.644233"/>
<path d="M30.922 283.251C22.5137 268.93 12.8205 257.231 0.323947 251.097V314.641C13.1136 320.834 22.9602 332.735 31.4468 347.2C38.6569 359.49 44.9049 373.666 51.1436 387.822C52.2833 390.408 53.4227 392.993 54.5676 395.566C61.9856 412.236 69.6349 428.39 79.1068 440.943C88.575 453.491 99.8398 462.408 114.482 464.658C130.25 467.081 142.078 460.575 151.971 449.542C161.879 438.493 169.813 422.938 177.771 407.329L177.787 407.299C185.729 391.723 193.696 376.096 203.664 364.979C213.653 353.838 225.682 347.191 241.725 349.656C257.754 352.119 269.751 362.44 279.718 376.617C289.679 390.785 297.643 408.85 305.59 426.877L305.597 426.892C313.553 444.939 321.493 462.947 331.411 477.057C341.326 491.162 353.187 501.325 368.969 503.751C384.744 506.174 396.579 499.669 406.476 488.638C416.388 477.59 424.325 462.037 432.285 446.431L432.306 446.39C440.248 430.819 448.215 415.199 458.181 404.086C468.17 392.947 480.2 386.301 496.243 388.766C512.268 391.225 524.262 401.544 534.227 415.719C544.184 429.884 552.146 447.946 560.092 465.971L560.103 465.996C568.059 484.044 576 502.054 585.92 516.164C595.837 530.271 607.7 540.435 623.486 542.861C639.25 545.284 651.076 538.778 660.967 527.745C670.873 516.696 678.806 501.141 686.764 485.532L686.775 485.512C694.718 469.932 702.688 454.301 712.66 443.182C722.651 432.04 734.683 425.393 750.73 427.859C765.554 430.137 776.93 439.14 786.441 451.699C795.947 464.254 803.614 480.394 811.012 497C812.21 499.69 813.401 502.392 814.592 505.093C820.76 519.082 826.918 533.051 834.002 545.204C842.35 559.526 851.957 571.279 864.323 577.557V514.017C851.673 507.667 841.919 495.702 833.495 481.229C826.414 469.063 820.254 455.089 814.103 441.136C812.902 438.412 811.702 435.688 810.495 432.979C803.099 416.381 795.461 400.319 786.006 387.842C776.555 375.37 765.314 366.513 750.718 364.27C734.954 361.851 723.128 368.359 713.237 379.393C703.331 390.443 695.398 405.998 687.44 421.605L687.431 421.622C679.487 437.202 671.517 452.833 661.544 463.952C651.554 475.092 639.521 481.738 623.475 479.272C607.45 476.813 595.455 466.495 585.49 452.319C575.533 438.154 567.571 420.093 559.626 402.068L559.615 402.043C551.658 383.994 543.718 365.985 533.798 351.874C523.881 337.768 512.017 327.603 496.231 325.177C480.467 322.754 468.641 329.26 458.75 340.293C448.844 351.342 440.911 366.898 432.953 382.506L432.943 382.526C424.999 398.106 417.029 413.737 407.057 424.857C397.067 435.998 385.034 442.645 368.988 440.179C352.962 437.716 340.968 427.395 331.003 413.219C321.047 399.054 313.085 380.994 305.14 362.972L305.128 362.943C297.171 344.896 289.231 326.888 279.311 312.779C269.394 298.674 257.53 288.51 241.744 286.085C225.972 283.661 214.141 290.166 204.246 301.198C194.336 312.246 186.4 327.8 178.441 343.407L178.421 343.445C170.48 359.018 162.513 374.64 152.547 385.757C142.558 396.898 130.528 403.548 114.485 401.086L114.534 400.768L114.485 401.086C99.6021 398.8 88.1938 389.738 78.6602 377.105C69.1304 364.476 61.4493 348.247 54.0278 331.571C52.883 328.999 51.7444 326.416 50.6061 323.834C44.359 309.663 38.1213 295.513 30.922 283.251Z" fill="white" stroke="#23195F" stroke-width="0.644233"/>
<path d="M368.988 573.756L369.036 573.438L368.987 573.756C352.962 571.293 340.968 560.971 331.003 546.793C321.047 532.627 313.085 514.565 305.14 496.541L305.128 496.512C297.171 478.462 289.231 460.452 279.311 446.341C269.394 432.235 257.53 422.07 241.744 419.644C225.972 417.221 214.141 423.727 204.246 434.76C194.336 445.809 186.4 461.365 178.441 476.973L178.423 477.008C170.481 492.583 162.514 508.207 152.547 519.324C142.558 530.465 130.528 537.112 114.485 534.646C99.6021 532.36 88.1938 523.298 78.6602 510.665C69.1304 498.037 61.4494 481.808 54.0278 465.133C52.8836 462.563 51.7457 459.982 50.608 457.401C44.3603 443.23 38.122 429.08 30.922 416.818C22.5137 402.499 12.8205 390.804 0.323947 384.674V448.219C13.1136 454.411 22.9602 466.312 31.4468 480.777C38.6569 493.067 44.9049 507.243 51.1436 521.399C52.2833 523.985 53.4227 526.57 54.5676 529.143C61.9856 545.813 69.6349 561.967 79.1068 574.52C88.575 587.068 99.8398 595.985 114.482 598.235C130.249 600.654 142.078 594.146 151.971 583.112C161.879 572.062 169.813 556.507 177.771 540.9L177.785 540.873C185.728 525.296 193.696 509.67 203.664 498.553C213.653 487.414 225.682 480.768 241.725 483.233C257.754 485.692 269.751 496.011 279.718 510.186C289.679 524.355 297.644 542.422 305.591 560.451L305.597 560.463C313.553 578.511 321.493 596.521 331.411 610.631C341.326 624.738 353.187 634.902 368.969 637.328C384.744 639.751 396.579 633.245 406.476 622.212C416.388 611.163 424.325 595.607 432.285 579.999L432.306 579.959C440.248 564.386 448.215 548.764 458.181 537.649C468.17 526.508 480.2 519.86 496.243 522.326C512.268 524.789 524.262 535.11 534.227 549.287C544.183 563.451 552.145 581.511 560.09 599.533L560.103 599.562C568.059 617.609 576 635.617 585.92 649.727C595.837 663.832 607.7 673.995 623.486 676.421C639.25 678.844 651.076 672.339 660.967 661.307C670.873 650.259 678.806 634.706 686.765 619.098L686.776 619.076C694.719 603.498 702.689 587.869 712.66 576.749C722.651 565.607 734.683 558.958 750.73 561.419C765.554 563.697 776.93 572.7 786.441 585.259C795.947 597.814 803.614 613.954 811.012 630.562C812.211 633.253 813.403 635.957 814.594 638.66C820.761 652.648 826.919 666.617 834.002 678.771C842.35 693.096 851.957 704.852 864.323 711.134V647.577C851.673 641.231 841.919 629.27 833.495 614.799C826.413 602.634 820.253 588.66 814.101 574.706C812.901 571.983 811.701 569.262 810.495 566.554C803.099 549.957 795.461 533.895 786.006 521.419C776.555 508.948 765.314 500.09 750.718 497.847C734.954 495.424 723.128 501.93 713.237 512.963C703.331 524.012 695.398 539.568 687.44 555.176L687.429 555.196C679.486 570.776 671.516 586.407 661.544 597.527C651.554 608.668 639.521 615.315 623.475 612.849C607.449 610.386 595.455 600.064 585.49 585.886C575.535 571.721 567.573 553.661 559.629 535.639L559.615 535.607C551.658 517.558 543.718 499.55 533.798 485.441C523.881 471.337 512.017 461.176 496.231 458.754L496.273 458.481L496.231 458.754C480.467 456.331 468.641 462.836 458.75 473.868C448.844 484.916 440.911 500.469 432.953 516.077L432.941 516.099C424.998 531.677 417.029 547.306 407.057 558.426C397.067 569.568 385.034 576.218 368.988 573.756Z" fill="white" stroke="#23195F" stroke-width="0.644233"/>
<path d="M30.922 550.382C22.5137 536.06 12.8205 524.362 0.323947 518.228V581.772C13.1136 587.964 22.9602 599.865 31.4468 614.331C38.6569 626.62 44.9048 640.797 51.1435 654.952C52.2832 657.538 53.4227 660.123 54.5676 662.696C61.9856 679.367 69.6349 695.521 79.1068 708.074C88.575 720.622 99.8398 729.538 114.482 731.789C130.25 734.212 142.078 727.706 151.971 716.673C161.879 705.624 169.813 690.068 177.771 674.46L177.787 674.43C185.729 658.853 193.696 643.227 203.664 632.109C213.653 620.968 225.682 614.321 241.725 616.787C257.754 619.25 269.751 629.571 279.718 643.747C289.679 657.915 297.643 675.98 305.59 694.007L305.597 694.023C313.553 712.07 321.493 730.078 331.411 744.187C341.326 758.292 353.187 768.456 368.969 770.881C384.744 773.304 396.579 766.8 406.476 755.768C416.388 744.721 424.325 729.167 432.285 713.561L432.306 713.521C440.248 697.95 448.215 682.33 458.181 671.217C468.17 660.077 480.2 653.431 496.243 655.897C512.268 658.356 524.262 668.674 534.227 682.85C544.184 697.015 552.146 715.077 560.092 733.101L560.103 733.126C568.059 751.175 576 769.184 585.92 783.295C595.837 797.401 607.7 807.566 623.486 809.992C639.25 812.415 651.076 805.909 660.967 794.876C670.873 783.826 678.806 768.271 686.764 752.663L686.775 752.643C694.718 737.063 702.688 721.432 712.66 710.312C722.651 699.171 734.683 692.524 750.73 694.99C765.554 697.268 776.93 706.27 786.441 718.83C795.947 731.384 803.614 747.524 811.012 764.13C812.21 766.82 813.401 769.522 814.592 772.224C820.76 786.213 826.918 800.181 834.002 812.335C842.35 826.657 851.957 838.41 864.323 844.687V781.148C851.673 774.798 841.919 762.833 833.495 748.36C826.414 736.194 820.254 722.22 814.103 708.266C812.902 705.542 811.702 702.819 810.495 700.11C803.099 683.511 795.461 667.449 786.006 654.973C776.555 642.501 765.314 633.644 750.718 631.401C734.954 628.982 723.128 635.49 713.237 646.524C703.331 657.574 695.398 673.129 687.44 688.736L687.431 688.753C679.487 704.333 671.517 719.963 661.544 731.082C651.554 742.222 639.521 748.868 623.475 746.402C607.449 743.939 595.455 733.619 585.49 719.442C575.534 705.278 567.572 687.218 559.627 669.196L559.615 669.167C551.658 651.119 543.718 633.112 533.798 619.002C523.881 604.897 512.017 594.734 496.231 592.308C480.467 589.885 468.641 596.391 458.75 607.424C448.844 618.473 440.911 634.028 432.953 649.637L432.943 649.657C424.999 665.236 417.029 680.867 407.057 691.987C397.067 703.128 385.034 709.775 368.988 707.31C352.962 704.847 340.968 694.526 331.003 680.349C321.047 666.185 313.085 648.125 305.14 630.102L305.128 630.074C297.171 612.027 289.231 594.019 279.311 579.909C269.394 565.804 257.53 555.641 241.744 553.215C225.972 550.792 214.141 557.297 204.246 568.329C194.336 579.378 186.4 594.932 178.441 610.54L178.422 610.577C170.48 626.15 162.513 641.773 152.547 652.89C142.558 664.031 130.528 670.68 114.485 668.217C99.6021 665.93 88.1938 656.868 78.6602 644.235C69.1304 631.607 61.4493 615.378 54.0278 598.702C52.883 596.13 51.7444 593.547 50.6061 590.965C44.359 576.794 38.1213 562.644 30.922 550.382Z" fill="white" stroke="#23195F" stroke-width="0.644233"/>
<path d="M114.482 865.349L114.482 865.349C130.25 867.772 142.078 861.267 151.971 850.236C161.879 839.188 169.813 823.635 177.771 808.029L177.787 807.999C185.729 792.424 193.696 776.8 203.664 765.684C213.653 754.545 225.682 747.899 241.725 750.365C255.635 752.499 266.51 760.555 275.656 771.914C284.797 783.268 292.23 797.946 299.254 813.371C301.396 818.075 303.5 822.847 305.603 827.617C310.401 838.503 315.195 849.378 320.428 859.4C327.952 873.813 336.361 886.415 346.945 894.7C353.384 899.733 360.617 903.183 368.964 904.465L368.964 904.465C381.972 906.47 392.304 902.386 401.063 894.711L401.063 894.711C409.52 887.317 416.524 876.584 423.067 864.73C426.216 859.025 429.254 853.068 432.295 847.106L432.647 846.417C435.804 840.227 438.969 834.042 442.264 828.149C448.85 816.368 455.972 805.723 464.627 798.509C473.296 791.284 483.505 787.502 496.232 789.457C516.51 792.574 530.334 808.268 541.765 828.45C547.483 838.546 552.614 849.787 557.657 861.174C558.471 863.01 559.283 864.851 560.094 866.691C564.286 876.201 568.474 885.701 572.953 894.632H682.444C683.891 891.844 685.326 889.029 686.763 886.212C693.981 872.059 701.217 857.87 709.944 847.062C720.459 834.04 733.19 825.862 750.719 828.55C765.116 830.756 776.264 839.307 785.606 851.302C794.908 863.245 802.441 878.629 809.625 894.632H841.792C834.073 884.286 827.568 871.583 821.418 858.222C818.934 852.826 816.51 847.327 814.087 841.83C810.403 833.474 806.723 825.125 802.839 817.154C789.96 790.716 774.971 768.71 750.708 764.978C734.944 762.555 723.118 769.061 713.227 780.094C703.321 791.143 695.388 806.699 687.43 822.307L687.42 822.326C679.476 837.906 671.506 853.538 661.534 864.658C651.544 875.799 639.511 882.446 623.464 879.98C607.439 877.517 595.445 867.195 585.48 853.017C575.524 838.852 567.563 820.791 559.618 802.769L559.604 802.738C551.648 784.689 543.708 766.681 533.787 752.572C523.87 738.468 512.007 728.307 496.221 725.886C480.457 723.463 468.631 729.967 458.74 740.999C448.834 752.047 440.901 767.601 432.943 783.208L432.931 783.231C424.988 798.809 417.018 814.438 407.047 825.558C397.057 836.7 385.024 843.349 368.977 840.887L369.026 840.569L368.977 840.887C352.952 838.424 340.958 828.103 330.993 813.924C321.037 799.758 313.075 781.696 305.13 763.671L305.117 763.643C297.161 745.593 289.221 727.583 279.3 713.472C269.383 699.366 257.52 689.201 241.734 686.775C225.962 684.352 214.131 690.858 204.235 701.891C194.326 712.941 186.39 728.496 178.431 744.104L178.413 744.14C170.471 759.714 162.503 775.339 152.537 786.455C142.548 797.596 130.518 804.243 114.475 801.777C99.5945 799.491 88.1884 790.429 78.6566 777.795C69.1286 765.167 61.449 748.938 54.0284 732.262C52.8848 729.692 51.7473 727.111 50.6101 724.531C44.3627 710.357 38.1245 696.204 30.924 683.939C22.5156 669.617 12.8217 657.918 0.323947 651.782V715.344C13.1135 721.536 22.9602 733.437 31.4468 747.903C38.6565 760.191 44.9041 774.366 51.1424 788.52C52.2825 791.107 53.4223 793.693 54.5676 796.267C61.9855 812.936 69.6349 829.089 79.1068 841.641C88.575 854.187 99.8398 863.102 114.482 865.349Z" fill="white" stroke="#23195F" stroke-width="0.644233"/>
<path d="M466.122 867.538C457.9 874.043 451.044 883.699 444.713 894.63H539.277C528.28 876.193 515.049 862.317 496.228 859.439L496.228 859.439C484.188 857.592 474.453 860.949 466.122 867.538Z" fill="white" stroke="#23195F" stroke-width="0.644233"/>
<path d="M241.725 883.918L241.726 883.918C250.641 885.295 258.298 889.09 265.075 894.63H303.993C296.253 877.094 288.442 859.775 278.725 846.213C268.927 832.539 257.222 822.726 241.744 820.346C222.999 817.465 209.811 827.194 198.833 842.163C193.344 849.649 188.419 858.43 183.64 867.573C181.892 870.915 180.164 874.307 178.434 877.702C175.522 883.417 172.608 889.137 169.598 894.63H208.223C217.298 886.342 228.055 881.823 241.725 883.918Z" fill="white" stroke="#23195F" stroke-width="0.644233"/>
<path d="M38.5325 894.63H67.9827C62.6584 885.003 57.8293 874.41 53.0776 863.685C52.2551 861.829 51.435 859.968 50.615 858.108C46.617 849.04 42.6223 839.979 38.3752 831.412C28.2277 810.943 16.6795 793.386 0.32407 785.359V848.903C16.8225 856.896 28.4218 874.365 38.5325 894.63Z" fill="white" stroke="#23195F" stroke-width="0.644233"/>
<path d="M1525.45 -49.0249L1525.45 -49.0246C1535.92 -43.397 1544.4 -33.8048 1551.83 -22.0627C1558.99 -10.7375 1565.16 2.55524 1571.19 16.1459C1572.18 18.3649 1573.16 20.5919 1574.14 22.8195C1579.17 34.2273 1584.21 45.6496 1589.75 56.084C1599.04 73.6218 1609.79 88.4447 1624.4 95.7756V159.332C1610.14 152.075 1599.53 137.544 1590.32 120.176L1590.04 120.327L1590.32 120.176C1584.77 109.729 1579.72 98.2853 1574.67 86.8297L1574.1 85.5431C1568.86 73.6641 1563.6 61.8123 1557.74 51.1143C1546.03 29.7316 1531.92 12.8599 1510.81 9.61768L1510.76 9.93605L1510.81 9.61766C1494.76 7.15633 1482.73 13.8056 1472.74 24.9474C1462.77 36.0675 1454.8 51.6965 1446.85 67.2743L1446.84 67.2971C1438.88 82.9044 1430.95 98.4582 1421.05 109.506C1411.15 120.538 1399.33 127.042 1383.56 124.619L1383.52 124.938L1383.56 124.619C1369.44 122.451 1358.45 114.084 1349.19 102.239C1339.93 90.389 1332.41 75.086 1325.21 59.0948C1323.52 55.3429 1321.85 51.5529 1320.18 47.7615C1314.74 35.4065 1309.28 23.0365 1303.19 11.9227C1295.23 -2.60199 1286.16 -15.0302 1274.54 -22.5115C1269.08 -26.0269 1263.05 -28.4541 1256.32 -29.4809M1525.45 -49.0249L1274.36 -22.2406C1268.94 -25.7334 1262.96 -28.143 1256.27 -29.1625C1244.92 -30.9002 1235.61 -28.0562 1227.58 -22.2406M1525.45 -49.0249C1520.96 -51.4468 1516.1 -53.1432 1510.8 -53.9541L1510.85 -54.2725L1510.8 -53.9541C1500.89 -55.4772 1492.54 -53.4723 1485.27 -49.0334L1485.27 -49.033C1475.86 -43.3224 1468.2 -33.5533 1461.26 -22.0682L1461.26 -22.068C1456.45 -14.1181 1451.98 -5.36909 1447.52 3.39259C1446.89 4.61914 1446.26 5.84593 1445.64 7.07082C1440.54 17.0391 1435.36 26.8792 1429.6 35.3909C1418.07 52.4123 1404.12 64.2103 1383.56 61.0477C1366.66 58.4445 1354.24 47.1067 1343.96 31.7228C1334.74 17.9429 1327.22 0.869797 1319.7 -16.1745C1318.83 -18.1532 1317.96 -20.1315 1317.08 -22.1042L1317.08 -22.1045C1312.98 -31.3667 1308.82 -40.507 1304.34 -48.9863H1199.89C1197.61 -44.6878 1195.37 -40.2888 1193.12 -35.8886L1192.98 -35.6124C1190.67 -31.0629 1188.35 -26.5144 1185.98 -22.0828C1179.04 -9.10243 1171.67 2.94971 1162.61 11.2337C1153.53 19.5311 1142.76 24.0547 1129.08 21.955L1129.08 21.955C1107.14 18.5699 1092.75 0.487259 1080.77 -22.0838L1080.77 -22.0843C1076.28 -30.5932 1072.1 -39.7289 1067.99 -48.9921H1034.1C1040.52 -41.4916 1046.1 -32.3393 1051.24 -22.3885C1056.33 -12.5614 1061.01 -1.94231 1065.69 8.6651C1066.15 9.72839 1066.62 10.7916 1067.09 11.8538C1072.24 23.518 1077.43 35.0717 1083.21 45.4715C1094.77 66.2833 1108.63 82.3824 1129.05 85.5267C1142.02 87.5201 1152.32 83.4788 1161.07 75.8615C1169.83 68.2318 1177.03 57.0172 1183.77 44.6785C1186.69 39.3215 1189.53 33.7599 1192.37 28.1936C1192.8 27.352 1193.23 26.5101 1193.66 25.6689C1196.93 19.2668 1200.22 12.8999 1203.67 6.88588C1210.56 -5.13594 1218.1 -15.7825 1227.39 -22.5015M1525.45 -49.0249L1227.58 -22.2406M1256.32 -29.4809L1256.27 -29.1749L1256.32 -29.4809C1256.32 -29.4809 1256.32 -29.4809 1256.32 -29.4809ZM1256.32 -29.4809C1244.88 -31.2323 1235.48 -28.3628 1227.39 -22.5015M1227.39 -22.5015C1227.39 -22.5015 1227.39 -22.5016 1227.39 -22.5017L1227.58 -22.2406M1227.39 -22.5015L1227.58 -22.2406" fill="white" stroke="#23195F" stroke-width="0.644233"/>
<path d="M874.58 -17.1602L874.58 -17.1603C869.339 -17.9651 864.52 -19.5985 860.074 -21.9551C849.401 -27.587 840.811 -37.2375 833.343 -48.9914H802.891C805.717 -42.9135 808.47 -36.6712 811.222 -30.4292C813.263 -25.7983 815.305 -21.1674 817.377 -16.6039C824.423 -1.10553 831.842 13.6038 840.95 24.9685C850.054 36.3282 860.825 44.3222 874.576 46.4346C892.286 49.1498 905.032 40.6008 915.646 27.0177C923.927 16.4201 930.874 2.80487 937.837 -10.8437C939.811 -14.7125 941.786 -18.584 943.794 -22.3902L944.052 -22.2538L943.794 -22.3903C948.899 -32.0663 954.198 -41.3174 960.215 -48.9914H924.56C917.572 -37.4952 909.816 -27.6784 900.21 -21.9631C892.88 -17.5989 884.498 -15.6427 874.58 -17.1602Z" fill="white" stroke="#23195F" stroke-width="0.644233"/>
<path d="M791.011 -1.41428C782.603 -15.7357 772.91 -27.4338 760.413 -33.5682V29.9762C773.203 36.1683 783.049 48.0694 791.536 62.5349C798.746 74.8246 804.994 89.001 811.233 103.156C812.373 105.742 813.512 108.328 814.657 110.901C822.075 127.571 829.724 143.725 839.196 156.278C848.664 168.826 859.929 177.743 874.571 179.993C890.339 182.416 902.168 175.91 912.061 164.877C921.968 153.828 929.902 138.272 937.861 122.664L937.876 122.634C945.818 107.057 953.786 91.4309 963.753 80.3134C973.742 69.1724 985.771 62.5253 1001.81 64.991C1017.84 67.4541 1029.84 77.7758 1039.81 91.9538C1049.77 106.122 1057.73 124.188 1065.68 142.214L1065.69 142.233C1073.64 160.282 1081.58 178.29 1091.5 192.399C1101.42 206.503 1113.28 216.664 1129.06 219.086C1144.83 221.509 1156.67 215.004 1166.57 203.972C1176.48 192.925 1184.41 177.372 1192.37 161.765L1192.4 161.725C1200.34 146.154 1208.3 130.534 1218.27 119.421C1228.26 108.281 1240.29 101.635 1256.33 104.101C1272.36 106.564 1284.35 116.885 1294.32 131.061C1304.27 145.226 1312.23 163.286 1320.18 181.309L1320.19 181.337C1328.15 199.384 1336.09 217.392 1346.01 231.502C1355.93 245.607 1367.79 255.77 1383.58 258.196C1399.34 260.619 1411.17 254.113 1421.06 243.08C1430.96 232.031 1438.9 216.475 1446.85 200.867L1446.86 200.847C1454.81 185.267 1462.78 169.636 1472.75 158.516C1482.74 147.375 1494.77 140.728 1510.82 143.194C1525.64 145.472 1537.02 154.475 1546.53 167.034C1556.04 179.588 1563.7 195.728 1571.1 212.334C1572.3 215.024 1573.49 217.727 1574.68 220.428C1580.85 234.417 1587.01 248.385 1594.09 260.539C1602.44 274.861 1612.05 286.614 1624.41 292.892V229.352C1611.76 223.002 1602.01 211.037 1593.58 196.564C1586.5 184.399 1580.34 170.428 1574.19 156.476C1572.99 153.751 1571.79 151.026 1570.58 148.316C1563.19 131.719 1555.55 115.658 1546.1 103.184C1536.64 90.715 1525.4 81.861 1510.81 79.6222C1495.04 77.1991 1483.22 83.7039 1473.33 94.7352C1463.42 105.783 1455.49 121.336 1447.53 136.942L1447.52 136.962C1439.58 152.54 1431.61 168.169 1421.63 179.287C1411.64 190.426 1399.61 197.072 1383.56 194.607C1367.54 192.148 1355.54 181.829 1345.58 167.654C1335.62 153.489 1327.66 135.427 1319.72 117.403L1319.7 117.377C1311.75 99.3288 1303.81 81.3195 1293.89 67.2085C1283.97 53.1022 1272.11 42.9376 1256.32 40.512C1240.56 38.089 1228.73 44.5949 1218.84 55.6278C1208.93 66.6771 1201 82.2324 1193.04 97.8409L1193.03 97.8608C1185.09 113.441 1177.12 129.071 1167.15 140.191C1157.16 151.332 1145.12 157.98 1129.08 155.514C1113.05 153.051 1101.06 142.73 1091.09 128.553C1081.14 114.389 1073.17 96.3288 1065.23 78.3064L1065.22 78.2781C1057.26 60.2307 1049.32 42.2229 1039.4 28.1134C1029.48 14.0084 1017.62 3.84491 1001.83 1.41928C986.062 -1.00378 974.23 5.50113 964.335 16.5326C954.425 27.5806 946.49 43.1343 938.53 58.7416L938.511 58.7799C930.569 74.3525 922.602 89.975 912.636 101.091C902.647 112.233 890.618 118.882 874.575 116.421C859.691 114.135 848.283 105.073 838.75 92.4394C829.22 79.8111 821.539 63.5818 814.117 46.9062C812.972 44.3338 811.834 41.7509 810.695 39.1687C804.448 24.9977 798.211 10.848 791.011 -1.41428Z" fill="white" stroke="#23195F" stroke-width="0.644233"/>
<path d="M791.011 132.142C782.603 117.82 772.91 106.122 760.413 99.9879V163.55C773.203 169.742 783.049 181.643 791.536 196.108C798.746 208.398 804.994 222.574 811.233 236.73C812.373 239.316 813.512 241.901 814.657 244.474C822.075 261.144 829.724 277.298 839.196 289.851C848.664 302.399 859.929 311.316 874.571 313.566C890.339 315.985 902.167 309.477 912.061 298.443C921.968 287.393 929.902 271.838 937.861 256.231L937.875 256.204C945.817 240.627 953.785 225.001 963.753 213.884C973.742 202.745 985.771 196.099 1001.81 198.564C1017.84 201.028 1029.84 211.348 1039.81 225.525C1049.77 239.693 1057.73 257.758 1065.68 275.785L1065.69 275.8C1073.64 293.848 1081.58 311.855 1091.5 325.965C1101.42 340.07 1113.28 350.233 1129.06 352.659C1144.83 355.082 1156.67 348.576 1166.57 337.543C1176.48 326.494 1184.41 310.939 1192.37 295.33L1192.39 295.29C1200.34 279.717 1208.3 264.095 1218.27 252.98C1228.26 241.839 1240.29 235.191 1256.33 237.657C1272.36 240.12 1284.35 250.441 1294.32 264.618C1304.27 278.782 1312.23 296.842 1320.18 314.865L1320.19 314.893C1328.15 332.94 1336.09 350.948 1346.01 365.058C1355.93 379.163 1367.79 389.326 1383.58 391.752C1399.34 394.175 1411.17 387.67 1421.06 376.638C1430.96 365.59 1438.9 350.037 1446.85 334.429L1446.87 334.407C1454.81 318.829 1462.78 303.2 1472.75 292.08C1482.74 280.938 1494.77 274.289 1510.82 276.75C1525.64 279.028 1537.02 288.031 1546.53 300.59C1556.04 313.145 1563.7 329.285 1571.1 345.893C1572.3 348.584 1573.49 351.288 1574.68 353.991C1580.85 367.979 1587.01 381.948 1594.09 394.102C1602.44 408.427 1612.05 420.183 1624.41 426.465V362.925C1611.76 356.577 1602.01 344.613 1593.58 330.14C1586.5 317.973 1580.34 303.999 1574.19 290.044C1572.99 287.321 1571.79 284.598 1570.58 281.89C1563.19 265.291 1555.55 249.228 1546.1 236.751C1536.64 224.279 1525.4 215.421 1510.81 213.178C1495.04 210.755 1483.22 217.261 1473.33 228.294C1463.42 239.343 1455.49 254.899 1447.53 270.507L1447.52 270.528C1439.58 286.107 1431.61 301.738 1421.63 312.858C1411.64 323.999 1399.61 330.646 1383.56 328.18C1367.54 325.717 1355.54 315.396 1345.58 301.22C1335.62 287.055 1327.66 268.996 1319.72 250.974L1319.7 250.944C1311.75 232.897 1303.81 214.889 1293.89 200.78C1283.97 186.675 1272.11 176.511 1256.32 174.085C1240.56 171.662 1228.73 178.167 1218.84 189.199C1208.93 200.247 1201 215.801 1193.04 231.408L1193.03 231.43C1185.09 247.008 1177.12 262.637 1167.15 273.758C1157.16 284.899 1145.12 291.549 1129.08 289.087L1129.13 288.769L1129.08 289.087C1113.05 286.624 1101.06 276.303 1091.09 262.124C1081.14 247.958 1073.17 229.896 1065.23 211.872L1065.22 211.843C1057.26 193.793 1049.32 175.783 1039.4 161.672C1029.48 147.566 1017.62 137.401 1001.83 134.975C986.062 132.552 974.23 139.058 964.335 150.091C954.425 161.14 946.49 176.696 938.53 192.304L938.512 192.34C930.57 207.914 922.603 223.539 912.636 234.655C902.647 245.796 890.618 252.443 874.575 249.977C859.691 247.691 848.283 238.629 838.75 225.996C829.22 213.367 821.539 197.138 814.117 180.462C812.972 177.89 811.834 175.307 810.695 172.725C804.448 158.554 798.211 144.404 791.011 132.142Z" fill="white" stroke="#23195F" stroke-width="0.644233"/>
<path d="M791.011 265.711C782.603 251.389 772.91 239.691 760.413 233.557V297.101C773.203 303.293 783.049 315.194 791.536 329.66C798.746 341.95 804.994 356.126 811.233 370.281C812.373 372.867 813.512 375.453 814.657 378.026C822.075 394.696 829.724 410.85 839.196 423.403C848.664 435.951 859.929 444.867 874.571 447.118C890.339 449.541 902.168 443.035 912.061 432.002C921.968 420.953 929.902 405.397 937.861 389.789L937.876 389.759C945.818 374.182 953.786 358.556 963.753 347.438C973.742 336.297 985.771 329.65 1001.81 332.116C1017.84 334.579 1029.84 344.9 1039.81 359.076C1049.77 373.244 1057.73 391.31 1065.68 409.336L1065.69 409.352C1073.64 427.399 1081.58 445.407 1091.5 459.516C1101.42 473.621 1113.28 483.785 1129.06 486.211C1144.83 488.634 1156.67 482.129 1166.57 471.097C1176.48 460.05 1184.41 444.497 1192.37 428.89L1192.4 428.85C1200.34 413.279 1208.3 397.659 1218.27 386.546C1228.26 375.406 1240.29 368.76 1256.33 371.226C1272.36 373.685 1284.35 384.003 1294.32 398.179C1304.27 412.344 1312.24 430.406 1320.18 448.43L1320.19 448.455C1328.15 466.504 1336.09 484.513 1346.01 498.624C1355.93 512.73 1367.79 522.895 1383.58 525.321C1399.34 527.744 1411.17 521.238 1421.06 510.205C1430.96 499.156 1438.9 483.6 1446.85 467.992L1446.86 467.972C1454.81 452.392 1462.78 436.761 1472.75 425.641C1482.74 414.5 1494.77 407.853 1510.82 410.319C1525.64 412.597 1537.02 421.6 1546.53 434.159C1556.04 446.713 1563.7 462.853 1571.1 479.459C1572.3 482.149 1573.49 484.852 1574.68 487.553C1580.85 501.542 1587.01 515.51 1594.09 527.664C1602.44 541.986 1612.05 553.739 1624.41 560.017V496.477C1611.76 490.127 1602.01 478.162 1593.58 463.689C1586.5 451.523 1580.34 437.549 1574.19 423.595C1572.99 420.871 1571.79 418.148 1570.58 415.439C1563.19 398.84 1555.55 382.779 1546.1 370.302C1536.64 357.83 1525.4 348.973 1510.81 346.73C1495.04 344.311 1483.22 350.819 1473.33 361.853C1463.42 372.903 1455.49 388.458 1447.53 404.065L1447.52 404.082C1439.58 419.662 1431.61 435.292 1421.63 446.412C1411.64 457.551 1399.61 464.197 1383.56 461.732C1367.54 459.273 1355.54 448.954 1345.58 434.779C1335.62 420.614 1327.66 402.552 1319.72 384.528L1319.7 384.502C1311.75 366.454 1303.81 348.444 1293.89 334.334C1283.97 320.227 1272.11 310.063 1256.32 307.637C1240.56 305.214 1228.73 311.72 1218.84 322.753C1208.93 333.802 1201 349.357 1193.04 364.966L1193.03 364.986C1185.09 380.566 1177.12 396.196 1167.15 407.316C1157.16 418.457 1145.12 425.105 1129.08 422.639C1113.05 420.176 1101.06 409.855 1091.09 395.678C1081.14 381.514 1073.17 363.454 1065.23 345.432L1065.22 345.403C1057.26 327.356 1049.32 309.348 1039.4 295.238C1029.48 281.133 1017.62 270.97 1001.83 268.544C986.062 266.121 974.23 272.626 964.335 283.658C954.425 294.706 946.49 310.259 938.53 325.867L938.511 325.905C930.569 341.478 922.602 357.1 912.636 368.216C902.647 379.358 890.618 386.007 874.575 383.546L874.623 383.228L874.575 383.546C859.691 381.26 848.283 372.198 838.75 359.564C829.22 346.936 821.539 330.707 814.117 314.031C812.972 311.459 811.834 308.876 810.695 306.294C804.448 292.123 798.211 277.973 791.011 265.711Z" fill="white" stroke="#23195F" stroke-width="0.644233"/>
<path d="M1129.08 556.212L1129.13 555.894L1129.08 556.212C1113.05 553.749 1101.06 543.428 1091.09 529.249C1081.14 515.083 1073.17 497.021 1065.23 478.997L1065.22 478.968C1057.26 460.918 1049.32 442.908 1039.4 428.797C1029.48 414.691 1017.62 404.526 1001.83 402.1C986.062 399.677 974.23 406.183 964.335 417.216C954.425 428.266 946.49 443.821 938.53 459.429L938.512 459.465C930.57 475.039 922.603 490.664 912.636 501.78C902.647 512.921 890.618 519.568 874.575 517.102C859.691 514.816 848.283 505.754 838.75 493.121C829.22 480.493 821.539 464.264 814.117 447.589C812.973 445.019 811.835 442.438 810.697 439.857C804.45 425.686 798.211 411.536 791.011 399.274C782.603 384.955 772.91 373.26 760.413 367.13V430.675C773.203 436.867 783.049 448.768 791.536 463.233C798.746 475.523 804.994 489.699 811.233 503.855C812.373 506.441 813.512 509.026 814.657 511.599C822.075 528.269 829.724 544.423 839.196 556.976C848.664 569.524 859.929 578.441 874.571 580.691C890.339 583.11 902.167 576.602 912.061 565.568C921.968 554.518 929.902 538.963 937.861 523.356L937.875 523.329C945.817 507.752 953.785 492.126 963.753 481.009C973.742 469.87 985.771 463.224 1001.81 465.689C1017.84 468.148 1029.84 478.467 1039.81 492.642C1049.77 506.811 1057.73 524.878 1065.68 542.907L1065.69 542.919C1073.64 560.967 1081.58 578.977 1091.5 593.088C1101.42 607.194 1113.28 617.358 1129.06 619.784C1144.83 622.207 1156.67 615.701 1166.57 604.668C1176.48 593.619 1184.41 578.064 1192.37 562.455L1192.4 562.415C1200.34 546.842 1208.3 531.22 1218.27 520.105C1228.26 508.964 1240.29 502.316 1256.33 504.782C1272.36 507.245 1284.35 517.566 1294.32 531.743C1304.27 545.907 1312.23 563.967 1320.18 581.989L1320.19 582.018C1328.15 600.065 1336.09 618.073 1346.01 632.183C1355.93 646.288 1367.79 656.451 1383.58 658.877C1399.34 661.3 1411.17 654.795 1421.06 643.763C1430.96 632.715 1438.9 617.162 1446.85 601.554L1446.87 601.532C1454.81 585.954 1462.78 570.325 1472.75 559.205C1482.74 548.063 1494.77 541.414 1510.82 543.875C1525.64 546.153 1537.02 555.156 1546.53 567.715C1556.04 580.27 1563.7 596.41 1571.1 613.018C1572.3 615.709 1573.49 618.413 1574.68 621.116C1580.85 635.104 1587.01 649.073 1594.09 661.227C1602.44 675.552 1612.05 687.308 1624.41 693.59V630.033C1611.76 623.687 1602.01 611.726 1593.58 597.255C1586.5 585.09 1580.34 571.116 1574.19 557.162C1572.99 554.439 1571.79 551.718 1570.58 549.01C1563.19 532.413 1555.55 516.351 1546.1 503.875C1536.64 491.404 1525.4 482.546 1510.81 480.303C1495.04 477.88 1483.22 484.386 1473.33 495.419C1463.42 506.468 1455.49 522.024 1447.53 537.632L1447.52 537.653C1439.58 553.232 1431.61 568.863 1421.63 579.983C1411.64 591.124 1399.61 597.771 1383.56 595.305C1367.54 592.842 1355.54 582.52 1345.58 568.342C1335.62 554.177 1327.66 536.118 1319.72 518.095L1319.7 518.063C1311.75 500.014 1303.81 482.006 1293.89 467.897C1283.97 453.793 1272.11 443.632 1256.32 441.211L1256.36 440.937L1256.32 441.21C1240.56 438.787 1228.73 445.292 1218.84 456.324C1208.93 467.372 1201 482.926 1193.04 498.533L1193.03 498.555C1185.09 514.133 1177.12 529.762 1167.15 540.883C1157.16 552.024 1145.12 558.674 1129.08 556.212Z" fill="white" stroke="#23195F" stroke-width="0.644233"/>
<path d="M791.011 532.838C782.603 518.516 772.91 506.818 760.413 500.684V564.228C773.203 570.42 783.049 582.321 791.536 596.787C798.746 609.077 804.994 623.253 811.233 637.408C812.373 639.994 813.512 642.579 814.657 645.152C822.075 661.823 829.724 677.977 839.196 690.53C848.664 703.078 859.929 711.994 874.571 714.245C890.339 716.668 902.168 710.162 912.061 699.129C921.968 688.08 929.902 672.524 937.861 656.916L937.876 656.886C945.818 641.309 953.786 625.683 963.753 614.565C973.742 603.424 985.771 596.777 1001.81 599.243C1017.84 601.706 1029.84 612.027 1039.81 626.203C1049.77 640.371 1057.73 658.437 1065.68 676.463L1065.69 676.479C1073.64 694.526 1081.58 712.534 1091.5 726.643C1101.42 740.748 1113.28 750.912 1129.06 753.337C1144.83 755.761 1156.67 749.256 1166.57 738.224C1176.48 727.177 1184.41 711.624 1192.37 696.017L1192.4 695.977C1200.34 680.406 1208.3 664.786 1218.27 653.673C1228.26 642.533 1240.29 635.887 1256.33 638.353C1272.36 640.812 1284.35 651.13 1294.32 665.306C1304.27 679.471 1312.24 697.533 1320.18 715.557L1320.19 715.582C1328.15 733.631 1336.09 751.64 1346.01 765.751C1355.93 779.857 1367.79 790.022 1383.58 792.448C1399.34 794.871 1411.17 788.365 1421.06 777.332C1430.96 766.283 1438.9 750.727 1446.85 735.119L1446.86 735.099C1454.81 719.519 1462.78 703.888 1472.75 692.768C1482.74 681.627 1494.77 674.98 1510.82 677.446C1525.64 679.724 1537.02 688.727 1546.53 701.286C1556.04 713.84 1563.7 729.98 1571.1 746.586C1572.3 749.276 1573.49 751.978 1574.68 754.68C1580.85 768.669 1587.01 782.637 1594.09 794.791C1602.44 809.113 1612.05 820.866 1624.41 827.144V763.604C1611.76 757.254 1602.01 745.289 1593.58 730.816C1586.5 718.65 1580.34 704.676 1574.19 690.722C1572.99 687.998 1571.79 685.275 1570.58 682.566C1563.19 665.967 1555.55 649.905 1546.1 637.429C1536.64 624.957 1525.4 616.1 1510.81 613.857C1495.04 611.438 1483.22 617.946 1473.33 628.98C1463.42 640.03 1455.49 655.585 1447.53 671.192L1447.52 671.209C1439.58 686.789 1431.61 702.419 1421.63 713.539C1411.64 724.678 1399.61 731.324 1383.56 728.859C1367.54 726.395 1355.54 716.075 1345.58 701.898C1335.62 687.734 1327.66 669.674 1319.72 651.652L1319.7 651.623C1311.75 633.575 1303.81 615.568 1293.89 601.458C1283.97 587.353 1272.11 577.19 1256.32 574.764C1240.56 572.341 1228.73 578.847 1218.84 589.88C1208.93 600.929 1201 616.484 1193.04 632.093L1193.03 632.113C1185.09 647.693 1177.12 663.323 1167.15 674.443C1157.16 685.584 1145.12 692.232 1129.08 689.766C1113.05 687.303 1101.06 676.982 1091.09 662.805C1081.14 648.641 1073.17 630.581 1065.23 612.558L1065.22 612.53C1057.26 594.483 1049.32 576.475 1039.4 562.365C1029.48 548.26 1017.62 538.097 1001.83 535.671C986.062 533.248 974.23 539.753 964.335 550.785C954.425 561.834 946.49 577.388 938.53 592.996L938.511 593.033C930.569 608.606 922.602 624.229 912.636 635.346C902.647 646.487 890.618 653.136 874.575 650.673C859.691 648.387 848.283 639.325 838.75 626.691C829.22 614.063 821.539 597.834 814.117 581.158C812.972 578.586 811.834 576.003 810.695 573.421C804.448 559.25 798.211 545.1 791.011 532.838Z" fill="white" stroke="#23195F" stroke-width="0.644233"/>
<path d="M1129.05 886.921L1129.05 886.921C1142.06 888.926 1152.39 884.842 1161.15 877.167L1161.15 877.167C1169.61 869.773 1176.61 859.04 1183.16 847.186C1186.31 841.481 1189.34 835.524 1192.38 829.562L1192.74 828.873C1195.89 822.684 1199.06 816.498 1202.35 810.605C1208.94 798.824 1216.06 788.179 1224.72 780.965C1233.39 773.74 1243.59 769.958 1256.32 771.913C1276.6 775.03 1290.42 790.724 1301.85 810.906C1307.57 821.002 1312.7 832.243 1317.75 843.63C1318.56 845.466 1319.37 847.306 1320.18 849.145C1324.37 858.656 1328.56 868.157 1333.04 877.088H1442.53C1443.98 874.3 1445.42 871.485 1446.85 868.668C1454.07 854.515 1461.31 840.326 1470.03 829.518C1480.55 816.496 1493.28 808.318 1510.81 811.006C1525.21 813.212 1536.35 821.763 1545.7 833.758C1555 845.701 1562.53 861.085 1569.71 877.088H1601.88C1594.16 866.742 1587.66 854.039 1581.51 840.678C1579.02 835.283 1576.6 829.784 1574.18 824.288C1570.49 815.932 1566.81 807.582 1562.93 799.61C1550.05 773.172 1535.06 751.166 1510.8 747.434C1495.03 745.011 1483.21 751.517 1473.32 762.55C1463.41 773.599 1455.48 789.155 1447.52 804.763L1447.51 804.783C1439.56 820.363 1431.6 835.994 1421.62 847.114C1411.63 858.255 1399.6 864.902 1383.55 862.436C1367.53 859.973 1355.53 849.651 1345.57 835.473C1335.61 821.309 1327.65 803.249 1319.71 785.227L1319.69 785.194C1311.74 767.145 1303.8 749.137 1293.88 735.028C1283.96 720.924 1272.1 710.763 1256.31 708.342L1256.36 708.023L1256.31 708.342C1240.55 705.919 1228.72 712.423 1218.83 723.455C1208.92 734.503 1200.99 750.057 1193.03 765.664L1193.02 765.687C1185.08 781.265 1177.11 796.894 1167.14 808.014C1157.15 819.156 1145.11 825.805 1129.07 823.343L1129.11 823.071L1129.07 823.343C1113.04 820.88 1101.05 810.559 1091.08 796.38C1081.13 782.214 1073.16 764.152 1065.22 746.128L1065.21 746.099C1057.25 728.049 1049.31 710.039 1039.39 695.928C1029.47 681.822 1017.61 671.657 1001.82 669.232C986.051 666.808 974.22 673.314 964.325 684.347C954.415 695.397 946.479 710.952 938.52 726.56L938.502 726.596C930.56 742.17 922.593 757.795 912.626 768.911C902.637 780.052 890.607 786.699 874.564 784.233C859.684 781.947 848.278 772.885 838.746 760.252C829.218 747.623 821.538 731.394 814.118 714.718C812.974 712.148 811.837 709.567 810.699 706.987C804.452 692.813 798.214 678.661 791.013 666.396C782.605 652.073 772.911 640.374 760.413 634.238V697.8C773.203 703.992 783.049 715.893 791.536 730.359C798.746 742.647 804.993 756.823 811.232 770.976C812.372 773.563 813.512 776.149 814.657 778.723C822.075 795.392 829.724 811.546 839.196 824.097C848.664 836.643 859.929 845.558 874.571 847.805L874.525 848.103L874.571 847.805C890.339 850.228 902.168 843.723 912.061 832.692C921.968 821.644 929.902 806.091 937.861 790.485L937.876 790.455C945.818 774.88 953.786 759.256 963.753 748.14C973.742 737.001 985.771 730.355 1001.81 732.821C1015.72 734.955 1026.6 743.011 1035.74 754.37C1044.89 765.724 1052.32 780.402 1059.34 795.827C1061.49 800.531 1063.59 805.303 1065.69 810.074C1070.49 820.96 1075.28 831.834 1080.52 841.857C1088.04 856.269 1096.45 868.871 1107.03 877.156C1113.47 882.189 1120.71 885.639 1129.05 886.921Z" fill="white" stroke="#23195F" stroke-width="0.644233"/>
<path d="M1226.21 849.994C1217.99 856.498 1211.13 866.155 1204.8 877.086H1299.36C1288.37 858.649 1275.14 844.772 1256.31 841.895L1256.31 841.895C1244.27 840.048 1234.54 843.404 1226.21 849.994Z" fill="white" stroke="#23195F" stroke-width="0.644233"/>
<path d="M1001.81 866.374L1001.81 866.374C1010.73 867.75 1018.39 871.545 1025.16 877.086H1064.08C1056.34 859.55 1048.53 842.231 1038.81 828.669C1029.01 814.995 1017.31 805.182 1001.83 802.802C983.087 799.921 969.898 809.65 958.921 824.618C953.431 832.104 948.506 840.886 943.727 850.028C941.98 853.371 940.252 856.763 938.522 860.157C935.61 865.872 932.695 871.592 929.686 877.086H968.31C977.386 868.798 988.143 864.278 1001.81 866.374Z" fill="white" stroke="#23195F" stroke-width="0.644233"/>
</g>
</g>
</g>
</svg>
