<svg width="390" height="844" viewBox="0 0 390 844" fill="none" xmlns="http://www.w3.org/2000/svg">
<g opacity="0.02">
<path d="M195 -745C839.516 -745 1362 -222.516 1362 422C1362 1066.52 839.516 1589 195 1589C-449.516 1589 -972 1066.52 -972 422C-972 -222.516 -449.516 -745 195 -745Z" stroke="white" stroke-width="40" stroke-linecap="round" stroke-linejoin="round"/>
<path d="M195.001 -653.719C789.103 -653.718 1270.72 -172.103 1270.72 421.999C1270.72 1016.1 789.103 1497.72 195.001 1497.72C-399.101 1497.72 -880.717 1016.1 -880.717 421.999C-880.717 -172.103 -399.101 -653.719 195.001 -653.719Z" stroke="white" stroke-width="40" stroke-linecap="round" stroke-linejoin="round"/>
<path d="M195 -562.398C738.669 -562.398 1179.4 -121.667 1179.4 422.002C1179.4 965.671 738.669 1406.4 195 1406.4C-348.669 1406.4 -789.4 965.671 -789.4 422.002C-789.4 -121.667 -348.669 -562.398 195 -562.398Z" stroke="white" stroke-width="40" stroke-linecap="round" stroke-linejoin="round"/>
<path d="M195 -471.117C688.255 -471.117 1088.12 -71.2551 1088.12 422C1088.12 915.255 688.255 1315.12 195 1315.12C-298.255 1315.12 -698.117 915.255 -698.117 422C-698.117 -71.255 -298.255 -471.117 195 -471.117Z" stroke="white" stroke-width="40" stroke-linecap="round" stroke-linejoin="round"/>
<path d="M195 -379.801C637.822 -379.801 996.801 -20.8222 996.801 422C996.801 864.822 637.822 1223.8 195 1223.8C-247.822 1223.8 -606.801 864.822 -606.801 422C-606.801 -20.8222 -247.822 -379.801 195 -379.801Z" stroke="white" stroke-width="40" stroke-linecap="round" stroke-linejoin="round"/>
<path d="M195 -288.52C587.408 -288.52 905.518 29.59 905.519 421.998C905.519 814.406 587.408 1132.52 195 1132.52C-197.408 1132.52 -515.518 814.406 -515.518 421.998C-515.517 29.5901 -197.408 -288.519 195 -288.52Z" stroke="white" stroke-width="40" stroke-linecap="round" stroke-linejoin="round"/>
<path d="M195 -197.203C536.975 -197.203 814.201 80.0228 814.201 421.998C814.201 763.973 536.975 1041.2 195 1041.2C-146.975 1041.2 -424.201 763.973 -424.201 421.998C-424.201 80.0228 -146.975 -197.203 195 -197.203Z" stroke="white" stroke-width="40" stroke-linecap="round" stroke-linejoin="round"/>
<path d="M195 -105.918C486.561 -105.918 722.919 130.439 722.919 422C722.919 713.561 486.561 949.919 195 949.919C-96.5611 949.919 -332.918 713.561 -332.918 422C-332.918 130.439 -96.561 -105.918 195 -105.918Z" stroke="white" stroke-width="40" stroke-linecap="round" stroke-linejoin="round"/>
<path d="M195 -14.6016C436.128 -14.6014 631.601 180.872 631.601 422C631.6 663.128 436.128 858.6 195 858.601C-46.1281 858.601 -241.601 663.128 -241.602 422C-241.602 180.872 -46.1282 -14.6016 195 -14.6016Z" stroke="white" stroke-width="40" stroke-linecap="round" stroke-linejoin="round"/>
<path d="M195.002 76.6797C385.716 76.6797 540.32 231.284 540.32 421.998C540.32 612.712 385.716 767.316 195.002 767.316C4.28787 767.316 -150.316 612.712 -150.316 421.998C-150.316 231.284 4.28792 76.6798 195.002 76.6797Z" stroke="white" stroke-width="40" stroke-linecap="round" stroke-linejoin="round"/>
<path d="M195 168C335.281 168 449.001 281.721 449.001 422.002C449.001 562.283 335.281 676.003 195 676.003C54.7189 676.003 -59.0018 562.283 -59.002 422.002C-59.002 281.721 54.7188 168 195 168Z" stroke="white" stroke-width="40" stroke-linecap="round" stroke-linejoin="round"/>
<path d="M195 259.281C284.867 259.281 357.719 332.133 357.719 422C357.719 511.867 284.867 584.719 195 584.719C105.133 584.719 32.2812 511.867 32.2812 422C32.2813 332.133 105.133 259.281 195 259.281Z" stroke="white" stroke-width="40" stroke-linecap="round" stroke-linejoin="round"/>
</g>
</svg>
