<svg width="1440" height="900" viewBox="0 0 1440 900" fill="none" xmlns="http://www.w3.org/2000/svg">
<g opacity="0.12">
<mask id="mask0_278_7928" style="mask-type:alpha" maskUnits="userSpaceOnUse" x="-55" y="23" width="2399" height="877">
<rect x="-54.4228" y="24.375" width="2397.54" height="875.045" fill="#23195F" stroke="#23195F" stroke-width="1.15433"/>
</mask>
<g mask="url(#mask0_278_7928)">
<g opacity="0.15">
<path d="M1216.34 931.775H1161.86C1167.9 922.635 1173.9 913.442 1180.27 904.702C1182.5 901.626 1184.78 898.619 1187.12 895.694C1201.08 878.126 1217.2 863.39 1239.03 856.185V920.445C1230.7 923.202 1223.19 927.077 1216.34 931.775Z" fill="white"/>
<path d="M960.087 931.78H808.678C817.386 921.232 826.973 911.843 838.291 904.707C849.562 897.588 862.54 892.676 878.037 891.083C900.672 888.76 917.913 894.593 932.34 904.707C942.739 911.994 951.69 921.505 960.094 931.78H960.087Z" fill="white"/>
<path d="M406.121 931.782H354.033C363.902 924.211 372.443 914.885 380.316 904.708C413.782 861.503 435.514 802.959 497.121 796.622C575.408 788.583 589.35 878 644.654 904.708C656.669 910.524 670.611 913.368 687.594 911.63C697.599 910.611 706.55 908.201 714.666 904.708C783.851 874.959 792.802 766.27 878.029 757.53C973.232 747.752 973.232 882.292 1068.46 872.531C1131.17 866.096 1152.58 805.543 1187.11 762.14C1201.05 744.572 1217.19 729.836 1239.03 722.613V786.891C1217.16 794.143 1201.05 808.937 1187.11 826.534C1167.31 851.453 1151.81 882.008 1130.34 904.702C1119.19 916.467 1106.46 926.111 1090.68 931.776C1083.92 934.215 1076.59 935.923 1068.6 936.74C1053.65 938.275 1041.04 936.253 1030.06 931.776C1015.88 926.024 1004.37 916.2 993.97 904.702C961.073 868.402 939.144 815.471 878.166 821.738C827.959 826.905 804.233 866.745 779.042 904.702C772.868 914.028 766.587 923.238 759.828 931.776H602.928C595.836 922.885 589.054 913.559 581.962 904.702C561.216 878.747 537.93 856.666 497.303 860.831C464.717 864.191 443.289 882.141 425.365 904.702C418.599 913.258 412.318 922.45 406.129 931.776L406.121 931.782Z" fill="white"/>
<path d="M8.29785 931.779C15.7845 921.051 22.8994 909.82 30.2951 898.936C51.3896 867.935 74.7901 839.97 116.266 835.712C169.757 830.233 193.196 870.293 220.358 904.705C228.171 914.599 236.272 924.029 245.504 931.779H190.875C180.392 920.229 168.794 910.405 154.458 904.705C143.581 900.378 131.148 898.438 116.418 899.944C108.628 900.743 101.467 902.365 94.8606 904.705C78.924 910.324 66.0822 919.98 54.894 931.779H8.29785Z" fill="white"/>
<path d="M-55 916.55V852.289C21.5806 827.787 27.9295 711.227 116.26 702.157C211.485 692.379 211.485 826.936 306.695 817.158C401.92 807.381 401.92 672.824 497.13 663.064C592.4 653.286 592.4 787.826 687.61 778.048C782.813 768.271 782.813 633.731 878.045 623.954C973.248 614.176 973.248 748.733 1068.48 738.956C1156.55 729.914 1163.16 614.089 1239.04 589.055V653.315C1163.3 678.454 1156.66 794.139 1068.61 803.164C973.407 812.942 973.407 678.402 878.174 688.18C782.972 697.94 782.972 832.497 687.739 842.274C592.537 852.052 592.537 717.495 497.304 727.272C402.102 737.05 402.102 871.589 306.869 881.367C211.621 891.144 211.621 756.605 116.411 766.365C27.9901 775.442 21.664 892.1 -55 916.55Z" fill="white"/>
<path d="M-55 782.993V718.715C21.5806 694.213 27.9295 577.653 116.26 568.582C211.485 558.822 211.485 693.361 306.695 683.584C401.92 673.806 401.92 539.267 497.13 529.489C592.4 519.712 592.4 654.269 687.61 644.491C782.813 634.714 782.813 500.174 878.045 490.397C973.248 480.619 973.248 615.159 1068.48 605.398C1156.55 596.357 1163.16 480.532 1239.04 455.48V519.741C1163.3 544.874 1156.66 660.565 1068.61 669.607C973.407 679.384 973.407 544.828 878.174 554.605C782.972 564.383 782.972 698.922 687.739 708.7C592.537 718.477 592.537 583.938 497.304 593.698C402.102 603.475 402.102 738.032 306.869 747.81C211.621 757.587 211.621 623.03 116.411 632.808C27.9901 641.885 21.664 758.543 -55 782.993Z" fill="white"/>
<path d="M-55 649.426V585.165C21.5806 560.663 27.9295 444.103 116.26 435.033C211.485 425.255 211.485 559.812 306.695 550.034C401.92 540.257 401.92 405.717 497.13 395.94C592.4 386.162 592.4 520.702 687.61 510.924C782.813 501.164 782.813 366.607 878.045 356.83C973.248 347.052 973.248 481.609 1068.48 471.832C1156.55 462.79 1163.16 346.965 1239.04 321.931V386.191C1163.3 411.33 1156.66 527.015 1068.61 536.057C973.407 545.818 973.407 411.278 878.174 421.056C782.972 430.816 782.972 565.373 687.739 575.15C592.537 584.928 592.537 450.371 497.304 460.148C402.102 469.926 402.102 604.465 306.869 614.243C211.621 624.02 211.621 489.481 116.411 499.241C27.9901 508.318 21.664 624.976 -55 649.426Z" fill="white"/>
<path d="M-55 515.849V451.588C21.5806 427.086 27.9295 310.526 116.26 301.455C211.485 291.695 211.485 426.235 306.695 416.457C401.92 406.697 401.92 272.14 497.13 262.363C592.4 252.585 592.4 387.142 687.61 377.364C782.813 367.587 782.813 233.047 878.045 223.27C973.248 213.492 973.248 348.032 1068.48 338.272C1156.55 329.23 1163.16 213.406 1239.04 188.354V252.632C1163.3 277.753 1156.66 393.438 1068.61 402.48C973.407 412.258 973.407 277.701 878.174 287.478C782.972 297.256 782.972 431.813 687.739 441.573C592.537 451.351 592.537 316.811 497.304 326.571C402.102 336.349 402.102 470.906 306.869 480.683C211.621 490.461 211.621 355.904 116.411 365.681C27.9901 374.758 21.664 491.416 -55 515.849Z" fill="white"/>
<path d="M-55 382.295V318.034C21.5806 293.533 27.9295 176.973 116.26 167.902C211.485 158.124 211.485 292.681 306.695 282.904C401.92 273.126 401.92 138.587 497.13 128.809C592.4 119.031 592.4 253.571 687.61 243.793C782.813 234.033 782.813 99.4764 878.045 89.6989C973.248 79.9213 973.248 214.478 1068.48 204.701C1156.55 195.659 1163.16 79.8345 1239.04 54.7998V119.06C1163.3 144.199 1156.66 259.885 1068.61 268.927C973.407 278.687 973.407 144.147 878.174 153.925C782.972 163.702 782.972 298.242 687.739 308.019C592.537 317.797 592.537 183.24 497.304 193.017C402.102 202.795 402.102 337.334 306.869 347.112C211.621 356.89 211.621 222.344 116.411 232.11C27.9901 241.187 21.664 357.845 -55 382.295Z" fill="white"/>
<path d="M-55 248.74V184.462C21.5806 159.961 27.9294 43.4007 116.26 34.3414C211.485 24.5639 211.485 159.103 306.695 149.326C389.336 140.852 400.259 38.3671 463.944 5.05515C473.638 -0.00738335 484.538 -3.48281 497.122 -4.77451C516.753 -6.79605 532.356 -2.67188 545.554 5.05515C596.443 34.7874 612.023 117.989 687.595 110.233C747.83 104.047 769.956 47.9245 802.193 5.05515H966.649C992.871 38.7841 1016.46 76.4693 1068.47 71.1403C1111.23 66.7613 1134.81 37.197 1156.39 5.05515H1205.8C1158.71 46.6907 1141.76 127.83 1068.59 135.349C973.392 145.126 973.392 10.5695 878.159 20.347C782.957 30.1245 782.957 164.681 687.724 174.442C592.522 184.219 592.522 49.6796 497.289 59.4398C402.087 69.2173 402.087 203.774 306.854 213.552C211.606 223.329 211.606 88.7723 116.396 98.5499C27.9901 107.627 21.6716 224.285 -55 248.74Z" fill="white"/>
<path d="M609.736 5.05371H752.938C736.372 23.7573 716.369 37.9602 687.735 40.8853C651.402 44.6098 628.927 27.3312 609.729 5.05371H609.736Z" fill="white"/>
<path d="M198.007 5.05371H256.815C270.34 13.3426 286.337 17.8549 306.696 15.7696C320 14.3968 331.424 10.6028 341.542 5.05371H400.7C377.345 40.422 353.557 75.182 306.87 79.9781C250.246 85.7936 227.293 40.6189 198.007 5.05371Z" fill="white"/>
<path d="M-54.998 115.161V50.9004C-30.2474 42.9764 -12.8469 25.466 2.36913 5.05371H47.562C15.1048 44.0132 -4.98855 99.2146 -54.998 115.161Z" fill="white"/>
<path d="M1145.86 949.318C1153.35 938.59 1160.46 927.359 1167.86 916.475C1188.95 885.474 1212.35 857.509 1253.83 853.251C1307.32 847.772 1330.76 887.832 1357.92 922.244C1365.74 932.137 1373.84 941.567 1383.07 949.318H1328.44C1317.96 937.768 1306.36 927.944 1292.02 922.244C1281.15 917.917 1268.71 915.977 1253.98 917.483C1246.19 918.282 1239.03 919.904 1232.43 922.244C1216.49 927.863 1203.65 937.519 1192.46 949.318H1145.86Z" fill="white"/>
<path d="M1082.56 934.086V869.825C1159.14 845.324 1165.49 728.764 1253.82 719.693C1349.05 709.915 1349.05 844.472 1444.26 834.695C1539.48 824.917 1539.48 690.36 1634.69 680.6C1729.96 670.822 1729.96 805.362 1825.17 795.584C1920.38 785.807 1920.38 651.267 2015.61 641.49C2110.81 631.712 2110.81 766.269 2206.04 756.492C2294.12 747.45 2300.72 631.625 2376.61 606.591V670.851C2300.86 695.99 2294.22 811.676 2206.17 820.7C2110.97 830.478 2110.97 695.938 2015.74 705.716C1920.54 715.476 1920.54 850.033 1825.3 859.81C1730.1 869.588 1730.1 735.031 1634.87 744.808C1539.67 754.586 1539.67 889.125 1444.43 898.903C1349.18 908.681 1349.18 774.141 1253.97 783.901C1165.55 792.978 1159.23 909.636 1082.56 934.086Z" fill="white"/>
<path d="M1082.56 800.529V736.251C1159.14 711.749 1165.49 595.189 1253.82 586.118C1349.05 576.358 1349.05 710.898 1444.26 701.12C1539.48 691.343 1539.48 556.803 1634.69 547.026C1729.96 537.248 1729.96 671.805 1825.17 662.028C1920.38 652.25 1920.38 517.711 2015.61 507.933C2110.81 498.155 2110.81 632.695 2206.04 622.935C2294.12 613.893 2300.72 498.069 2376.61 473.017V537.277C2300.86 562.41 2294.22 678.101 2206.17 687.143C2110.97 696.921 2110.97 562.364 2015.74 572.142C1920.54 581.919 1920.54 716.459 1825.3 726.236C1730.1 736.014 1730.1 601.474 1634.87 611.234C1539.67 621.012 1539.67 755.569 1444.43 765.346C1349.18 775.124 1349.18 640.567 1253.97 650.344C1165.55 659.421 1159.23 776.079 1082.56 800.529Z" fill="white"/>
<path d="M1082.56 666.962V602.701C1159.14 578.2 1165.49 461.64 1253.82 452.569C1349.05 442.791 1349.05 577.348 1444.26 567.571C1539.48 557.793 1539.48 423.253 1634.69 413.476C1729.96 403.698 1729.96 538.238 1825.17 528.46C1920.38 518.7 1920.38 384.143 2015.61 374.366C2110.81 364.588 2110.81 499.145 2206.04 489.368C2294.12 480.326 2300.72 364.501 2376.61 339.467V403.727C2300.86 428.866 2294.22 544.552 2206.17 553.594C2110.97 563.354 2110.97 428.814 2015.74 438.592C1920.54 448.352 1920.54 582.909 1825.3 592.686C1730.1 602.464 1730.1 467.907 1634.87 477.684C1539.67 487.462 1539.67 622.001 1444.43 631.779C1349.18 641.557 1349.18 507.017 1253.97 516.777C1165.55 525.854 1159.23 642.512 1082.56 666.962Z" fill="white"/>
<path d="M1082.56 533.388V469.127C1159.14 444.625 1165.49 328.065 1253.82 318.994C1349.05 309.234 1349.05 443.774 1444.26 433.996C1539.48 424.236 1539.48 289.679 1634.69 279.902C1729.96 270.124 1729.96 404.681 1825.17 394.904C1920.38 385.126 1920.38 250.587 2015.61 240.809C2110.81 231.031 2110.81 365.571 2206.04 355.811C2294.12 346.769 2300.72 230.945 2376.61 205.893V270.171C2300.86 295.292 2294.22 410.977 2206.17 420.019C2110.97 429.797 2110.97 295.24 2015.74 305.017C1920.54 314.795 1920.54 449.352 1825.3 459.112C1730.1 468.89 1730.1 334.35 1634.87 344.11C1539.67 353.888 1539.67 488.445 1444.43 498.222C1349.18 508 1349.18 373.443 1253.97 383.22C1165.55 392.297 1159.23 508.955 1082.56 533.388Z" fill="white"/>
<path d="M1082.56 399.835V335.574C1159.14 311.073 1165.49 194.513 1253.82 185.442C1349.05 175.664 1349.05 310.221 1444.26 300.444C1539.48 290.666 1539.48 156.127 1634.69 146.349C1729.96 136.571 1729.96 271.111 1825.17 261.333C1920.38 251.573 1920.38 117.016 2015.61 107.239C2110.81 97.4614 2110.81 232.018 2206.04 222.241C2294.12 213.199 2300.72 97.3745 2376.61 72.3398V136.6C2300.86 161.739 2294.22 277.425 2206.17 286.467C2110.97 296.227 2110.97 161.687 2015.74 171.465C1920.54 181.242 1920.54 315.782 1825.3 325.559C1730.1 335.337 1730.1 200.78 1634.87 210.557C1539.67 220.335 1539.67 354.875 1444.43 364.652C1349.18 374.43 1349.18 239.884 1253.97 249.65C1165.55 258.727 1159.23 375.385 1082.56 399.835Z" fill="white"/>
<path d="M1082.56 266.279V202.001C1159.14 177.5 1165.49 60.9397 1253.82 51.8805C1349.05 42.1029 1349.05 176.642 1444.26 166.865C1526.9 158.391 1537.82 55.9062 1601.51 22.5942C1611.2 17.5317 1622.1 14.0563 1634.69 12.7646C1654.32 10.743 1669.92 14.8672 1683.12 22.5942C1734.01 52.3265 1749.59 135.528 1825.16 127.772C1885.39 121.586 1907.52 65.4636 1939.76 22.5942H2104.21C2130.43 56.3232 2154.02 94.0084 2206.03 88.6794C2248.79 84.3004 2272.37 54.7361 2293.95 22.5942H2343.37C2296.27 64.2298 2279.32 145.369 2206.16 152.888C2110.96 162.665 2110.96 28.1086 2015.72 37.8861C1920.52 47.6636 1920.52 182.22 1825.29 191.981C1730.09 201.758 1730.09 67.2187 1634.85 76.9788C1539.65 86.7563 1539.65 221.313 1444.42 231.091C1349.17 240.868 1349.17 106.311 1253.96 116.089C1165.55 125.166 1159.24 241.824 1082.56 266.279Z" fill="white"/>
<path d="M1335.57 22.5955H1394.38C1407.9 30.8843 1423.9 35.3966 1444.26 33.3114C1457.56 31.9386 1468.99 28.1446 1479.1 22.5955H1538.26C1514.91 57.9637 1491.12 92.7237 1444.43 97.5198C1387.81 103.335 1364.85 58.1606 1335.57 22.5955Z" fill="white"/>
<path d="M1082.56 132.703V68.4421C1107.31 60.5181 1124.71 43.0078 1139.93 22.5955H1185.12C1152.67 61.555 1132.57 116.756 1082.56 132.703Z" fill="white"/>
</g>
</g>
</g>
</svg>
