<svg width="840" height="546" viewBox="0 0 840 546" fill="none" xmlns="http://www.w3.org/2000/svg">
<g opacity="0.2">
<mask id="mask0_88_3217" style="mask-type:alpha" maskUnits="userSpaceOnUse" x="-27" y="-2" width="894" height="550">
<rect x="-26.3438" y="69.2085" width="856" height="480" transform="rotate(-4.73279 -26.3438 69.2085)" fill="#23195F"/>
</mask>
<g mask="url(#mask0_88_3217)">
<g opacity="0.3">
<path d="M702.472 591.523L672.499 594.004C675.341 587.936 678.16 581.836 681.207 576.006C682.272 573.955 683.367 571.945 684.503 569.985C691.264 558.213 699.355 548.139 710.991 542.578L714.364 583.308C709.922 585.435 705.993 588.233 702.472 591.523Z" fill="white"/>
<path d="M256.701 628.43L228.043 630.802C233.075 625.554 237.285 619.254 241.083 612.445C257.228 583.536 266.113 545.439 299.676 538.617C342.327 529.955 354.689 585.995 386.518 600.404C393.434 603.543 401.254 604.711 410.507 602.836C415.958 601.734 420.756 599.799 425.038 597.215C461.541 575.208 460.763 505.91 507.195 496.488C559.061 485.954 566.121 571.229 618.005 560.705C652.168 553.77 660.767 514.414 677.491 485.331C684.239 473.561 692.343 463.486 703.979 457.913L707.352 498.654C695.701 504.247 687.617 514.357 680.87 526.146C671.281 542.842 664.358 562.915 653.735 578.277C648.221 586.241 641.72 592.934 633.337 597.244C629.743 599.098 625.801 600.514 621.449 601.396C613.304 603.05 606.262 602.343 599.984 600.005C591.878 597.005 585.032 591.303 578.707 584.489C558.702 562.979 543.86 530.429 510.64 537.179C483.288 542.741 472.324 569.073 460.456 594.279C457.549 600.471 454.577 606.595 451.306 612.314L364.981 619.461C360.613 614.149 356.392 608.547 352.026 603.256C339.25 587.75 325.279 574.815 303.145 579.305C285.393 582.919 274.545 595.273 265.868 610.389C262.594 616.12 259.621 622.233 256.705 628.426L256.701 628.43Z" fill="white"/>
<path d="M2.19764 639.782L-1.17446 599.052C39.6735 580.034 37.05 505.865 85.1721 496.092C137.051 485.557 144.112 570.844 195.982 560.309C247.86 549.775 240.799 464.489 292.671 453.965C344.574 443.428 351.634 528.704 403.504 518.169C455.37 507.636 448.31 422.361 500.193 411.825C552.059 401.292 559.12 486.578 611.003 476.042C658.985 466.3 656.542 392.586 696.978 373.262L700.35 413.992C659.994 433.376 662.413 507.003 614.443 516.734C562.577 527.268 555.517 441.992 503.634 452.528C451.767 463.05 458.828 548.337 406.946 558.872C355.08 569.406 348.019 484.119 296.136 494.655C244.27 505.188 251.33 590.463 199.447 600.999C147.556 611.535 140.496 526.26 88.6249 536.783C40.453 546.563 43.0942 620.793 2.19764 639.782Z" fill="white"/>
<path d="M-4.81073 555.132L-8.18374 514.391C32.6642 495.373 30.0407 421.205 78.1628 411.432C130.042 400.908 137.102 486.183 188.973 475.649C240.851 465.114 233.791 379.839 285.661 369.305C337.565 358.768 344.626 444.054 396.496 433.52C448.362 422.986 441.302 337.711 493.185 327.176C545.051 316.642 552.111 401.917 603.995 391.393C651.976 381.65 649.533 307.936 689.968 288.601L693.341 329.331C652.985 348.712 655.404 422.342 607.435 432.084C555.569 442.618 548.508 357.332 496.625 367.867C444.759 378.401 451.819 463.676 399.936 474.211C348.07 484.745 341.01 399.47 289.127 409.994C237.261 420.528 244.322 505.814 192.439 516.349C140.548 526.885 133.487 441.599 81.6166 452.133C33.4447 461.914 36.0858 536.143 -4.81073 555.132Z" fill="white"/>
<path d="M-11.8194 470.472L-15.1915 429.742C25.6564 410.724 23.0329 336.556 71.155 326.783C123.034 316.248 130.095 401.534 181.965 391C233.843 380.465 226.783 295.19 278.654 284.656C330.557 274.119 337.617 359.394 389.487 348.86C441.354 338.337 434.293 253.051 486.176 242.516C538.042 231.982 545.103 317.268 596.986 306.733C644.968 296.99 642.525 223.276 682.961 203.952L686.333 244.682C645.977 264.066 648.396 337.693 600.427 347.435C548.56 357.958 541.5 272.683 489.617 283.218C437.75 293.741 444.811 379.027 392.929 389.562C341.063 400.096 334.002 314.81 282.119 325.345C230.253 335.879 237.313 421.154 185.43 431.689C133.539 442.225 126.479 356.95 74.6078 367.473C26.436 377.254 29.0771 451.483 -11.8194 470.472Z" fill="white"/>
<path d="M-18.8292 385.803L-22.2013 345.073C18.6466 326.055 16.0231 251.887 64.1453 242.114C116.025 231.59 123.085 316.865 174.955 306.331C226.834 295.807 219.774 210.521 271.644 199.987C323.547 189.45 330.608 274.736 382.478 264.202C434.345 253.668 427.285 168.393 479.167 157.858C531.033 147.324 538.093 232.599 589.977 222.075C637.959 212.332 635.516 138.618 675.951 119.283L679.324 160.024C638.967 179.397 641.387 253.025 593.417 262.766C541.551 273.3 534.49 188.014 482.608 198.549C430.742 209.083 437.802 294.369 385.919 304.893C334.053 315.427 326.993 230.152 275.109 240.676C223.243 251.21 230.304 336.496 178.421 347.031C126.53 357.567 119.469 272.281 67.599 282.815C19.4271 292.596 22.0683 366.826 -18.8292 385.803Z" fill="white"/>
<path d="M-25.837 301.155L-29.2091 260.424C11.6388 241.406 9.01532 167.238 57.1374 157.465C109.016 146.93 116.077 232.216 167.947 221.682C219.826 211.147 212.766 125.872 264.636 115.338C316.54 104.801 323.6 190.076 375.47 179.542C427.337 169.019 420.276 83.7331 472.158 73.1979C524.025 62.6641 531.085 147.95 582.968 137.415C630.95 127.672 628.507 53.9584 668.943 34.6342L672.315 75.3645C631.96 94.7485 634.379 168.376 586.409 178.117C534.542 188.64 527.482 103.365 475.6 113.9C423.734 124.434 430.794 209.709 378.911 220.244C327.045 230.778 319.984 145.492 268.101 156.027C216.235 166.561 223.295 251.836 171.413 262.371C119.521 272.907 112.461 187.628 60.5903 198.155C12.4184 207.936 15.0595 282.166 -25.837 301.155Z" fill="white"/>
<path d="M-32.8457 216.505L-36.2187 175.764C4.62922 156.745 2.00574 82.5771 50.1285 72.8116C102.007 62.2767 109.067 147.552 160.937 137.018C205.961 127.882 206.592 62.4269 239.883 38.4119C244.951 34.7615 250.766 32.0622 257.622 30.6703C268.316 28.4948 277.117 30.3981 284.784 34.6945C314.343 51.2216 327.281 103.248 368.452 94.8893C401.268 88.2245 410.496 51.6447 425.983 23.0044L516.465 15.5134C532.662 35.6974 547.618 58.5088 575.951 52.7623C599.25 48.0387 610.669 28.2262 620.856 6.87075L648.045 4.61974C624.318 33.1549 619.252 85.3554 579.391 93.4536C527.525 103.987 520.464 18.7014 468.581 29.2366C416.715 39.7704 423.776 125.056 371.893 135.581C320.027 146.114 312.967 60.8394 261.083 71.3635C209.217 81.8973 216.278 167.183 164.395 177.719C112.504 188.254 105.443 102.968 53.573 113.503C5.40941 123.283 8.05474 197.512 -32.8457 216.505Z" fill="white"/>
<path d="M320.094 31.7714L398.882 25.2485C390.749 37.8579 380.489 47.7713 364.888 50.9296C345.094 54.9453 331.821 45.0174 320.09 31.7717L320.094 31.7714Z" fill="white"/>
<path d="M93.5669 50.5256L125.923 47.8469C133.798 52.4846 142.837 54.6159 153.928 52.3668C161.176 50.8907 167.262 47.9656 172.538 43.9875L205.086 41.2929C194.092 64.7741 182.829 87.8896 157.394 93.0561C126.545 99.3214 111.546 71.7339 93.5669 50.5256Z" fill="white"/>
<path d="M-39.8554 131.839L-43.2275 91.1092C-30.0258 84.9594 -21.3711 73.0682 -14.0706 59.4372L10.7939 57.3786C-5.01922 83.5507 -13.1776 119.454 -39.8554 131.839Z" fill="white"/>
<path d="M239.885 38.4147C244.953 34.7644 250.767 32.0651 257.623 30.6731C268.317 28.4976 277.118 30.4009 284.785 34.6974L239.881 38.4151L239.885 38.4147Z" fill="white"/>
<path d="M664.618 605.856C668.174 598.716 671.499 591.273 674.997 584.037C684.976 563.427 696.383 544.636 718.979 540.048C748.122 534.139 763.119 558.462 779.87 579.037C784.687 584.951 789.639 590.559 795.125 595.051L765.069 597.54C758.695 590.696 751.799 584.998 743.612 582.038C737.401 579.791 730.459 579.128 722.433 580.753C718.189 581.615 714.335 582.969 710.823 584.753C702.349 589.04 695.791 595.745 690.254 603.734L664.618 605.856Z" fill="white"/>
<path d="M628.992 599.085L625.62 558.354C666.468 539.336 663.844 465.168 711.967 455.395C763.845 444.86 770.906 530.146 822.776 519.612C874.655 509.077 867.594 423.791 919.465 413.268C971.369 402.731 978.429 488.006 1030.3 477.472C1082.16 466.938 1075.1 381.663 1126.99 371.128C1178.85 360.594 1185.91 445.88 1237.8 435.345C1285.78 425.602 1283.34 351.889 1323.77 332.564L1327.14 373.295C1286.79 392.679 1289.21 466.306 1241.24 476.036C1189.37 486.57 1182.31 401.295 1130.43 411.83C1078.56 422.353 1085.62 507.639 1033.74 518.174C981.874 528.708 974.813 443.422 922.93 453.957C871.064 464.491 878.124 549.766 826.242 560.301C774.351 570.837 767.291 485.562 715.419 496.085C667.247 505.866 669.889 580.096 628.992 599.085Z" fill="white"/>
<path d="M621.983 514.435L618.61 473.694C659.458 454.676 656.835 380.507 704.957 370.734C756.836 360.211 763.896 445.486 815.766 434.952C867.645 424.417 860.585 339.142 912.455 328.607C964.359 318.071 971.42 403.357 1023.29 392.822C1075.16 382.289 1068.1 297.014 1119.98 286.478C1171.84 275.945 1178.9 361.22 1230.79 350.696C1278.77 340.953 1276.33 267.239 1316.76 247.904L1320.13 288.634C1279.78 308.014 1282.2 381.645 1234.23 391.387C1182.36 401.921 1175.3 316.635 1123.42 327.17C1071.55 337.704 1078.61 422.979 1026.73 433.514C974.864 444.048 967.804 358.773 915.921 369.297C864.055 379.831 871.115 465.117 819.233 475.652C767.342 486.188 760.281 400.902 708.411 411.436C660.239 421.216 662.88 495.446 621.983 514.435Z" fill="white"/>
<path d="M614.974 429.775L611.602 389.044C652.45 370.026 649.827 295.858 697.949 286.085C749.828 275.55 756.888 360.836 808.759 350.302C860.637 339.767 853.577 254.492 905.447 243.958C957.351 233.421 964.411 318.696 1016.28 308.162C1068.15 297.639 1061.09 212.353 1112.97 201.818C1164.84 191.284 1171.9 276.57 1223.78 266.035C1271.76 256.292 1269.32 182.579 1309.75 163.254L1313.13 203.985C1272.77 223.369 1275.19 296.996 1227.22 306.737C1175.35 317.26 1168.29 231.985 1116.41 242.52C1064.54 253.043 1071.61 338.329 1019.72 348.864C967.856 359.398 960.796 274.112 908.913 284.647C857.047 295.181 864.107 380.456 812.224 390.991C760.333 401.527 753.273 316.252 701.402 326.775C653.23 336.556 655.871 410.786 614.974 429.775Z" fill="white"/>
<path d="M607.965 345.106L604.593 304.375C645.441 285.357 642.817 211.189 690.939 201.416C742.819 190.892 749.879 276.167 801.749 265.633C853.628 255.109 846.567 169.823 898.438 159.289C950.341 148.752 957.402 234.038 1009.27 223.504C1061.14 212.97 1054.08 127.695 1105.96 117.16C1157.83 106.626 1164.89 191.901 1216.77 181.377C1264.75 171.634 1262.31 97.9206 1302.74 78.5854L1306.12 119.327C1265.76 138.7 1268.18 212.327 1220.21 222.068C1168.35 232.602 1161.28 147.316 1109.4 157.851C1057.54 168.385 1064.6 253.671 1012.71 264.195C960.847 274.729 953.787 189.454 901.903 199.978C850.037 210.512 857.098 295.798 805.215 306.333C753.324 316.869 746.263 231.583 694.393 242.117C646.221 251.898 648.862 326.128 607.965 345.106Z" fill="white"/>
<path d="M600.958 260.457L597.586 219.727C638.434 200.709 635.81 126.541 683.932 116.768C735.811 106.233 742.872 191.519 794.742 180.985C846.621 170.45 839.561 85.1748 891.431 74.6407C943.334 64.1038 950.394 149.379 1002.26 138.845C1054.13 128.322 1047.07 43.0358 1098.95 32.5006C1150.82 21.9668 1157.88 107.253 1209.76 96.7177C1257.74 86.9749 1255.3 13.2612 1295.74 -6.06304L1299.11 34.6672C1258.75 54.0513 1261.17 127.678 1213.2 137.42C1161.34 147.943 1154.28 62.6678 1102.39 73.203C1050.53 83.7368 1057.59 169.012 1005.71 179.547C953.84 190.081 946.779 104.795 894.896 115.33C843.03 125.864 850.09 211.139 798.207 221.674C746.316 232.21 739.256 146.931 687.385 157.458C639.213 167.239 641.854 241.468 600.958 260.457Z" fill="white"/>
<path d="M593.948 175.807L590.575 135.066C631.423 116.048 628.8 41.8796 676.922 32.1141C728.801 21.5792 735.861 106.854 787.731 96.3201C832.755 87.1846 833.386 21.7294 866.677 -2.28564C871.745 -5.93599 877.56 -8.63532 884.416 -10.0272C895.11 -12.2027 903.911 -10.2994 911.578 -6.00301C941.137 10.5241 954.075 62.5501 995.246 54.1918C1028.06 47.527 1037.29 10.9472 1052.78 -17.6931L1143.26 -25.1841C1159.46 -5.00013 1174.41 17.8113 1202.74 12.0648C1226.04 7.34124 1237.46 -12.4713 1247.65 -33.8268L1274.84 -36.0778C1251.11 -7.54264 1246.05 44.6579 1206.19 52.7561C1154.32 63.2899 1147.26 -21.9961 1095.38 -11.4609C1043.51 -0.927135 1050.57 84.3589 998.687 94.8831C946.821 105.417 939.761 20.1419 887.877 30.666C836.011 41.1998 843.072 126.486 791.189 137.021C739.298 147.557 732.237 62.2709 680.367 72.8051C632.203 82.585 634.849 156.814 593.948 175.807Z" fill="white"/>
<path d="M720.36 9.82886L752.716 7.1501C760.592 11.7878 769.63 13.9191 780.722 11.6701C787.97 10.1939 794.056 7.26882 799.332 3.29073L831.879 0.596079C820.886 24.0773 809.622 47.1928 784.187 52.3593C753.339 58.6246 738.34 31.0371 720.36 9.82886Z" fill="white"/>
<path d="M586.939 91.1425L583.567 50.4122C596.769 44.2624 605.423 32.3712 612.724 18.7402L637.588 16.6816C621.775 42.8537 613.617 78.7572 586.939 91.1425Z" fill="white"/>
</g>
</g>
</g>
</svg>
