<svg width="328" height="276" viewBox="0 0 328 276" fill="none" xmlns="http://www.w3.org/2000/svg">
<path fill-rule="evenodd" clip-rule="evenodd" d="M167.427 274.685C200.928 274.263 235.957 275.479 263.883 258.978C292.433 242.107 309.824 213.976 319.663 184.729C329.333 155.983 332.603 124.119 318.402 96.9091C304.93 71.0945 272.246 60.4694 246.207 43.9812C220.528 27.7212 198.575 5.48998 167.427 1.31106C133.504 -3.24027 98.5697 4.29402 69.3023 20.2469C38.3625 37.1113 5.83226 60.3149 0.511363 92.2922C-4.69219 123.564 31.251 146.853 43.2871 176.591C54.719 204.836 43.7622 241.516 68.9695 261.434C94.4299 281.552 133.407 275.114 167.427 274.685Z" fill="#F5E6D2"/>
</svg>
