<svg width="328" height="276" viewBox="0 0 328 276" fill="none" xmlns="http://www.w3.org/2000/svg">
<path fill-rule="evenodd" clip-rule="evenodd" d="M167.427 1.31106C200.928 1.733 235.957 0.5167 263.883 17.0177C292.433 33.8887 309.824 62.0197 319.663 91.2667C329.333 120.013 332.603 151.877 318.402 179.087C304.93 204.901 272.246 215.526 246.207 232.014C220.528 248.274 198.575 270.506 167.427 274.685C133.504 279.236 98.5697 271.702 69.3023 255.749C38.3625 238.884 5.83226 215.681 0.511363 183.704C-4.69219 152.432 31.251 129.143 43.2871 99.4047C54.719 71.1597 43.7622 34.4797 68.9695 14.5617C94.4299 -5.5563 133.407 0.8817 167.427 1.31106Z" fill="#F5E6D2"/>
</svg> 
